{"glyphs":{"0":{"ha":935,"x_min":61,"x_max":874,"o":"m 467 -14 q 258 45 350 -14 q 114 217 167 104 q 61 486 61 331 q 114 755 61 642 q 258 927 167 868 q 467 986 350 986 q 676 927 583 986 q 821 755 768 868 q 874 486 874 642 q 821 217 874 331 q 676 45 768 104 q 467 -14 583 -14 m 467 143 q 631 229 571 143 q 692 486 692 315 q 631 743 692 657 q 467 829 571 829 q 303 743 364 829 q 243 486 243 657 q 303 229 243 315 q 467 143 364 143 z "},"1":{"ha":529,"x_min":11,"x_max":397,"o":"m 397 972 l 397 0 l 217 0 l 217 821 l 11 821 l 11 972 l 397 972 z "},"2":{"ha":808,"x_min":11,"x_max":765,"o":"m 765 153 l 765 0 l 49 0 l 49 121 l 435 488 q 523 597 500 550 q 546 689 546 643 q 500 793 546 757 q 365 829 454 829 q 138 728 217 829 l 11 825 q 165 944 68 901 q 381 986 261 986 q 633 911 539 986 q 728 707 728 836 q 694 558 728 628 q 567 400 661 489 l 307 153 l 765 153 z "},"3":{"ha":808,"x_min":1,"x_max":751,"o":"m 475 571 q 681 479 610 554 q 751 292 751 404 q 708 138 751 207 q 578 27 665 68 q 367 -14 492 -14 q 166 16 263 -14 q 1 99 69 46 l 79 239 q 208 169 132 194 q 364 143 283 143 q 515 183 460 143 q 569 290 569 222 q 517 397 569 358 q 358 435 465 435 l 269 435 l 269 558 l 490 821 l 49 821 l 49 972 l 711 972 l 711 851 l 475 571 z "},"4":{"ha":943,"x_min":47,"x_max":928,"o":"m 928 221 l 756 221 l 756 0 l 581 0 l 581 221 l 47 221 l 47 346 l 526 972 l 719 972 l 268 374 l 586 374 l 586 569 l 756 569 l 756 374 l 928 374 l 928 221 z "},"5":{"ha":811,"x_min":18,"x_max":768,"o":"m 365 596 q 669 516 571 596 q 768 299 768 436 q 725 140 768 211 q 596 28 682 69 q 383 -14 510 -14 q 182 16 279 -14 q 18 99 85 46 l 94 239 q 224 169 149 194 q 381 143 300 143 q 531 183 476 143 q 586 292 586 222 q 527 405 586 367 q 325 443 468 443 l 90 443 l 140 972 l 711 972 l 711 821 l 293 821 l 272 596 l 365 596 z "},"6":{"ha":871,"x_min":61,"x_max":838,"o":"m 503 600 q 675 563 599 600 q 794 458 751 526 q 838 301 838 390 q 790 135 838 207 q 663 25 743 64 q 482 -14 582 -14 q 172 111 282 -14 q 61 469 61 236 q 121 749 61 633 q 288 926 181 865 q 538 986 396 986 q 678 970 613 986 q 793 924 744 954 l 726 788 q 542 835 654 835 q 322 749 401 835 q 243 500 243 663 l 243 499 q 353 574 286 549 q 503 600 419 600 m 472 128 q 610 173 557 128 q 663 293 663 218 q 610 414 663 369 q 468 458 557 458 q 326 411 381 458 q 271 292 271 364 q 324 174 271 221 q 472 128 378 128 z "},"7":{"ha":844,"x_min":39,"x_max":794,"o":"m 794 972 l 794 851 l 417 0 l 224 0 l 589 819 l 207 819 l 207 654 l 39 654 l 39 972 l 794 972 z "},"8":{"ha":906,"x_min":56,"x_max":850,"o":"m 692 511 q 809 417 768 476 q 850 279 850 358 q 801 124 850 190 q 661 22 751 57 q 451 -14 571 -14 q 242 22 332 -14 q 104 124 153 57 q 56 279 56 190 q 96 417 56 358 q 211 511 136 476 q 122 595 153 543 q 90 715 90 647 q 135 858 90 797 q 263 953 181 919 q 451 986 344 986 q 642 953 560 986 q 769 858 724 919 q 815 715 815 797 q 783 596 815 647 q 692 511 751 544 m 451 844 q 317 808 367 844 q 268 707 268 772 q 317 608 268 644 q 451 571 367 571 q 588 608 538 571 q 638 707 638 644 q 587 808 638 772 q 451 844 536 844 m 451 128 q 610 169 551 128 q 668 285 668 211 q 610 399 668 357 q 451 440 551 440 q 294 399 351 440 q 238 285 238 357 q 294 169 238 211 q 451 128 351 128 z "},"9":{"ha":871,"x_min":33,"x_max":810,"o":"m 389 986 q 699 861 589 986 q 810 503 810 736 q 750 223 810 339 q 583 47 690 107 q 333 -14 475 -14 q 192 2 258 -14 q 78 49 126 18 l 144 185 q 329 138 217 138 q 549 224 469 138 q 628 472 628 310 l 628 474 q 518 398 585 424 q 368 372 451 372 q 196 409 272 372 q 76 514 119 446 q 33 671 33 582 q 81 837 33 765 q 208 947 128 908 q 389 986 289 986 m 403 514 q 545 561 490 514 q 600 681 600 608 q 547 798 600 751 q 399 844 493 844 q 261 799 314 844 q 208 679 208 754 q 261 558 208 603 q 403 514 314 514 z "},"\u0000":{"ha":0,"x_min":0,"x_max":0,"o":""},"\r":{"ha":383,"x_min":0,"x_max":0,"o":""}," ":{"ha":383,"x_min":0,"x_max":0,"o":""},"A":{"ha":1040,"x_min":-7,"x_max":1047,"o":"m 761 225 l 275 225 l 179 0 l -7 0 l 431 972 l 608 972 l 1047 0 l 858 0 l 761 225 m 701 367 l 518 792 l 336 367 l 701 367 z "},"Á":{"ha":1040,"x_min":-7,"x_max":1047,"o":"m 761 225 l 275 225 l 179 0 l -7 0 l 431 972 l 608 972 l 1047 0 l 858 0 l 761 225 m 701 367 l 518 792 l 336 367 l 701 367 m 590 1242 l 794 1242 l 553 1051 l 403 1051 l 590 1242 z "},"Ă":{"ha":1040,"x_min":-7,"x_max":1047,"o":"m 761 225 l 275 225 l 179 0 l -7 0 l 431 972 l 608 972 l 1047 0 l 858 0 l 761 225 m 701 367 l 518 792 l 336 367 l 701 367 m 519 1042 q 351 1096 418 1042 q 279 1242 283 1150 l 393 1242 q 431 1166 394 1194 q 519 1138 467 1138 q 608 1166 572 1138 q 646 1242 644 1194 l 760 1242 q 688 1096 756 1150 q 519 1042 621 1042 z "},"Ắ":{"ha":1040,"x_min":-7,"x_max":1047,"o":"m 761 225 l 275 225 l 179 0 l -7 0 l 431 972 l 608 972 l 1047 0 l 858 0 l 761 225 m 701 367 l 518 792 l 336 367 l 701 367 m 519 1042 q 352 1084 418 1042 q 279 1200 286 1126 l 390 1200 q 430 1151 394 1169 q 519 1132 465 1132 q 609 1151 574 1132 q 649 1200 644 1169 l 760 1200 q 687 1084 753 1126 q 519 1042 621 1042 m 571 1400 l 757 1400 l 546 1238 l 413 1238 l 571 1400 z "},"Ặ":{"ha":1040,"x_min":-7,"x_max":1047,"o":"m 761 225 l 275 225 l 179 0 l -7 0 l 431 972 l 608 972 l 1047 0 l 858 0 l 761 225 m 701 367 l 518 792 l 336 367 l 701 367 m 519 -282 q 460 -260 483 -282 q 436 -200 436 -237 q 460 -140 436 -164 q 519 -115 483 -115 q 579 -140 556 -115 q 603 -200 603 -164 q 579 -260 603 -237 q 519 -282 556 -282 m 519 1042 q 351 1096 418 1042 q 279 1242 283 1150 l 393 1242 q 431 1166 394 1194 q 519 1138 467 1138 q 608 1166 572 1138 q 646 1242 644 1194 l 760 1242 q 688 1096 756 1150 q 519 1042 621 1042 z "},"Ằ":{"ha":1040,"x_min":-7,"x_max":1047,"o":"m 761 225 l 275 225 l 179 0 l -7 0 l 431 972 l 608 972 l 1047 0 l 858 0 l 761 225 m 701 367 l 518 792 l 336 367 l 701 367 m 519 1042 q 352 1084 418 1042 q 279 1200 286 1126 l 390 1200 q 430 1151 394 1169 q 519 1132 465 1132 q 609 1151 574 1132 q 649 1200 644 1169 l 760 1200 q 687 1084 753 1126 q 519 1042 621 1042 m 283 1400 l 469 1400 l 628 1238 l 494 1238 l 283 1400 z "},"Ẳ":{"ha":1040,"x_min":-7,"x_max":1047,"o":"m 761 225 l 275 225 l 179 0 l -7 0 l 431 972 l 608 972 l 1047 0 l 858 0 l 761 225 m 701 367 l 518 792 l 336 367 l 701 367 m 519 1042 q 352 1084 418 1042 q 279 1200 286 1126 l 390 1200 q 430 1151 394 1169 q 519 1132 465 1132 q 609 1151 574 1132 q 649 1200 644 1169 l 760 1200 q 687 1084 753 1126 q 519 1042 621 1042 m 503 1246 q 557 1307 557 1272 q 543 1338 557 1326 q 507 1350 529 1350 q 446 1333 476 1350 l 415 1392 q 522 1421 458 1421 q 608 1392 576 1421 q 639 1317 639 1364 q 614 1246 639 1276 q 547 1199 589 1215 l 503 1246 z "},"Ẵ":{"ha":1040,"x_min":-7,"x_max":1047,"o":"m 761 225 l 275 225 l 179 0 l -7 0 l 431 972 l 608 972 l 1047 0 l 858 0 l 761 225 m 701 367 l 518 792 l 336 367 l 701 367 m 519 1042 q 352 1084 418 1042 q 279 1200 286 1126 l 390 1200 q 430 1151 394 1169 q 519 1132 465 1132 q 609 1151 574 1132 q 649 1200 644 1169 l 760 1200 q 687 1084 753 1126 q 519 1042 621 1042 m 621 1239 q 555 1251 583 1239 q 493 1286 526 1264 q 457 1307 471 1300 q 429 1314 443 1314 q 368 1247 371 1314 l 274 1247 q 315 1364 275 1322 q 421 1406 354 1406 q 483 1394 456 1406 q 543 1361 511 1382 q 583 1339 568 1346 q 613 1332 597 1332 q 656 1349 640 1332 q 674 1397 671 1367 l 765 1397 q 725 1281 764 1324 q 621 1239 686 1239 z "},"Ǎ":{"ha":1040,"x_min":-7,"x_max":1047,"o":"m 761 225 l 275 225 l 179 0 l -7 0 l 431 972 l 608 972 l 1047 0 l 858 0 l 761 225 m 701 367 l 518 792 l 336 367 l 701 367 m 785 1242 l 599 1051 l 440 1051 l 254 1242 l 397 1242 l 519 1139 l 642 1242 l 785 1242 z "},"Â":{"ha":1040,"x_min":-7,"x_max":1047,"o":"m 761 225 l 275 225 l 179 0 l -7 0 l 431 972 l 608 972 l 1047 0 l 858 0 l 761 225 m 701 367 l 518 792 l 336 367 l 701 367 m 642 1051 l 519 1154 l 397 1051 l 254 1051 l 440 1242 l 599 1242 l 785 1051 l 642 1051 z "},"Ấ":{"ha":1040,"x_min":-7,"x_max":1047,"o":"m 761 225 l 275 225 l 179 0 l -7 0 l 431 972 l 608 972 l 1047 0 l 858 0 l 761 225 m 701 367 l 518 792 l 336 367 l 701 367 m 640 1051 l 519 1128 l 399 1051 l 254 1051 l 442 1200 l 597 1200 l 785 1051 l 640 1051 m 829 1342 l 1015 1342 l 804 1179 l 671 1179 l 829 1342 z "},"Ậ":{"ha":1040,"x_min":-7,"x_max":1047,"o":"m 761 225 l 275 225 l 179 0 l -7 0 l 431 972 l 608 972 l 1047 0 l 858 0 l 761 225 m 701 367 l 518 792 l 336 367 l 701 367 m 519 -282 q 460 -260 483 -282 q 436 -200 436 -237 q 460 -140 436 -164 q 519 -115 483 -115 q 579 -140 556 -115 q 603 -200 603 -164 q 579 -260 603 -237 q 519 -282 556 -282 m 642 1051 l 519 1154 l 397 1051 l 254 1051 l 440 1242 l 599 1242 l 785 1051 l 642 1051 z "},"Ầ":{"ha":1040,"x_min":-7,"x_max":1047,"o":"m 761 225 l 275 225 l 179 0 l -7 0 l 431 972 l 608 972 l 1047 0 l 858 0 l 761 225 m 701 367 l 518 792 l 336 367 l 701 367 m 640 1051 l 519 1128 l 399 1051 l 254 1051 l 442 1200 l 597 1200 l 785 1051 l 640 1051 m 542 1342 l 728 1342 l 886 1179 l 753 1179 l 542 1342 z "},"Ẩ":{"ha":1040,"x_min":-7,"x_max":1047,"o":"m 761 225 l 275 225 l 179 0 l -7 0 l 431 972 l 608 972 l 1047 0 l 858 0 l 761 225 m 701 367 l 518 792 l 336 367 l 701 367 m 640 1051 l 519 1128 l 399 1051 l 254 1051 l 442 1200 l 597 1200 l 785 1051 l 640 1051 m 699 1200 q 753 1261 753 1226 q 739 1292 753 1281 q 703 1304 725 1304 q 642 1288 672 1304 l 611 1346 q 718 1375 654 1375 q 803 1347 772 1375 q 835 1271 835 1318 q 810 1200 835 1231 q 743 1153 785 1169 l 699 1200 z "},"Ẫ":{"ha":1040,"x_min":-7,"x_max":1047,"o":"m 761 225 l 275 225 l 179 0 l -7 0 l 431 972 l 608 972 l 1047 0 l 858 0 l 761 225 m 701 367 l 518 792 l 336 367 l 701 367 m 640 1051 l 519 1128 l 399 1051 l 254 1051 l 442 1200 l 597 1200 l 785 1051 l 640 1051 m 621 1247 q 555 1260 583 1247 q 493 1294 526 1272 q 457 1315 471 1308 q 429 1322 443 1322 q 368 1256 371 1322 l 274 1256 q 315 1372 275 1331 q 421 1414 354 1414 q 483 1402 456 1414 q 543 1369 511 1390 q 583 1347 568 1354 q 613 1340 597 1340 q 656 1358 640 1340 q 674 1406 671 1375 l 765 1406 q 725 1290 764 1332 q 621 1247 686 1247 z "},"Ȁ":{"ha":1040,"x_min":-7,"x_max":1047,"o":"m 761 225 l 275 225 l 179 0 l -7 0 l 431 972 l 608 972 l 1047 0 l 858 0 l 761 225 m 701 367 l 518 792 l 336 367 l 701 367 m 172 1242 l 346 1242 l 457 1051 l 321 1051 l 172 1242 m 432 1242 l 606 1242 l 718 1051 l 582 1051 l 432 1242 z "},"Ä":{"ha":1040,"x_min":-7,"x_max":1047,"o":"m 761 225 l 275 225 l 179 0 l -7 0 l 431 972 l 608 972 l 1047 0 l 858 0 l 761 225 m 701 367 l 518 792 l 336 367 l 701 367 m 385 1067 q 325 1090 349 1067 q 301 1150 301 1114 q 325 1211 301 1188 q 385 1235 349 1235 q 444 1211 421 1235 q 468 1150 468 1188 q 444 1090 468 1114 q 385 1067 421 1067 m 654 1067 q 594 1090 618 1067 q 571 1150 571 1114 q 594 1211 571 1188 q 654 1235 618 1235 q 714 1211 690 1235 q 738 1150 738 1188 q 714 1090 738 1114 q 654 1067 690 1067 z "},"Ạ":{"ha":1040,"x_min":-7,"x_max":1047,"o":"m 761 225 l 275 225 l 179 0 l -7 0 l 431 972 l 608 972 l 1047 0 l 858 0 l 761 225 m 701 367 l 518 792 l 336 367 l 701 367 m 519 -282 q 460 -260 483 -282 q 436 -200 436 -237 q 460 -140 436 -164 q 519 -115 483 -115 q 579 -140 556 -115 q 603 -200 603 -164 q 579 -260 603 -237 q 519 -282 556 -282 z "},"À":{"ha":1040,"x_min":-7,"x_max":1047,"o":"m 761 225 l 275 225 l 179 0 l -7 0 l 431 972 l 608 972 l 1047 0 l 858 0 l 761 225 m 701 367 l 518 792 l 336 367 l 701 367 m 244 1242 l 449 1242 l 636 1051 l 486 1051 l 244 1242 z "},"Ả":{"ha":1040,"x_min":-7,"x_max":1047,"o":"m 761 225 l 275 225 l 179 0 l -7 0 l 431 972 l 608 972 l 1047 0 l 858 0 l 761 225 m 701 367 l 518 792 l 336 367 l 701 367 m 497 1101 q 555 1141 538 1119 q 572 1190 572 1163 q 553 1234 572 1217 q 503 1251 533 1251 q 419 1225 460 1251 l 382 1301 q 446 1333 410 1322 q 521 1344 482 1344 q 631 1306 588 1344 q 674 1206 674 1268 q 554 1038 674 1093 l 497 1101 z "},"Ȃ":{"ha":1040,"x_min":-7,"x_max":1047,"o":"m 761 225 l 275 225 l 179 0 l -7 0 l 431 972 l 608 972 l 1047 0 l 858 0 l 761 225 m 701 367 l 518 792 l 336 367 l 701 367 m 279 1051 q 351 1197 283 1143 q 519 1251 418 1251 q 688 1197 621 1251 q 760 1051 756 1143 l 646 1051 q 608 1128 644 1100 q 519 1157 572 1157 q 431 1128 467 1157 q 393 1051 394 1100 l 279 1051 z "},"Ā":{"ha":1040,"x_min":-7,"x_max":1047,"o":"m 761 225 l 275 225 l 179 0 l -7 0 l 431 972 l 608 972 l 1047 0 l 858 0 l 761 225 m 701 367 l 518 792 l 336 367 l 701 367 m 279 1199 l 760 1199 l 760 1094 l 279 1094 l 279 1199 z "},"Ą":{"ha":1040,"x_min":-7,"x_max":1079,"o":"m 761 225 l 275 225 l 179 0 l -7 0 l 431 972 l 608 972 l 1047 0 l 858 0 l 761 225 m 701 367 l 518 792 l 336 367 l 701 367 m 947 -317 q 815 -276 863 -317 q 767 -168 767 -235 q 817 -47 767 -104 q 971 51 867 11 l 1047 0 q 922 -76 960 -39 q 883 -154 883 -112 q 906 -204 883 -186 q 965 -222 928 -222 q 1050 -200 1014 -222 l 1079 -285 q 947 -317 1022 -317 z "},"Å":{"ha":1040,"x_min":-7,"x_max":1047,"o":"m 761 225 l 275 225 l 179 0 l -7 0 l 431 972 l 608 972 l 1047 0 l 858 0 l 761 225 m 701 367 l 518 792 l 336 367 l 701 367 m 518 1054 q 403 1100 450 1054 q 357 1213 357 1146 q 403 1326 357 1279 q 518 1374 450 1374 q 634 1326 588 1374 q 681 1213 681 1279 q 634 1100 681 1146 q 518 1054 588 1054 m 518 1125 q 582 1150 557 1125 q 607 1213 607 1175 q 581 1277 607 1251 q 518 1303 556 1303 q 456 1277 481 1303 q 431 1213 431 1251 q 456 1150 431 1175 q 518 1125 481 1125 z "},"Ǻ":{"ha":1040,"x_min":-7,"x_max":1047,"o":"m 761 225 l 275 225 l 179 0 l -7 0 l 431 972 l 608 972 l 1047 0 l 858 0 l 761 225 m 701 367 l 518 792 l 336 367 l 701 367 m 656 1300 q 681 1213 681 1261 q 634 1100 681 1146 q 518 1054 588 1054 q 403 1100 450 1054 q 357 1213 357 1146 q 403 1326 357 1279 q 518 1374 450 1374 q 592 1357 558 1374 l 710 1478 l 799 1408 l 656 1300 m 518 1125 q 582 1150 557 1125 q 607 1213 607 1175 q 581 1277 607 1251 q 518 1303 556 1303 q 456 1277 481 1303 q 431 1213 431 1251 q 456 1150 431 1175 q 518 1125 481 1125 z "},"Ã":{"ha":1040,"x_min":-7,"x_max":1047,"o":"m 761 225 l 275 225 l 179 0 l -7 0 l 431 972 l 608 972 l 1047 0 l 858 0 l 761 225 m 701 367 l 518 792 l 336 367 l 701 367 m 619 1051 q 559 1065 585 1051 q 496 1107 533 1079 q 459 1134 474 1125 q 431 1143 444 1143 q 383 1121 401 1143 q 363 1060 364 1099 l 269 1060 q 312 1195 271 1144 q 419 1246 353 1246 q 480 1232 454 1246 q 543 1190 506 1218 q 580 1163 565 1172 q 608 1154 594 1154 q 656 1175 638 1154 q 676 1233 675 1196 l 769 1233 q 726 1101 767 1151 q 619 1051 686 1051 z "},"Æ":{"ha":1476,"x_min":-7,"x_max":1406,"o":"m 1406 151 l 1406 0 l 676 0 l 676 225 l 307 225 l 179 0 l -7 0 l 557 972 l 1386 972 l 1386 821 l 857 821 l 857 568 l 1326 568 l 1326 419 l 857 419 l 857 151 l 1406 151 m 676 367 l 676 821 l 646 821 l 388 367 l 676 367 z "},"Ǽ":{"ha":1476,"x_min":-7,"x_max":1406,"o":"m 1406 151 l 1406 0 l 676 0 l 676 225 l 307 225 l 179 0 l -7 0 l 557 972 l 1386 972 l 1386 821 l 857 821 l 857 568 l 1326 568 l 1326 419 l 857 419 l 857 151 l 1406 151 m 676 367 l 676 821 l 646 821 l 388 367 l 676 367 m 836 1242 l 1040 1242 l 799 1051 l 649 1051 l 836 1242 z "},"B":{"ha":1057,"x_min":131,"x_max":994,"o":"m 819 506 q 947 417 900 479 q 994 264 994 356 q 897 69 994 138 q 614 0 800 0 l 131 0 l 131 972 l 586 972 q 851 905 758 972 q 944 719 944 838 q 911 592 944 647 q 819 506 878 536 m 311 831 l 311 563 l 567 563 q 712 597 661 563 q 763 696 763 631 q 712 797 763 763 q 567 831 661 831 l 311 831 m 603 142 q 813 282 813 142 q 603 422 813 422 l 311 422 l 311 142 l 603 142 z "},"C":{"ha":1010,"x_min":61,"x_max":967,"o":"m 581 -14 q 315 51 433 -14 q 128 229 196 115 q 61 486 61 343 q 129 743 61 629 q 316 922 197 857 q 582 986 435 986 q 800 944 701 986 q 967 824 899 903 l 850 714 q 590 828 744 828 q 411 784 490 828 q 288 663 332 740 q 243 486 243 585 q 288 310 243 388 q 411 188 332 232 q 590 144 490 144 q 850 260 744 144 l 967 149 q 799 28 899 69 q 581 -14 700 -14 z "},"Ć":{"ha":1010,"x_min":61,"x_max":967,"o":"m 581 -14 q 315 51 433 -14 q 128 229 196 115 q 61 486 61 343 q 129 743 61 629 q 316 922 197 857 q 582 986 435 986 q 800 944 701 986 q 967 824 899 903 l 850 714 q 590 828 744 828 q 411 784 490 828 q 288 663 332 740 q 243 486 243 585 q 288 310 243 388 q 411 188 332 232 q 590 144 490 144 q 850 260 744 144 l 967 149 q 799 28 899 69 q 581 -14 700 -14 m 644 1242 l 849 1242 l 607 1051 l 457 1051 l 644 1242 z "},"Č":{"ha":1010,"x_min":61,"x_max":967,"o":"m 581 -14 q 315 51 433 -14 q 128 229 196 115 q 61 486 61 343 q 129 743 61 629 q 316 922 197 857 q 582 986 435 986 q 800 944 701 986 q 967 824 899 903 l 850 714 q 590 828 744 828 q 411 784 490 828 q 288 663 332 740 q 243 486 243 585 q 288 310 243 388 q 411 188 332 232 q 590 144 490 144 q 850 260 744 144 l 967 149 q 799 28 899 69 q 581 -14 700 -14 m 839 1242 l 653 1051 l 494 1051 l 308 1242 l 451 1242 l 574 1139 l 696 1242 l 839 1242 z "},"Ç":{"ha":1010,"x_min":61,"x_max":967,"o":"m 581 -14 q 315 51 433 -14 q 128 229 196 115 q 61 486 61 343 q 129 743 61 629 q 316 922 197 857 q 582 986 435 986 q 800 944 701 986 q 967 824 899 903 l 850 714 q 590 828 744 828 q 411 784 490 828 q 288 663 332 740 q 243 486 243 585 q 288 310 243 388 q 411 188 332 232 q 590 144 490 144 q 850 260 744 144 l 967 149 q 799 28 899 69 q 581 -14 700 -14 m 515 -317 q 388 -287 440 -317 l 419 -206 q 514 -228 463 -228 q 588 -178 588 -228 q 569 -144 588 -157 q 514 -132 551 -132 l 471 -132 l 508 10 l 603 10 l 583 -68 q 674 -106 643 -75 q 704 -185 704 -137 q 653 -281 704 -244 q 515 -317 601 -317 z "},"Ḉ":{"ha":1010,"x_min":61,"x_max":967,"o":"m 581 -14 q 315 51 433 -14 q 128 229 196 115 q 61 486 61 343 q 129 743 61 629 q 316 922 197 857 q 582 986 435 986 q 800 944 701 986 q 967 824 899 903 l 850 714 q 590 828 744 828 q 411 784 490 828 q 288 663 332 740 q 243 486 243 585 q 288 310 243 388 q 411 188 332 232 q 590 144 490 144 q 850 260 744 144 l 967 149 q 799 28 899 69 q 581 -14 700 -14 m 515 -317 q 388 -287 440 -317 l 419 -206 q 514 -228 463 -228 q 588 -178 588 -228 q 569 -144 588 -157 q 514 -132 551 -132 l 471 -132 l 508 10 l 603 10 l 583 -68 q 674 -106 643 -75 q 704 -185 704 -137 q 653 -281 704 -244 q 515 -317 601 -317 m 644 1242 l 849 1242 l 607 1051 l 457 1051 l 644 1242 z "},"Ĉ":{"ha":1010,"x_min":61,"x_max":967,"o":"m 581 -14 q 315 51 433 -14 q 128 229 196 115 q 61 486 61 343 q 129 743 61 629 q 316 922 197 857 q 582 986 435 986 q 800 944 701 986 q 967 824 899 903 l 850 714 q 590 828 744 828 q 411 784 490 828 q 288 663 332 740 q 243 486 243 585 q 288 310 243 388 q 411 188 332 232 q 590 144 490 144 q 850 260 744 144 l 967 149 q 799 28 899 69 q 581 -14 700 -14 m 696 1051 l 574 1154 l 451 1051 l 308 1051 l 494 1242 l 653 1242 l 839 1051 l 696 1051 z "},"Ċ":{"ha":1010,"x_min":61,"x_max":967,"o":"m 581 -14 q 315 51 433 -14 q 128 229 196 115 q 61 486 61 343 q 129 743 61 629 q 316 922 197 857 q 582 986 435 986 q 800 944 701 986 q 967 824 899 903 l 850 714 q 590 828 744 828 q 411 784 490 828 q 288 663 332 740 q 243 486 243 585 q 288 310 243 388 q 411 188 332 232 q 590 144 490 144 q 850 260 744 144 l 967 149 q 799 28 899 69 q 581 -14 700 -14 m 574 1068 q 503 1096 531 1068 q 475 1167 475 1124 q 503 1238 475 1210 q 574 1265 531 1265 q 644 1238 617 1265 q 672 1167 672 1210 q 644 1096 672 1124 q 574 1068 617 1068 z "},"D":{"ha":1147,"x_min":131,"x_max":1086,"o":"m 131 972 l 556 972 q 832 912 711 972 q 1019 741 953 851 q 1086 486 1086 631 q 1019 231 1086 342 q 832 60 953 121 q 556 0 711 0 l 131 0 l 131 972 m 547 153 q 735 194 654 153 q 860 310 817 235 q 904 486 904 386 q 860 662 904 586 q 735 778 817 738 q 547 819 654 819 l 311 819 l 311 153 l 547 153 z "},"Ǆ":{"ha":2017,"x_min":131,"x_max":1975,"o":"m 131 972 l 556 972 q 832 912 711 972 q 1019 741 953 851 q 1086 486 1086 631 q 1019 231 1086 342 q 832 60 953 121 q 556 0 711 0 l 131 0 l 131 972 m 547 153 q 735 194 654 153 q 860 310 817 235 q 904 486 904 386 q 860 662 904 586 q 735 778 817 738 q 547 819 654 819 l 311 819 l 311 153 l 547 153 m 1975 153 l 1975 0 l 1146 0 l 1146 121 l 1718 819 l 1156 819 l 1156 972 l 1957 972 l 1957 851 l 1385 153 l 1975 153 m 1826 1242 l 1640 1051 l 1482 1051 l 1296 1242 l 1439 1242 l 1561 1139 l 1683 1242 l 1826 1242 z "},"Ð":{"ha":1161,"x_min":7,"x_max":1100,"o":"m 144 972 l 569 972 q 846 912 725 972 q 1033 741 967 851 q 1100 486 1100 631 q 1033 231 1100 342 q 846 60 967 121 q 569 0 725 0 l 144 0 l 144 972 m 561 153 q 749 194 668 153 q 874 310 831 235 q 918 486 918 386 q 874 662 918 586 q 749 778 831 738 q 561 819 668 819 l 325 819 l 325 153 l 561 153 m 7 561 l 585 561 l 585 428 l 7 428 l 7 561 z "},"Ď":{"ha":1147,"x_min":131,"x_max":1086,"o":"m 131 972 l 556 972 q 832 912 711 972 q 1019 741 953 851 q 1086 486 1086 631 q 1019 231 1086 342 q 832 60 953 121 q 556 0 711 0 l 131 0 l 131 972 m 547 153 q 735 194 654 153 q 860 310 817 235 q 904 486 904 386 q 860 662 904 586 q 735 778 817 738 q 547 819 654 819 l 311 819 l 311 153 l 547 153 m 786 1240 l 600 1050 l 442 1050 l 256 1240 l 399 1240 l 521 1138 l 643 1240 l 786 1240 z "},"Đ":{"ha":1161,"x_min":7,"x_max":1100,"o":"m 144 972 l 569 972 q 846 912 725 972 q 1033 741 967 851 q 1100 486 1100 631 q 1033 231 1100 342 q 846 60 967 121 q 569 0 725 0 l 144 0 l 144 972 m 561 153 q 749 194 668 153 q 874 310 831 235 q 918 486 918 386 q 874 662 918 586 q 749 778 831 738 q 561 819 668 819 l 325 819 l 325 153 l 561 153 m 7 561 l 585 561 l 585 428 l 7 428 l 7 561 z "},"Ḍ":{"ha":1147,"x_min":131,"x_max":1086,"o":"m 131 972 l 556 972 q 832 912 711 972 q 1019 741 953 851 q 1086 486 1086 631 q 1019 231 1086 342 q 832 60 953 121 q 556 0 711 0 l 131 0 l 131 972 m 547 153 q 735 194 654 153 q 860 310 817 235 q 904 486 904 386 q 860 662 904 586 q 735 778 817 738 q 547 819 654 819 l 311 819 l 311 153 l 547 153 m 525 -282 q 465 -260 489 -282 q 442 -200 442 -237 q 465 -140 442 -164 q 525 -115 489 -115 q 585 -140 561 -115 q 608 -200 608 -164 q 585 -260 608 -237 q 525 -282 561 -282 z "},"Ḏ":{"ha":1147,"x_min":131,"x_max":1086,"o":"m 131 972 l 556 972 q 832 912 711 972 q 1019 741 953 851 q 1086 486 1086 631 q 1019 231 1086 342 q 832 60 953 121 q 556 0 711 0 l 131 0 l 131 972 m 547 153 q 735 194 654 153 q 860 310 817 235 q 904 486 904 386 q 860 662 904 586 q 735 778 817 738 q 547 819 654 819 l 311 819 l 311 153 l 547 153 m 285 -144 l 765 -144 l 765 -247 l 285 -247 l 285 -144 z "},"ǅ":{"ha":1886,"x_min":131,"x_max":1840,"o":"m 131 972 l 556 972 q 832 912 711 972 q 1019 741 953 851 q 1086 486 1086 631 q 1019 231 1086 342 q 832 60 953 121 q 556 0 711 0 l 131 0 l 131 972 m 547 153 q 735 194 654 153 q 860 310 817 235 q 904 486 904 386 q 860 662 904 586 q 735 778 817 738 q 547 819 654 819 l 311 819 l 311 153 l 547 153 m 1840 139 l 1840 0 l 1200 0 l 1200 110 l 1607 603 l 1208 603 l 1208 742 l 1829 742 l 1829 632 l 1421 139 l 1840 139 m 1785 1033 l 1599 843 l 1440 843 l 1254 1033 l 1397 1033 l 1519 931 l 1642 1033 l 1785 1033 z "},"E":{"ha":931,"x_min":131,"x_max":860,"o":"m 860 151 l 860 0 l 131 0 l 131 972 l 840 972 l 840 821 l 311 821 l 311 568 l 781 568 l 781 419 l 311 419 l 311 151 l 860 151 z "},"É":{"ha":931,"x_min":131,"x_max":860,"o":"m 860 151 l 860 0 l 131 0 l 131 972 l 840 972 l 840 821 l 311 821 l 311 568 l 781 568 l 781 419 l 311 419 l 311 151 l 860 151 m 558 1242 l 763 1242 l 521 1051 l 371 1051 l 558 1242 z "},"Ĕ":{"ha":931,"x_min":131,"x_max":860,"o":"m 860 151 l 860 0 l 131 0 l 131 972 l 840 972 l 840 821 l 311 821 l 311 568 l 781 568 l 781 419 l 311 419 l 311 151 l 860 151 m 488 1042 q 319 1096 386 1042 q 247 1242 251 1150 l 361 1242 q 399 1166 363 1194 q 488 1138 435 1138 q 576 1166 540 1138 q 614 1242 613 1194 l 728 1242 q 656 1096 724 1150 q 488 1042 589 1042 z "},"Ě":{"ha":931,"x_min":131,"x_max":860,"o":"m 860 151 l 860 0 l 131 0 l 131 972 l 840 972 l 840 821 l 311 821 l 311 568 l 781 568 l 781 419 l 311 419 l 311 151 l 860 151 m 753 1242 l 567 1051 l 408 1051 l 222 1242 l 365 1242 l 488 1139 l 610 1242 l 753 1242 z "},"Ḝ":{"ha":931,"x_min":131,"x_max":860,"o":"m 860 151 l 860 0 l 131 0 l 131 972 l 840 972 l 840 821 l 311 821 l 311 568 l 781 568 l 781 419 l 311 419 l 311 151 l 860 151 m 458 -317 q 331 -287 383 -317 l 363 -206 q 457 -228 406 -228 q 531 -178 531 -228 q 513 -144 531 -157 q 457 -132 494 -132 l 414 -132 l 451 10 l 546 10 l 526 -68 q 617 -106 586 -75 q 647 -185 647 -137 q 596 -281 647 -244 q 458 -317 544 -317 m 488 1042 q 319 1096 386 1042 q 247 1242 251 1150 l 361 1242 q 399 1166 363 1194 q 488 1138 435 1138 q 576 1166 540 1138 q 614 1242 613 1194 l 728 1242 q 656 1096 724 1150 q 488 1042 589 1042 z "},"Ê":{"ha":931,"x_min":131,"x_max":860,"o":"m 860 151 l 860 0 l 131 0 l 131 972 l 840 972 l 840 821 l 311 821 l 311 568 l 781 568 l 781 419 l 311 419 l 311 151 l 860 151 m 610 1051 l 488 1154 l 365 1051 l 222 1051 l 408 1242 l 567 1242 l 753 1051 l 610 1051 z "},"Ế":{"ha":931,"x_min":131,"x_max":983,"o":"m 860 151 l 860 0 l 131 0 l 131 972 l 840 972 l 840 821 l 311 821 l 311 568 l 781 568 l 781 419 l 311 419 l 311 151 l 860 151 m 608 1051 l 488 1128 l 367 1051 l 222 1051 l 410 1200 l 565 1200 l 753 1051 l 608 1051 m 797 1342 l 983 1342 l 772 1179 l 639 1179 l 797 1342 z "},"Ệ":{"ha":931,"x_min":131,"x_max":860,"o":"m 860 151 l 860 0 l 131 0 l 131 972 l 840 972 l 840 821 l 311 821 l 311 568 l 781 568 l 781 419 l 311 419 l 311 151 l 860 151 m 499 -282 q 439 -260 463 -282 q 415 -200 415 -237 q 439 -140 415 -164 q 499 -115 463 -115 q 558 -140 535 -115 q 582 -200 582 -164 q 558 -260 582 -237 q 499 -282 535 -282 m 610 1051 l 488 1154 l 365 1051 l 222 1051 l 408 1242 l 567 1242 l 753 1051 l 610 1051 z "},"Ề":{"ha":931,"x_min":131,"x_max":860,"o":"m 860 151 l 860 0 l 131 0 l 131 972 l 840 972 l 840 821 l 311 821 l 311 568 l 781 568 l 781 419 l 311 419 l 311 151 l 860 151 m 608 1051 l 488 1128 l 367 1051 l 222 1051 l 410 1200 l 565 1200 l 753 1051 l 608 1051 m 510 1342 l 696 1342 l 854 1179 l 721 1179 l 510 1342 z "},"Ể":{"ha":931,"x_min":131,"x_max":860,"o":"m 860 151 l 860 0 l 131 0 l 131 972 l 840 972 l 840 821 l 311 821 l 311 568 l 781 568 l 781 419 l 311 419 l 311 151 l 860 151 m 608 1051 l 488 1128 l 367 1051 l 222 1051 l 410 1200 l 565 1200 l 753 1051 l 608 1051 m 667 1200 q 721 1261 721 1226 q 707 1292 721 1281 q 671 1304 693 1304 q 610 1288 640 1304 l 579 1346 q 686 1375 622 1375 q 772 1347 740 1375 q 803 1271 803 1318 q 778 1200 803 1231 q 711 1153 753 1169 l 667 1200 z "},"Ễ":{"ha":931,"x_min":131,"x_max":860,"o":"m 860 151 l 860 0 l 131 0 l 131 972 l 840 972 l 840 821 l 311 821 l 311 568 l 781 568 l 781 419 l 311 419 l 311 151 l 860 151 m 608 1051 l 488 1128 l 367 1051 l 222 1051 l 410 1200 l 565 1200 l 753 1051 l 608 1051 m 589 1247 q 523 1260 551 1247 q 461 1294 494 1272 q 425 1315 439 1308 q 397 1322 411 1322 q 336 1256 339 1322 l 242 1256 q 283 1372 243 1331 q 389 1414 322 1414 q 451 1402 424 1414 q 511 1369 479 1390 q 551 1347 536 1354 q 581 1340 565 1340 q 624 1358 608 1340 q 642 1406 639 1375 l 733 1406 q 693 1290 732 1332 q 589 1247 654 1247 z "},"Ȅ":{"ha":931,"x_min":131,"x_max":860,"o":"m 860 151 l 860 0 l 131 0 l 131 972 l 840 972 l 840 821 l 311 821 l 311 568 l 781 568 l 781 419 l 311 419 l 311 151 l 860 151 m 140 1242 l 314 1242 l 425 1051 l 289 1051 l 140 1242 m 400 1242 l 574 1242 l 686 1051 l 550 1051 l 400 1242 z "},"Ë":{"ha":931,"x_min":131,"x_max":860,"o":"m 860 151 l 860 0 l 131 0 l 131 972 l 840 972 l 840 821 l 311 821 l 311 568 l 781 568 l 781 419 l 311 419 l 311 151 l 860 151 m 353 1067 q 293 1090 317 1067 q 269 1150 269 1114 q 293 1211 269 1188 q 353 1235 317 1235 q 413 1211 389 1235 q 436 1150 436 1188 q 413 1090 436 1114 q 353 1067 389 1067 m 622 1067 q 563 1090 586 1067 q 539 1150 539 1114 q 563 1211 539 1188 q 622 1235 586 1235 q 682 1211 658 1235 q 706 1150 706 1188 q 682 1090 706 1114 q 622 1067 658 1067 z "},"Ė":{"ha":931,"x_min":131,"x_max":860,"o":"m 860 151 l 860 0 l 131 0 l 131 972 l 840 972 l 840 821 l 311 821 l 311 568 l 781 568 l 781 419 l 311 419 l 311 151 l 860 151 m 488 1068 q 417 1096 444 1068 q 389 1167 389 1124 q 417 1238 389 1210 q 488 1265 444 1265 q 558 1238 531 1265 q 586 1167 586 1210 q 558 1096 586 1124 q 488 1068 531 1068 z "},"Ẹ":{"ha":931,"x_min":131,"x_max":860,"o":"m 860 151 l 860 0 l 131 0 l 131 972 l 840 972 l 840 821 l 311 821 l 311 568 l 781 568 l 781 419 l 311 419 l 311 151 l 860 151 m 499 -282 q 439 -260 463 -282 q 415 -200 415 -237 q 439 -140 415 -164 q 499 -115 463 -115 q 558 -140 535 -115 q 582 -200 582 -164 q 558 -260 582 -237 q 499 -282 535 -282 z "},"È":{"ha":931,"x_min":131,"x_max":860,"o":"m 860 151 l 860 0 l 131 0 l 131 972 l 840 972 l 840 821 l 311 821 l 311 568 l 781 568 l 781 419 l 311 419 l 311 151 l 860 151 m 213 1242 l 417 1242 l 604 1051 l 454 1051 l 213 1242 z "},"Ẻ":{"ha":931,"x_min":131,"x_max":860,"o":"m 860 151 l 860 0 l 131 0 l 131 972 l 840 972 l 840 821 l 311 821 l 311 568 l 781 568 l 781 419 l 311 419 l 311 151 l 860 151 m 465 1101 q 523 1141 506 1119 q 540 1190 540 1163 q 521 1234 540 1217 q 471 1251 501 1251 q 388 1225 428 1251 l 350 1301 q 414 1333 378 1322 q 489 1344 450 1344 q 599 1306 556 1344 q 642 1206 642 1268 q 522 1038 642 1093 l 465 1101 z "},"Ȇ":{"ha":931,"x_min":131,"x_max":860,"o":"m 860 151 l 860 0 l 131 0 l 131 972 l 840 972 l 840 821 l 311 821 l 311 568 l 781 568 l 781 419 l 311 419 l 311 151 l 860 151 m 247 1051 q 319 1197 251 1143 q 488 1251 386 1251 q 656 1197 589 1251 q 728 1051 724 1143 l 614 1051 q 576 1128 613 1100 q 488 1157 540 1157 q 399 1128 435 1157 q 361 1051 363 1100 l 247 1051 z "},"Ē":{"ha":931,"x_min":131,"x_max":860,"o":"m 860 151 l 860 0 l 131 0 l 131 972 l 840 972 l 840 821 l 311 821 l 311 568 l 781 568 l 781 419 l 311 419 l 311 151 l 860 151 m 247 1199 l 728 1199 l 728 1094 l 247 1094 l 247 1199 z "},"Ḗ":{"ha":931,"x_min":131,"x_max":860,"o":"m 860 151 l 860 0 l 131 0 l 131 972 l 840 972 l 840 821 l 311 821 l 311 568 l 781 568 l 781 419 l 311 419 l 311 151 l 860 151 m 247 1175 l 728 1175 l 728 1078 l 247 1078 l 247 1175 m 539 1425 l 725 1425 l 514 1263 l 381 1263 l 539 1425 z "},"Ḕ":{"ha":931,"x_min":131,"x_max":860,"o":"m 860 151 l 860 0 l 131 0 l 131 972 l 840 972 l 840 821 l 311 821 l 311 568 l 781 568 l 781 419 l 311 419 l 311 151 l 860 151 m 247 1175 l 728 1175 l 728 1078 l 247 1078 l 247 1175 m 251 1425 l 438 1425 l 596 1263 l 463 1263 l 251 1425 z "},"Ę":{"ha":931,"x_min":131,"x_max":892,"o":"m 860 151 l 860 0 l 131 0 l 131 972 l 840 972 l 840 821 l 311 821 l 311 568 l 781 568 l 781 419 l 311 419 l 311 151 l 860 151 m 760 -317 q 627 -276 675 -317 q 579 -168 579 -235 q 629 -47 579 -104 q 783 51 679 11 l 860 0 q 734 -76 772 -39 q 696 -154 696 -112 q 718 -204 696 -186 q 778 -222 740 -222 q 863 -200 826 -222 l 892 -285 q 760 -317 835 -317 z "},"Ẽ":{"ha":931,"x_min":131,"x_max":860,"o":"m 860 151 l 860 0 l 131 0 l 131 972 l 840 972 l 840 821 l 311 821 l 311 568 l 781 568 l 781 419 l 311 419 l 311 151 l 860 151 m 588 1051 q 527 1065 553 1051 q 464 1107 501 1079 q 427 1134 442 1125 q 399 1143 413 1143 q 351 1121 369 1143 q 331 1060 332 1099 l 238 1060 q 280 1195 239 1144 q 388 1246 321 1246 q 448 1232 422 1246 q 511 1190 474 1218 q 548 1163 533 1172 q 576 1154 563 1154 q 624 1175 606 1154 q 644 1233 643 1196 l 738 1233 q 694 1101 735 1151 q 588 1051 654 1051 z "},"Ʒ":{"ha":876,"x_min":40,"x_max":817,"o":"m 513 571 q 739 481 661 556 q 817 292 817 407 q 772 138 817 207 q 638 27 728 68 q 415 -14 547 -14 q 203 15 304 -14 q 40 96 103 44 l 104 238 q 241 167 160 193 q 410 140 322 140 q 575 181 515 140 q 635 292 635 221 q 578 399 635 361 q 406 438 521 438 l 314 438 l 314 558 l 557 824 l 79 824 l 79 972 l 769 972 l 769 851 l 513 571 z "},"Ǯ":{"ha":876,"x_min":40,"x_max":817,"o":"m 513 571 q 739 481 661 556 q 817 292 817 407 q 772 138 817 207 q 638 27 728 68 q 415 -14 547 -14 q 203 15 304 -14 q 40 96 103 44 l 104 238 q 241 167 160 193 q 410 140 322 140 q 575 181 515 140 q 635 292 635 221 q 578 399 635 361 q 406 438 521 438 l 314 438 l 314 558 l 557 824 l 79 824 l 79 972 l 769 972 l 769 851 l 513 571 m 692 1242 l 506 1051 l 347 1051 l 161 1242 l 304 1242 l 426 1139 l 549 1242 l 692 1242 z "},"F":{"ha":885,"x_min":131,"x_max":840,"o":"m 311 821 l 311 525 l 781 525 l 781 372 l 311 372 l 311 0 l 131 0 l 131 972 l 840 972 l 840 821 l 311 821 z "},"G":{"ha":1072,"x_min":61,"x_max":978,"o":"m 794 497 l 965 497 l 965 110 q 790 18 890 50 q 585 -14 690 -14 q 317 51 436 -14 q 129 229 197 115 q 61 486 61 343 q 129 743 61 629 q 317 922 197 857 q 588 986 438 986 q 810 946 710 986 q 978 828 910 906 l 864 717 q 596 828 753 828 q 413 785 493 828 q 288 664 333 742 q 243 486 243 586 q 288 311 243 389 q 413 189 333 233 q 594 144 493 144 q 794 194 708 144 l 794 497 z "},"Ğ":{"ha":1072,"x_min":61,"x_max":978,"o":"m 794 497 l 965 497 l 965 110 q 790 18 890 50 q 585 -14 690 -14 q 317 51 436 -14 q 129 229 197 115 q 61 486 61 343 q 129 743 61 629 q 317 922 197 857 q 588 986 438 986 q 810 946 710 986 q 978 828 910 906 l 864 717 q 596 828 753 828 q 413 785 493 828 q 288 664 333 742 q 243 486 243 586 q 288 311 243 389 q 413 189 333 233 q 594 144 493 144 q 794 194 708 144 l 794 497 m 575 1042 q 406 1096 474 1042 q 335 1242 339 1150 l 449 1242 q 486 1166 450 1194 q 575 1138 522 1138 q 664 1166 628 1138 q 701 1242 700 1194 l 815 1242 q 744 1096 811 1150 q 575 1042 676 1042 z "},"Ǧ":{"ha":1072,"x_min":61,"x_max":978,"o":"m 794 497 l 965 497 l 965 110 q 790 18 890 50 q 585 -14 690 -14 q 317 51 436 -14 q 129 229 197 115 q 61 486 61 343 q 129 743 61 629 q 317 922 197 857 q 588 986 438 986 q 810 946 710 986 q 978 828 910 906 l 864 717 q 596 828 753 828 q 413 785 493 828 q 288 664 333 742 q 243 486 243 586 q 288 311 243 389 q 413 189 333 233 q 594 144 493 144 q 794 194 708 144 l 794 497 m 840 1242 l 654 1051 l 496 1051 l 310 1242 l 453 1242 l 575 1139 l 697 1242 l 840 1242 z "},"Ĝ":{"ha":1072,"x_min":61,"x_max":978,"o":"m 794 497 l 965 497 l 965 110 q 790 18 890 50 q 585 -14 690 -14 q 317 51 436 -14 q 129 229 197 115 q 61 486 61 343 q 129 743 61 629 q 317 922 197 857 q 588 986 438 986 q 810 946 710 986 q 978 828 910 906 l 864 717 q 596 828 753 828 q 413 785 493 828 q 288 664 333 742 q 243 486 243 586 q 288 311 243 389 q 413 189 333 233 q 594 144 493 144 q 794 194 708 144 l 794 497 m 697 1051 l 575 1154 l 453 1051 l 310 1051 l 496 1242 l 654 1242 l 840 1051 l 697 1051 z "},"Ģ":{"ha":1072,"x_min":61,"x_max":978,"o":"m 794 497 l 965 497 l 965 110 q 790 18 890 50 q 585 -14 690 -14 q 317 51 436 -14 q 129 229 197 115 q 61 486 61 343 q 129 743 61 629 q 317 922 197 857 q 588 986 438 986 q 810 946 710 986 q 978 828 910 906 l 864 717 q 596 828 753 828 q 413 785 493 828 q 288 664 333 742 q 243 486 243 586 q 288 311 243 389 q 413 189 333 233 q 594 144 493 144 q 794 194 708 144 l 794 497 m 564 -115 q 624 -136 601 -115 q 647 -189 647 -157 q 625 -271 647 -228 l 581 -368 l 496 -368 l 529 -256 q 481 -189 481 -240 q 503 -135 481 -156 q 564 -115 526 -115 z "},"Ġ":{"ha":1072,"x_min":61,"x_max":978,"o":"m 794 497 l 965 497 l 965 110 q 790 18 890 50 q 585 -14 690 -14 q 317 51 436 -14 q 129 229 197 115 q 61 486 61 343 q 129 743 61 629 q 317 922 197 857 q 588 986 438 986 q 810 946 710 986 q 978 828 910 906 l 864 717 q 596 828 753 828 q 413 785 493 828 q 288 664 333 742 q 243 486 243 586 q 288 311 243 389 q 413 189 333 233 q 594 144 493 144 q 794 194 708 144 l 794 497 m 575 1068 q 504 1096 532 1068 q 476 1167 476 1124 q 504 1238 476 1210 q 575 1265 532 1265 q 646 1238 618 1265 q 674 1167 674 1210 q 646 1096 674 1124 q 575 1068 618 1068 z "},"Ḡ":{"ha":1072,"x_min":61,"x_max":978,"o":"m 794 497 l 965 497 l 965 110 q 790 18 890 50 q 585 -14 690 -14 q 317 51 436 -14 q 129 229 197 115 q 61 486 61 343 q 129 743 61 629 q 317 922 197 857 q 588 986 438 986 q 810 946 710 986 q 978 828 910 906 l 864 717 q 596 828 753 828 q 413 785 493 828 q 288 664 333 742 q 243 486 243 586 q 288 311 243 389 q 413 189 333 233 q 594 144 493 144 q 794 194 708 144 l 794 497 m 335 1199 l 815 1199 l 815 1094 l 335 1094 l 335 1199 z "},"Ǥ":{"ha":1124,"x_min":61,"x_max":1093,"o":"m 794 497 l 965 497 l 965 110 q 790 18 890 50 q 585 -14 690 -14 q 317 51 436 -14 q 129 229 197 115 q 61 486 61 343 q 129 743 61 629 q 317 922 197 857 q 588 986 438 986 q 810 946 710 986 q 978 828 910 906 l 864 717 q 596 828 753 828 q 413 785 493 828 q 288 664 333 742 q 243 486 243 586 q 288 311 243 389 q 413 189 333 233 q 594 144 493 144 q 794 194 708 144 l 794 497 m 550 403 l 1094 403 l 1094 270 l 550 270 l 550 403 z "},"H":{"ha":1125,"x_min":131,"x_max":994,"o":"m 994 972 l 994 0 l 814 0 l 814 417 l 311 417 l 311 0 l 131 0 l 131 972 l 311 972 l 311 571 l 814 571 l 814 972 l 994 972 z "},"Ħ":{"ha":1153,"x_min":7,"x_max":1144,"o":"m 1008 972 l 1008 0 l 828 0 l 828 417 l 325 417 l 325 0 l 144 0 l 144 972 l 325 972 l 325 571 l 828 571 l 828 972 l 1008 972 m 7 843 l 1144 843 l 1144 710 l 7 710 l 7 843 z "},"Ḫ":{"ha":1125,"x_min":131,"x_max":994,"o":"m 994 972 l 994 0 l 814 0 l 814 417 l 311 417 l 311 0 l 131 0 l 131 972 l 311 972 l 311 571 l 814 571 l 814 972 l 994 972 m 563 -296 q 394 -244 461 -296 q 322 -107 326 -192 l 431 -107 q 468 -178 431 -151 q 563 -206 506 -206 q 657 -178 619 -206 q 694 -107 694 -151 l 803 -107 q 731 -244 799 -192 q 563 -296 664 -296 z "},"Ȟ":{"ha":1125,"x_min":131,"x_max":994,"o":"m 994 972 l 994 0 l 814 0 l 814 417 l 311 417 l 311 0 l 131 0 l 131 972 l 311 972 l 311 571 l 814 571 l 814 972 l 994 972 m 828 1242 l 642 1051 l 483 1051 l 297 1242 l 440 1242 l 563 1139 l 685 1242 l 828 1242 z "},"Ĥ":{"ha":1125,"x_min":131,"x_max":994,"o":"m 994 972 l 994 0 l 814 0 l 814 417 l 311 417 l 311 0 l 131 0 l 131 972 l 311 972 l 311 571 l 814 571 l 814 972 l 994 972 m 685 1051 l 563 1154 l 440 1051 l 297 1051 l 483 1242 l 642 1242 l 828 1051 l 685 1051 z "},"Ḥ":{"ha":1125,"x_min":131,"x_max":994,"o":"m 994 972 l 994 0 l 814 0 l 814 417 l 311 417 l 311 0 l 131 0 l 131 972 l 311 972 l 311 571 l 814 571 l 814 972 l 994 972 m 563 -282 q 503 -260 526 -282 q 479 -200 479 -237 q 503 -140 479 -164 q 563 -115 526 -115 q 622 -140 599 -115 q 646 -200 646 -164 q 622 -260 646 -237 q 563 -282 599 -282 z "},"I":{"ha":443,"x_min":131,"x_max":311,"o":"m 131 972 l 311 972 l 311 0 l 131 0 l 131 972 z "},"Ĳ":{"ha":1003,"x_min":104,"x_max":881,"o":"m 454 -14 q 263 14 353 -14 q 104 89 172 42 l 172 229 q 307 165 235 188 q 454 143 379 143 q 700 422 700 143 l 700 972 l 881 972 l 881 432 q 828 189 881 289 q 679 38 775 89 q 454 -14 583 -14 m 122 972 l 303 972 l 303 438 l 122 438 l 122 972 z "},"Í":{"ha":443,"x_min":104,"x_max":496,"o":"m 131 972 l 311 972 l 311 0 l 131 0 l 131 972 m 292 1242 l 496 1242 l 254 1051 l 104 1051 l 292 1242 z "},"Ĭ":{"ha":443,"x_min":-19,"x_max":461,"o":"m 131 972 l 311 972 l 311 0 l 131 0 l 131 972 m 221 1042 q 52 1096 119 1042 q -19 1242 -15 1150 l 94 1242 q 132 1166 96 1194 q 221 1138 168 1138 q 310 1166 274 1138 q 347 1242 346 1194 l 461 1242 q 390 1096 457 1150 q 221 1042 322 1042 z "},"Î":{"ha":443,"x_min":-44,"x_max":486,"o":"m 131 972 l 311 972 l 311 0 l 131 0 l 131 972 m 343 1051 l 221 1154 l 99 1051 l -44 1051 l 142 1242 l 300 1242 l 486 1051 l 343 1051 z "},"Ȉ":{"ha":443,"x_min":-126,"x_max":419,"o":"m 131 972 l 311 972 l 311 0 l 131 0 l 131 972 m -126 1242 l 47 1242 l 158 1051 l 22 1051 l -126 1242 m 133 1242 l 307 1242 l 419 1051 l 283 1051 l 133 1242 z "},"Ï":{"ha":443,"x_min":3,"x_max":439,"o":"m 131 972 l 311 972 l 311 0 l 131 0 l 131 972 m 86 1067 q 26 1090 50 1067 q 3 1150 3 1114 q 26 1211 3 1188 q 86 1235 50 1235 q 146 1211 122 1235 q 169 1150 169 1188 q 146 1090 169 1114 q 86 1067 122 1067 m 356 1067 q 296 1090 319 1067 q 272 1150 272 1114 q 296 1211 272 1188 q 356 1235 319 1235 q 415 1211 392 1235 q 439 1150 439 1188 q 415 1090 439 1114 q 356 1067 392 1067 z "},"Ḯ":{"ha":443,"x_min":10,"x_max":458,"o":"m 131 972 l 311 972 l 311 0 l 131 0 l 131 972 m 90 1067 q 33 1090 57 1067 q 10 1147 10 1113 q 33 1205 10 1182 q 90 1228 57 1228 q 148 1205 125 1228 q 171 1147 171 1182 q 148 1090 171 1113 q 90 1067 125 1067 m 353 1067 q 296 1090 319 1067 q 272 1147 272 1113 q 296 1205 272 1182 q 353 1228 319 1228 q 410 1204 386 1228 q 433 1147 433 1181 q 410 1090 433 1113 q 353 1067 386 1067 m 272 1425 l 458 1425 l 247 1263 l 114 1263 l 272 1425 z "},"İ":{"ha":443,"x_min":122,"x_max":319,"o":"m 131 972 l 311 972 l 311 0 l 131 0 l 131 972 m 221 1068 q 150 1096 178 1068 q 122 1167 122 1124 q 150 1238 122 1210 q 221 1265 178 1265 q 292 1238 264 1265 q 319 1167 319 1210 q 292 1096 319 1124 q 221 1068 264 1068 z "},"Ị":{"ha":443,"x_min":131,"x_max":311,"o":"m 131 972 l 311 972 l 311 0 l 131 0 l 131 972 m 221 -282 q 161 -260 185 -282 q 138 -200 138 -237 q 161 -140 138 -164 q 221 -115 185 -115 q 281 -140 257 -115 q 304 -200 304 -164 q 281 -260 304 -237 q 221 -282 257 -282 z "},"Ì":{"ha":443,"x_min":-54,"x_max":338,"o":"m 131 972 l 311 972 l 311 0 l 131 0 l 131 972 m -54 1242 l 150 1242 l 338 1051 l 188 1051 l -54 1242 z "},"Ỉ":{"ha":443,"x_min":83,"x_max":375,"o":"m 131 972 l 311 972 l 311 0 l 131 0 l 131 972 m 199 1101 q 256 1141 239 1119 q 274 1190 274 1163 q 254 1234 274 1217 q 204 1251 235 1251 q 121 1225 161 1251 l 83 1301 q 147 1333 111 1322 q 222 1344 183 1344 q 332 1306 289 1344 q 375 1206 375 1268 q 256 1038 375 1093 l 199 1101 z "},"Ȋ":{"ha":443,"x_min":-19,"x_max":461,"o":"m 131 972 l 311 972 l 311 0 l 131 0 l 131 972 m -19 1051 q 52 1197 -15 1143 q 221 1251 119 1251 q 390 1197 322 1251 q 461 1051 457 1143 l 347 1051 q 310 1128 346 1100 q 221 1157 274 1157 q 132 1128 168 1157 q 94 1051 96 1100 l -19 1051 z "},"Ī":{"ha":443,"x_min":25,"x_max":417,"o":"m 131 972 l 311 972 l 311 0 l 131 0 l 131 972 m 25 1199 l 417 1199 l 417 1094 l 25 1094 l 25 1199 z "},"Į":{"ha":443,"x_min":110,"x_max":358,"o":"m 131 972 l 311 972 l 311 0 l 131 0 l 131 972 m 263 -317 q 151 -277 193 -317 q 110 -172 110 -237 q 251 50 110 -44 l 311 0 q 244 -80 263 -43 q 225 -154 225 -117 q 242 -203 225 -185 q 286 -222 260 -222 q 332 -208 310 -222 l 358 -289 q 263 -317 322 -317 z "},"Ĩ":{"ha":443,"x_min":-29,"x_max":471,"o":"m 131 972 l 311 972 l 311 0 l 131 0 l 131 972 m 321 1051 q 260 1065 286 1051 q 197 1107 235 1079 q 160 1134 175 1125 q 132 1143 146 1143 q 84 1121 103 1143 q 64 1060 65 1099 l -29 1060 q 13 1195 -28 1144 q 121 1246 54 1246 q 181 1232 156 1246 q 244 1190 207 1218 q 281 1163 267 1172 q 310 1154 296 1154 q 358 1175 339 1154 q 378 1233 376 1196 l 471 1233 q 428 1101 468 1151 q 321 1051 388 1051 z "},"J":{"ha":732,"x_min":-18,"x_max":610,"o":"m 282 -14 q 110 23 189 -14 q -18 126 32 60 l 85 250 q 278 139 165 139 q 429 318 429 139 l 429 821 l 83 821 l 83 972 l 610 972 l 610 328 q 526 72 610 157 q 282 -14 443 -14 z "},"Ĵ":{"ha":732,"x_min":-18,"x_max":613,"o":"m 282 -14 q 110 23 189 -14 q -18 126 32 60 l 85 250 q 278 139 165 139 q 429 318 429 139 l 429 821 l 83 821 l 83 972 l 610 972 l 610 328 q 526 72 610 157 q 282 -14 443 -14 m 469 1051 l 347 1154 l 225 1051 l 82 1051 l 268 1242 l 426 1242 l 613 1051 l 469 1051 z "},"K":{"ha":1013,"x_min":131,"x_max":1019,"o":"m 465 407 l 311 249 l 311 0 l 131 0 l 131 972 l 311 972 l 311 474 l 792 972 l 994 972 l 586 538 l 1019 0 l 808 0 l 465 407 z "},"Ǩ":{"ha":1013,"x_min":131,"x_max":1019,"o":"m 465 407 l 311 249 l 311 0 l 131 0 l 131 972 l 311 972 l 311 474 l 792 972 l 994 972 l 586 538 l 1019 0 l 808 0 l 465 407 m 789 1242 l 603 1051 l 444 1051 l 258 1242 l 401 1242 l 524 1139 l 646 1242 l 789 1242 z "},"Ķ":{"ha":1013,"x_min":131,"x_max":1019,"o":"m 465 407 l 311 249 l 311 0 l 131 0 l 131 972 l 311 972 l 311 474 l 792 972 l 994 972 l 586 538 l 1019 0 l 808 0 l 465 407 m 524 -115 q 584 -136 561 -115 q 607 -189 607 -157 q 585 -271 607 -228 l 540 -368 l 456 -368 l 489 -256 q 440 -189 440 -240 q 463 -135 440 -156 q 524 -115 486 -115 z "},"L":{"ha":832,"x_min":131,"x_max":819,"o":"m 131 972 l 311 972 l 311 153 l 819 153 l 819 0 l 131 0 l 131 972 z "},"Ǉ":{"ha":1564,"x_min":131,"x_max":1442,"o":"m 131 972 l 311 972 l 311 153 l 819 153 l 819 0 l 131 0 l 131 972 m 1114 -14 q 942 23 1021 -14 q 814 126 864 60 l 917 250 q 1110 139 997 139 q 1261 318 1261 139 l 1261 821 l 915 821 l 915 972 l 1442 972 l 1442 328 q 1358 72 1442 157 q 1114 -14 1275 -14 z "},"Ĺ":{"ha":832,"x_min":104,"x_max":819,"o":"m 131 972 l 311 972 l 311 153 l 819 153 l 819 0 l 131 0 l 131 972 m 292 1242 l 496 1242 l 254 1051 l 104 1051 l 292 1242 z "},"Ľ":{"ha":832,"x_min":131,"x_max":819,"o":"m 131 972 l 311 972 l 311 153 l 819 153 l 819 0 l 131 0 l 131 972 m 603 1024 l 740 1024 l 718 750 l 603 750 l 603 1024 z "},"Ļ":{"ha":832,"x_min":131,"x_max":819,"o":"m 131 972 l 311 972 l 311 153 l 819 153 l 819 0 l 131 0 l 131 972 m 492 -115 q 552 -136 529 -115 q 575 -189 575 -157 q 553 -271 575 -228 l 508 -368 l 424 -368 l 457 -256 q 408 -189 408 -240 q 431 -135 408 -156 q 492 -115 454 -115 z "},"Ŀ":{"ha":832,"x_min":131,"x_max":819,"o":"m 131 972 l 311 972 l 311 153 l 819 153 l 819 0 l 131 0 l 131 972 m 638 457 q 565 486 594 457 q 536 561 536 515 q 565 635 536 606 q 638 665 594 665 q 709 635 681 665 q 738 561 738 606 q 709 486 738 515 q 638 457 681 457 z "},"Ḷ":{"ha":832,"x_min":131,"x_max":819,"o":"m 131 972 l 311 972 l 311 153 l 819 153 l 819 0 l 131 0 l 131 972 m 492 -282 q 432 -260 456 -282 q 408 -200 408 -237 q 432 -140 408 -164 q 492 -115 456 -115 q 551 -140 528 -115 q 575 -200 575 -164 q 551 -260 575 -237 q 492 -282 528 -282 z "},"ǈ":{"ha":1242,"x_min":131,"x_max":1151,"o":"m 131 972 l 311 972 l 311 153 l 819 153 l 819 0 l 131 0 l 131 972 m 869 -279 q 703 -236 760 -279 l 753 -107 q 854 -136 792 -136 q 928 -106 903 -136 q 954 -18 954 -76 l 954 742 l 1128 742 l 1128 -14 q 1060 -208 1128 -137 q 869 -279 992 -279 m 1040 864 q 961 894 993 864 q 929 968 929 924 q 961 1042 929 1013 q 1040 1072 993 1072 q 1119 1044 1088 1072 q 1151 972 1151 1015 q 1120 895 1151 926 q 1040 864 1089 864 z "},"Ḻ":{"ha":832,"x_min":131,"x_max":819,"o":"m 131 972 l 311 972 l 311 153 l 819 153 l 819 0 l 131 0 l 131 972 m 251 -144 l 732 -144 l 732 -247 l 251 -247 l 251 -144 z "},"Ł":{"ha":846,"x_min":-6,"x_max":833,"o":"m 144 972 l 325 972 l 325 153 l 833 153 l 833 0 l 144 0 l 144 972 m -6 422 l 474 785 l 547 690 l 68 326 l -6 422 z "},"M":{"ha":1326,"x_min":131,"x_max":1194,"o":"m 1024 0 l 1022 644 l 703 111 l 622 111 l 303 636 l 303 0 l 131 0 l 131 972 l 279 972 l 665 328 l 1044 972 l 1193 972 l 1194 0 l 1024 0 z "},"Ṃ":{"ha":1326,"x_min":131,"x_max":1194,"o":"m 1024 0 l 1022 644 l 703 111 l 622 111 l 303 636 l 303 0 l 131 0 l 131 972 l 279 972 l 665 328 l 1044 972 l 1193 972 l 1194 0 l 1024 0 m 663 -282 q 603 -260 626 -282 q 579 -200 579 -237 q 603 -140 579 -164 q 663 -115 626 -115 q 722 -140 699 -115 q 746 -200 746 -164 q 722 -260 746 -237 q 663 -282 699 -282 z "},"N":{"ha":1125,"x_min":131,"x_max":994,"o":"m 994 972 l 994 0 l 846 0 l 310 658 l 310 0 l 131 0 l 131 972 l 279 972 l 815 314 l 815 972 l 994 972 z "},"Ǌ":{"ha":1857,"x_min":131,"x_max":1735,"o":"m 994 972 l 994 0 l 846 0 l 310 658 l 310 0 l 131 0 l 131 972 l 279 972 l 815 314 l 815 972 l 994 972 m 1407 -14 q 1235 23 1314 -14 q 1107 126 1157 60 l 1210 250 q 1403 139 1290 139 q 1554 318 1554 139 l 1554 821 l 1208 821 l 1208 972 l 1735 972 l 1735 328 q 1651 72 1735 157 q 1407 -14 1568 -14 z "},"Ń":{"ha":1125,"x_min":131,"x_max":994,"o":"m 994 972 l 994 0 l 846 0 l 310 658 l 310 0 l 131 0 l 131 972 l 279 972 l 815 314 l 815 972 l 994 972 m 633 1242 l 838 1242 l 596 1051 l 446 1051 l 633 1242 z "},"Ň":{"ha":1125,"x_min":131,"x_max":994,"o":"m 994 972 l 994 0 l 846 0 l 310 658 l 310 0 l 131 0 l 131 972 l 279 972 l 815 314 l 815 972 l 994 972 m 828 1242 l 642 1051 l 483 1051 l 297 1242 l 440 1242 l 563 1139 l 685 1242 l 828 1242 z "},"Ņ":{"ha":1125,"x_min":131,"x_max":994,"o":"m 994 972 l 994 0 l 846 0 l 310 658 l 310 0 l 131 0 l 131 972 l 279 972 l 815 314 l 815 972 l 994 972 m 563 -115 q 623 -136 600 -115 q 646 -189 646 -157 q 624 -271 646 -228 l 579 -368 l 494 -368 l 528 -256 q 479 -189 479 -240 q 502 -135 479 -156 q 563 -115 525 -115 z "},"Ṅ":{"ha":1125,"x_min":131,"x_max":994,"o":"m 994 972 l 994 0 l 846 0 l 310 658 l 310 0 l 131 0 l 131 972 l 279 972 l 815 314 l 815 972 l 994 972 m 563 1068 q 492 1096 519 1068 q 464 1167 464 1124 q 492 1238 464 1210 q 563 1265 519 1265 q 633 1238 606 1265 q 661 1167 661 1210 q 633 1096 661 1124 q 563 1068 606 1068 z "},"Ṇ":{"ha":1125,"x_min":131,"x_max":994,"o":"m 994 972 l 994 0 l 846 0 l 310 658 l 310 0 l 131 0 l 131 972 l 279 972 l 815 314 l 815 972 l 994 972 m 563 -282 q 503 -260 526 -282 q 479 -200 479 -237 q 503 -140 479 -164 q 563 -115 526 -115 q 622 -140 599 -115 q 646 -200 646 -164 q 622 -260 646 -237 q 563 -282 599 -282 z "},"Ŋ":{"ha":1125,"x_min":131,"x_max":994,"o":"m 994 972 l 994 79 q 913 -191 994 -103 q 671 -279 832 -279 q 530 -253 596 -279 q 417 -179 464 -228 l 503 -50 q 667 -126 568 -126 q 815 38 810 -126 l 310 658 l 310 0 l 131 0 l 131 972 l 279 972 l 815 314 l 815 972 l 994 972 z "},"ǋ":{"ha":1535,"x_min":131,"x_max":1444,"o":"m 994 972 l 994 0 l 846 0 l 310 658 l 310 0 l 131 0 l 131 972 l 279 972 l 815 314 l 815 972 l 994 972 m 1163 -279 q 996 -236 1053 -279 l 1046 -107 q 1147 -136 1085 -136 q 1222 -106 1196 -136 q 1247 -18 1247 -76 l 1247 742 l 1421 742 l 1421 -14 q 1353 -208 1421 -137 q 1163 -279 1285 -279 m 1333 864 q 1254 894 1286 864 q 1222 968 1222 924 q 1254 1042 1222 1013 q 1333 1072 1286 1072 q 1413 1044 1381 1072 q 1444 972 1444 1015 q 1413 895 1444 926 q 1333 864 1382 864 z "},"Ṉ":{"ha":1125,"x_min":131,"x_max":994,"o":"m 994 972 l 994 0 l 846 0 l 310 658 l 310 0 l 131 0 l 131 972 l 279 972 l 815 314 l 815 972 l 994 972 m 322 -144 l 803 -144 l 803 -247 l 322 -247 l 322 -144 z "},"Ñ":{"ha":1125,"x_min":131,"x_max":994,"o":"m 994 972 l 994 0 l 846 0 l 310 658 l 310 0 l 131 0 l 131 972 l 279 972 l 815 314 l 815 972 l 994 972 m 663 1051 q 602 1065 628 1051 q 539 1107 576 1079 q 502 1134 517 1125 q 474 1143 488 1143 q 426 1121 444 1143 q 406 1060 407 1099 l 313 1060 q 355 1195 314 1144 q 463 1246 396 1246 q 523 1232 497 1246 q 586 1190 549 1218 q 623 1163 608 1172 q 651 1154 638 1154 q 699 1175 681 1154 q 719 1233 718 1196 l 813 1233 q 769 1101 810 1151 q 663 1051 729 1051 z "},"O":{"ha":1169,"x_min":61,"x_max":1108,"o":"m 585 -14 q 317 51 436 -14 q 129 230 197 115 q 61 486 61 344 q 129 742 61 628 q 317 922 197 857 q 585 986 436 986 q 853 922 733 986 q 1040 743 972 857 q 1108 486 1108 629 q 1040 229 1108 343 q 853 51 972 115 q 585 -14 733 -14 m 585 144 q 760 188 682 144 q 882 310 838 232 q 926 486 926 389 q 882 662 926 583 q 760 784 838 740 q 585 828 682 828 q 410 784 488 828 q 288 662 332 740 q 243 486 243 583 q 288 310 243 389 q 410 188 332 232 q 585 144 488 144 z "},"Ó":{"ha":1169,"x_min":61,"x_max":1108,"o":"m 585 -14 q 317 51 436 -14 q 129 230 197 115 q 61 486 61 344 q 129 742 61 628 q 317 922 197 857 q 585 986 436 986 q 853 922 733 986 q 1040 743 972 857 q 1108 486 1108 629 q 1040 229 1108 343 q 853 51 972 115 q 585 -14 733 -14 m 585 144 q 760 188 682 144 q 882 310 838 232 q 926 486 926 389 q 882 662 926 583 q 760 784 838 740 q 585 828 682 828 q 410 784 488 828 q 288 662 332 740 q 243 486 243 583 q 288 310 243 389 q 410 188 332 232 q 585 144 488 144 m 656 1242 l 860 1242 l 618 1051 l 468 1051 l 656 1242 z "},"Ŏ":{"ha":1169,"x_min":61,"x_max":1108,"o":"m 585 -14 q 317 51 436 -14 q 129 230 197 115 q 61 486 61 344 q 129 742 61 628 q 317 922 197 857 q 585 986 436 986 q 853 922 733 986 q 1040 743 972 857 q 1108 486 1108 629 q 1040 229 1108 343 q 853 51 972 115 q 585 -14 733 -14 m 585 144 q 760 188 682 144 q 882 310 838 232 q 926 486 926 389 q 882 662 926 583 q 760 784 838 740 q 585 828 682 828 q 410 784 488 828 q 288 662 332 740 q 243 486 243 583 q 288 310 243 389 q 410 188 332 232 q 585 144 488 144 m 585 1042 q 416 1096 483 1042 q 344 1242 349 1150 l 458 1242 q 496 1166 460 1194 q 585 1138 532 1138 q 674 1166 638 1138 q 711 1242 710 1194 l 825 1242 q 753 1096 821 1150 q 585 1042 686 1042 z "},"Ô":{"ha":1169,"x_min":61,"x_max":1108,"o":"m 585 -14 q 317 51 436 -14 q 129 230 197 115 q 61 486 61 344 q 129 742 61 628 q 317 922 197 857 q 585 986 436 986 q 853 922 733 986 q 1040 743 972 857 q 1108 486 1108 629 q 1040 229 1108 343 q 853 51 972 115 q 585 -14 733 -14 m 585 144 q 760 188 682 144 q 882 310 838 232 q 926 486 926 389 q 882 662 926 583 q 760 784 838 740 q 585 828 682 828 q 410 784 488 828 q 288 662 332 740 q 243 486 243 583 q 288 310 243 389 q 410 188 332 232 q 585 144 488 144 m 707 1051 l 585 1154 l 463 1051 l 319 1051 l 506 1242 l 664 1242 l 850 1051 l 707 1051 z "},"Ố":{"ha":1169,"x_min":61,"x_max":1108,"o":"m 585 -14 q 317 51 436 -14 q 129 230 197 115 q 61 486 61 344 q 129 742 61 628 q 317 922 197 857 q 585 986 436 986 q 853 922 733 986 q 1040 743 972 857 q 1108 486 1108 629 q 1040 229 1108 343 q 853 51 972 115 q 585 -14 733 -14 m 585 144 q 760 188 682 144 q 882 310 838 232 q 926 486 926 389 q 882 662 926 583 q 760 784 838 740 q 585 828 682 828 q 410 784 488 828 q 288 662 332 740 q 243 486 243 583 q 288 310 243 389 q 410 188 332 232 q 585 144 488 144 m 706 1051 l 585 1128 l 464 1051 l 319 1051 l 507 1200 l 663 1200 l 850 1051 l 706 1051 m 894 1342 l 1081 1342 l 869 1179 l 736 1179 l 894 1342 z "},"Ộ":{"ha":1169,"x_min":61,"x_max":1108,"o":"m 585 -14 q 317 51 436 -14 q 129 230 197 115 q 61 486 61 344 q 129 742 61 628 q 317 922 197 857 q 585 986 436 986 q 853 922 733 986 q 1040 743 972 857 q 1108 486 1108 629 q 1040 229 1108 343 q 853 51 972 115 q 585 -14 733 -14 m 585 144 q 760 188 682 144 q 882 310 838 232 q 926 486 926 389 q 882 662 926 583 q 760 784 838 740 q 585 828 682 828 q 410 784 488 828 q 288 662 332 740 q 243 486 243 583 q 288 310 243 389 q 410 188 332 232 q 585 144 488 144 m 585 -282 q 525 -260 549 -282 q 501 -200 501 -237 q 525 -140 501 -164 q 585 -115 549 -115 q 644 -140 621 -115 q 668 -200 668 -164 q 644 -260 668 -237 q 585 -282 621 -282 m 707 1051 l 585 1154 l 463 1051 l 319 1051 l 506 1242 l 664 1242 l 850 1051 l 707 1051 z "},"Ồ":{"ha":1169,"x_min":61,"x_max":1108,"o":"m 585 -14 q 317 51 436 -14 q 129 230 197 115 q 61 486 61 344 q 129 742 61 628 q 317 922 197 857 q 585 986 436 986 q 853 922 733 986 q 1040 743 972 857 q 1108 486 1108 629 q 1040 229 1108 343 q 853 51 972 115 q 585 -14 733 -14 m 585 144 q 760 188 682 144 q 882 310 838 232 q 926 486 926 389 q 882 662 926 583 q 760 784 838 740 q 585 828 682 828 q 410 784 488 828 q 288 662 332 740 q 243 486 243 583 q 288 310 243 389 q 410 188 332 232 q 585 144 488 144 m 706 1051 l 585 1128 l 464 1051 l 319 1051 l 507 1200 l 663 1200 l 850 1051 l 706 1051 m 607 1342 l 793 1342 l 951 1179 l 818 1179 l 607 1342 z "},"Ổ":{"ha":1169,"x_min":61,"x_max":1108,"o":"m 585 -14 q 317 51 436 -14 q 129 230 197 115 q 61 486 61 344 q 129 742 61 628 q 317 922 197 857 q 585 986 436 986 q 853 922 733 986 q 1040 743 972 857 q 1108 486 1108 629 q 1040 229 1108 343 q 853 51 972 115 q 585 -14 733 -14 m 585 144 q 760 188 682 144 q 882 310 838 232 q 926 486 926 389 q 882 662 926 583 q 760 784 838 740 q 585 828 682 828 q 410 784 488 828 q 288 662 332 740 q 243 486 243 583 q 288 310 243 389 q 410 188 332 232 q 585 144 488 144 m 706 1051 l 585 1128 l 464 1051 l 319 1051 l 507 1200 l 663 1200 l 850 1051 l 706 1051 m 764 1200 q 818 1261 818 1226 q 804 1292 818 1281 q 768 1304 790 1304 q 707 1288 738 1304 l 676 1346 q 783 1375 719 1375 q 869 1347 838 1375 q 900 1271 900 1318 q 875 1200 900 1231 q 808 1153 850 1169 l 764 1200 z "},"Ỗ":{"ha":1169,"x_min":61,"x_max":1108,"o":"m 585 -14 q 317 51 436 -14 q 129 230 197 115 q 61 486 61 344 q 129 742 61 628 q 317 922 197 857 q 585 986 436 986 q 853 922 733 986 q 1040 743 972 857 q 1108 486 1108 629 q 1040 229 1108 343 q 853 51 972 115 q 585 -14 733 -14 m 585 144 q 760 188 682 144 q 882 310 838 232 q 926 486 926 389 q 882 662 926 583 q 760 784 838 740 q 585 828 682 828 q 410 784 488 828 q 288 662 332 740 q 243 486 243 583 q 288 310 243 389 q 410 188 332 232 q 585 144 488 144 m 706 1051 l 585 1128 l 464 1051 l 319 1051 l 507 1200 l 663 1200 l 850 1051 l 706 1051 m 686 1247 q 620 1260 649 1247 q 558 1294 592 1272 q 522 1315 536 1308 q 494 1322 508 1322 q 433 1256 436 1322 l 339 1256 q 380 1372 340 1331 q 486 1414 419 1414 q 549 1402 521 1414 q 608 1369 576 1390 q 648 1347 633 1354 q 678 1340 663 1340 q 721 1358 706 1340 q 739 1406 736 1375 l 831 1406 q 790 1290 829 1332 q 686 1247 751 1247 z "},"Ȍ":{"ha":1169,"x_min":61,"x_max":1108,"o":"m 585 -14 q 317 51 436 -14 q 129 230 197 115 q 61 486 61 344 q 129 742 61 628 q 317 922 197 857 q 585 986 436 986 q 853 922 733 986 q 1040 743 972 857 q 1108 486 1108 629 q 1040 229 1108 343 q 853 51 972 115 q 585 -14 733 -14 m 585 144 q 760 188 682 144 q 882 310 838 232 q 926 486 926 389 q 882 662 926 583 q 760 784 838 740 q 585 828 682 828 q 410 784 488 828 q 288 662 332 740 q 243 486 243 583 q 288 310 243 389 q 410 188 332 232 q 585 144 488 144 m 238 1242 l 411 1242 l 522 1051 l 386 1051 l 238 1242 m 497 1242 l 671 1242 l 783 1051 l 647 1051 l 497 1242 z "},"Ö":{"ha":1169,"x_min":61,"x_max":1108,"o":"m 585 -14 q 317 51 436 -14 q 129 230 197 115 q 61 486 61 344 q 129 742 61 628 q 317 922 197 857 q 585 986 436 986 q 853 922 733 986 q 1040 743 972 857 q 1108 486 1108 629 q 1040 229 1108 343 q 853 51 972 115 q 585 -14 733 -14 m 585 144 q 760 188 682 144 q 882 310 838 232 q 926 486 926 389 q 882 662 926 583 q 760 784 838 740 q 585 828 682 828 q 410 784 488 828 q 288 662 332 740 q 243 486 243 583 q 288 310 243 389 q 410 188 332 232 q 585 144 488 144 m 450 1067 q 390 1090 414 1067 q 367 1150 367 1114 q 390 1211 367 1188 q 450 1235 414 1235 q 510 1211 486 1235 q 533 1150 533 1188 q 510 1090 533 1114 q 450 1067 486 1067 m 719 1067 q 660 1090 683 1067 q 636 1150 636 1114 q 660 1211 636 1188 q 719 1235 683 1235 q 779 1211 756 1235 q 803 1150 803 1188 q 779 1090 803 1114 q 719 1067 756 1067 z "},"Ȫ":{"ha":1169,"x_min":61,"x_max":1108,"o":"m 585 -14 q 317 51 436 -14 q 129 230 197 115 q 61 486 61 344 q 129 742 61 628 q 317 922 197 857 q 585 986 436 986 q 853 922 733 986 q 1040 743 972 857 q 1108 486 1108 629 q 1040 229 1108 343 q 853 51 972 115 q 585 -14 733 -14 m 585 144 q 760 188 682 144 q 882 310 838 232 q 926 486 926 389 q 882 662 926 583 q 760 784 838 740 q 585 828 682 828 q 410 784 488 828 q 288 662 332 740 q 243 486 243 583 q 288 310 243 389 q 410 188 332 232 q 585 144 488 144 m 454 1067 q 397 1090 421 1067 q 374 1147 374 1113 q 397 1205 374 1182 q 454 1228 421 1228 q 512 1205 489 1228 q 535 1147 535 1182 q 512 1090 535 1113 q 454 1067 489 1067 m 717 1067 q 660 1090 683 1067 q 636 1147 636 1113 q 660 1205 636 1182 q 717 1228 683 1228 q 774 1204 750 1228 q 797 1147 797 1181 q 774 1090 797 1113 q 717 1067 750 1067 m 344 1386 l 825 1386 l 825 1289 l 344 1289 l 344 1386 z "},"Ȱ":{"ha":1169,"x_min":61,"x_max":1108,"o":"m 585 -14 q 317 51 436 -14 q 129 230 197 115 q 61 486 61 344 q 129 742 61 628 q 317 922 197 857 q 585 986 436 986 q 853 922 733 986 q 1040 743 972 857 q 1108 486 1108 629 q 1040 229 1108 343 q 853 51 972 115 q 585 -14 733 -14 m 585 144 q 760 188 682 144 q 882 310 838 232 q 926 486 926 389 q 882 662 926 583 q 760 784 838 740 q 585 828 682 828 q 410 784 488 828 q 288 662 332 740 q 243 486 243 583 q 288 310 243 389 q 410 188 332 232 q 585 144 488 144 m 585 1065 q 525 1088 549 1065 q 501 1149 501 1111 q 525 1209 501 1186 q 585 1232 549 1232 q 644 1209 621 1232 q 668 1149 668 1186 q 644 1088 668 1111 q 585 1065 621 1065 m 344 1392 l 825 1392 l 825 1294 l 344 1294 l 344 1392 z "},"Ọ":{"ha":1169,"x_min":61,"x_max":1108,"o":"m 585 -14 q 317 51 436 -14 q 129 230 197 115 q 61 486 61 344 q 129 742 61 628 q 317 922 197 857 q 585 986 436 986 q 853 922 733 986 q 1040 743 972 857 q 1108 486 1108 629 q 1040 229 1108 343 q 853 51 972 115 q 585 -14 733 -14 m 585 144 q 760 188 682 144 q 882 310 838 232 q 926 486 926 389 q 882 662 926 583 q 760 784 838 740 q 585 828 682 828 q 410 784 488 828 q 288 662 332 740 q 243 486 243 583 q 288 310 243 389 q 410 188 332 232 q 585 144 488 144 m 585 -282 q 525 -260 549 -282 q 501 -200 501 -237 q 525 -140 501 -164 q 585 -115 549 -115 q 644 -140 621 -115 q 668 -200 668 -164 q 644 -260 668 -237 q 585 -282 621 -282 z "},"Ò":{"ha":1169,"x_min":61,"x_max":1108,"o":"m 585 -14 q 317 51 436 -14 q 129 230 197 115 q 61 486 61 344 q 129 742 61 628 q 317 922 197 857 q 585 986 436 986 q 853 922 733 986 q 1040 743 972 857 q 1108 486 1108 629 q 1040 229 1108 343 q 853 51 972 115 q 585 -14 733 -14 m 585 144 q 760 188 682 144 q 882 310 838 232 q 926 486 926 389 q 882 662 926 583 q 760 784 838 740 q 585 828 682 828 q 410 784 488 828 q 288 662 332 740 q 243 486 243 583 q 288 310 243 389 q 410 188 332 232 q 585 144 488 144 m 310 1242 l 514 1242 l 701 1051 l 551 1051 l 310 1242 z "},"Ỏ":{"ha":1169,"x_min":61,"x_max":1108,"o":"m 585 -14 q 317 51 436 -14 q 129 230 197 115 q 61 486 61 344 q 129 742 61 628 q 317 922 197 857 q 585 986 436 986 q 853 922 733 986 q 1040 743 972 857 q 1108 486 1108 629 q 1040 229 1108 343 q 853 51 972 115 q 585 -14 733 -14 m 585 144 q 760 188 682 144 q 882 310 838 232 q 926 486 926 389 q 882 662 926 583 q 760 784 838 740 q 585 828 682 828 q 410 784 488 828 q 288 662 332 740 q 243 486 243 583 q 288 310 243 389 q 410 188 332 232 q 585 144 488 144 m 563 1101 q 620 1141 603 1119 q 638 1190 638 1163 q 618 1234 638 1217 q 568 1251 599 1251 q 485 1225 525 1251 l 447 1301 q 511 1333 475 1322 q 586 1344 547 1344 q 696 1306 653 1344 q 739 1206 739 1268 q 619 1038 739 1093 l 563 1101 z "},"Ơ":{"ha":1169,"x_min":61,"x_max":1108,"o":"m 932 867 q 1061 702 1014 801 q 1108 486 1108 603 q 1040 229 1108 343 q 853 51 972 115 q 585 -14 733 -14 q 317 51 436 -14 q 129 230 197 115 q 61 486 61 344 q 130 743 61 629 q 319 922 199 857 q 592 986 440 986 q 747 975 656 986 q 851 967 819 967 q 943 991 911 967 q 975 1063 975 1015 q 947 1149 975 1106 l 1053 1188 q 1094 1057 1094 1129 q 1052 932 1094 981 q 932 867 1010 883 m 585 144 q 760 189 682 144 q 882 311 838 233 q 926 486 926 389 q 882 661 926 583 q 760 783 838 739 q 585 828 682 828 q 410 784 488 828 q 288 662 332 740 q 243 486 243 583 q 288 310 243 389 q 410 188 332 232 q 585 144 488 144 z "},"Ớ":{"ha":1169,"x_min":61,"x_max":1108,"o":"m 932 867 q 1061 702 1014 801 q 1108 486 1108 603 q 1040 229 1108 343 q 853 51 972 115 q 585 -14 733 -14 q 317 51 436 -14 q 129 230 197 115 q 61 486 61 344 q 130 743 61 629 q 319 922 199 857 q 592 986 440 986 q 747 975 656 986 q 851 967 819 967 q 943 991 911 967 q 975 1063 975 1015 q 947 1149 975 1106 l 1053 1188 q 1094 1057 1094 1129 q 1052 932 1094 981 q 932 867 1010 883 m 585 144 q 760 189 682 144 q 882 311 838 233 q 926 486 926 389 q 882 661 926 583 q 760 783 838 739 q 585 828 682 828 q 410 784 488 828 q 288 662 332 740 q 243 486 243 583 q 288 310 243 389 q 410 188 332 232 q 585 144 488 144 m 656 1242 l 860 1242 l 618 1051 l 468 1051 l 656 1242 z "},"Ợ":{"ha":1169,"x_min":61,"x_max":1108,"o":"m 932 867 q 1061 702 1014 801 q 1108 486 1108 603 q 1040 229 1108 343 q 853 51 972 115 q 585 -14 733 -14 q 317 51 436 -14 q 129 230 197 115 q 61 486 61 344 q 130 743 61 629 q 319 922 199 857 q 592 986 440 986 q 747 975 656 986 q 851 967 819 967 q 943 991 911 967 q 975 1063 975 1015 q 947 1149 975 1106 l 1053 1188 q 1094 1057 1094 1129 q 1052 932 1094 981 q 932 867 1010 883 m 585 144 q 760 189 682 144 q 882 311 838 233 q 926 486 926 389 q 882 661 926 583 q 760 783 838 739 q 585 828 682 828 q 410 784 488 828 q 288 662 332 740 q 243 486 243 583 q 288 310 243 389 q 410 188 332 232 q 585 144 488 144 m 585 -282 q 525 -260 549 -282 q 501 -200 501 -237 q 525 -140 501 -164 q 585 -115 549 -115 q 644 -140 621 -115 q 668 -200 668 -164 q 644 -260 668 -237 q 585 -282 621 -282 z "},"Ờ":{"ha":1169,"x_min":61,"x_max":1108,"o":"m 932 867 q 1061 702 1014 801 q 1108 486 1108 603 q 1040 229 1108 343 q 853 51 972 115 q 585 -14 733 -14 q 317 51 436 -14 q 129 230 197 115 q 61 486 61 344 q 130 743 61 629 q 319 922 199 857 q 592 986 440 986 q 747 975 656 986 q 851 967 819 967 q 943 991 911 967 q 975 1063 975 1015 q 947 1149 975 1106 l 1053 1188 q 1094 1057 1094 1129 q 1052 932 1094 981 q 932 867 1010 883 m 585 144 q 760 189 682 144 q 882 311 838 233 q 926 486 926 389 q 882 661 926 583 q 760 783 838 739 q 585 828 682 828 q 410 784 488 828 q 288 662 332 740 q 243 486 243 583 q 288 310 243 389 q 410 188 332 232 q 585 144 488 144 m 310 1242 l 514 1242 l 701 1051 l 551 1051 l 310 1242 z "},"Ở":{"ha":1169,"x_min":61,"x_max":1108,"o":"m 932 867 q 1061 702 1014 801 q 1108 486 1108 603 q 1040 229 1108 343 q 853 51 972 115 q 585 -14 733 -14 q 317 51 436 -14 q 129 230 197 115 q 61 486 61 344 q 130 743 61 629 q 319 922 199 857 q 592 986 440 986 q 747 975 656 986 q 851 967 819 967 q 943 991 911 967 q 975 1063 975 1015 q 947 1149 975 1106 l 1053 1188 q 1094 1057 1094 1129 q 1052 932 1094 981 q 932 867 1010 883 m 585 144 q 760 189 682 144 q 882 311 838 233 q 926 486 926 389 q 882 661 926 583 q 760 783 838 739 q 585 828 682 828 q 410 784 488 828 q 288 662 332 740 q 243 486 243 583 q 288 310 243 389 q 410 188 332 232 q 585 144 488 144 m 563 1101 q 620 1141 603 1119 q 638 1190 638 1163 q 618 1234 638 1217 q 568 1251 599 1251 q 485 1225 525 1251 l 447 1301 q 511 1333 475 1322 q 586 1344 547 1344 q 696 1306 653 1344 q 739 1206 739 1268 q 619 1038 739 1093 l 563 1101 z "},"Ỡ":{"ha":1169,"x_min":61,"x_max":1108,"o":"m 932 867 q 1061 702 1014 801 q 1108 486 1108 603 q 1040 229 1108 343 q 853 51 972 115 q 585 -14 733 -14 q 317 51 436 -14 q 129 230 197 115 q 61 486 61 344 q 130 743 61 629 q 319 922 199 857 q 592 986 440 986 q 747 975 656 986 q 851 967 819 967 q 943 991 911 967 q 975 1063 975 1015 q 947 1149 975 1106 l 1053 1188 q 1094 1057 1094 1129 q 1052 932 1094 981 q 932 867 1010 883 m 585 144 q 760 189 682 144 q 882 311 838 233 q 926 486 926 389 q 882 661 926 583 q 760 783 838 739 q 585 828 682 828 q 410 784 488 828 q 288 662 332 740 q 243 486 243 583 q 288 310 243 389 q 410 188 332 232 q 585 144 488 144 m 685 1051 q 624 1065 650 1051 q 561 1107 599 1079 q 524 1134 539 1125 q 496 1143 510 1143 q 448 1121 467 1143 q 428 1060 429 1099 l 335 1060 q 377 1195 336 1144 q 485 1246 418 1246 q 545 1232 519 1246 q 608 1190 571 1218 q 645 1163 631 1172 q 674 1154 660 1154 q 722 1175 703 1154 q 742 1233 740 1196 l 835 1233 q 792 1101 832 1151 q 685 1051 751 1051 z "},"Ő":{"ha":1169,"x_min":61,"x_max":1108,"o":"m 585 -14 q 317 51 436 -14 q 129 230 197 115 q 61 486 61 344 q 129 742 61 628 q 317 922 197 857 q 585 986 436 986 q 853 922 733 986 q 1040 743 972 857 q 1108 486 1108 629 q 1040 229 1108 343 q 853 51 972 115 q 585 -14 733 -14 m 585 144 q 760 188 682 144 q 882 310 838 232 q 926 486 926 389 q 882 662 926 583 q 760 784 838 740 q 585 828 682 828 q 410 784 488 828 q 288 662 332 740 q 243 486 243 583 q 288 310 243 389 q 410 188 332 232 q 585 144 488 144 m 499 1242 l 672 1242 l 522 1051 l 386 1051 l 499 1242 m 758 1242 l 932 1242 l 783 1051 l 647 1051 l 758 1242 z "},"Ȏ":{"ha":1169,"x_min":61,"x_max":1108,"o":"m 585 -14 q 317 51 436 -14 q 129 230 197 115 q 61 486 61 344 q 129 742 61 628 q 317 922 197 857 q 585 986 436 986 q 853 922 733 986 q 1040 743 972 857 q 1108 486 1108 629 q 1040 229 1108 343 q 853 51 972 115 q 585 -14 733 -14 m 585 144 q 760 188 682 144 q 882 310 838 232 q 926 486 926 389 q 882 662 926 583 q 760 784 838 740 q 585 828 682 828 q 410 784 488 828 q 288 662 332 740 q 243 486 243 583 q 288 310 243 389 q 410 188 332 232 q 585 144 488 144 m 344 1051 q 416 1197 349 1143 q 585 1251 483 1251 q 753 1197 686 1251 q 825 1051 821 1143 l 711 1051 q 674 1128 710 1100 q 585 1157 638 1157 q 496 1128 532 1157 q 458 1051 460 1100 l 344 1051 z "},"Ō":{"ha":1169,"x_min":61,"x_max":1108,"o":"m 585 -14 q 317 51 436 -14 q 129 230 197 115 q 61 486 61 344 q 129 742 61 628 q 317 922 197 857 q 585 986 436 986 q 853 922 733 986 q 1040 743 972 857 q 1108 486 1108 629 q 1040 229 1108 343 q 853 51 972 115 q 585 -14 733 -14 m 585 144 q 760 188 682 144 q 882 310 838 232 q 926 486 926 389 q 882 662 926 583 q 760 784 838 740 q 585 828 682 828 q 410 784 488 828 q 288 662 332 740 q 243 486 243 583 q 288 310 243 389 q 410 188 332 232 q 585 144 488 144 m 344 1199 l 825 1199 l 825 1094 l 344 1094 l 344 1199 z "},"Ṓ":{"ha":1169,"x_min":61,"x_max":1108,"o":"m 585 -14 q 317 51 436 -14 q 129 230 197 115 q 61 486 61 344 q 129 742 61 628 q 317 922 197 857 q 585 986 436 986 q 853 922 733 986 q 1040 743 972 857 q 1108 486 1108 629 q 1040 229 1108 343 q 853 51 972 115 q 585 -14 733 -14 m 585 144 q 760 188 682 144 q 882 310 838 232 q 926 486 926 389 q 882 662 926 583 q 760 784 838 740 q 585 828 682 828 q 410 784 488 828 q 288 662 332 740 q 243 486 243 583 q 288 310 243 389 q 410 188 332 232 q 585 144 488 144 m 344 1175 l 825 1175 l 825 1078 l 344 1078 l 344 1175 m 636 1425 l 822 1425 l 611 1263 l 478 1263 l 636 1425 z "},"Ṑ":{"ha":1169,"x_min":61,"x_max":1108,"o":"m 585 -14 q 317 51 436 -14 q 129 230 197 115 q 61 486 61 344 q 129 742 61 628 q 317 922 197 857 q 585 986 436 986 q 853 922 733 986 q 1040 743 972 857 q 1108 486 1108 629 q 1040 229 1108 343 q 853 51 972 115 q 585 -14 733 -14 m 585 144 q 760 188 682 144 q 882 310 838 232 q 926 486 926 389 q 882 662 926 583 q 760 784 838 740 q 585 828 682 828 q 410 784 488 828 q 288 662 332 740 q 243 486 243 583 q 288 310 243 389 q 410 188 332 232 q 585 144 488 144 m 344 1175 l 825 1175 l 825 1078 l 344 1078 l 344 1175 m 349 1425 l 535 1425 l 693 1263 l 560 1263 l 349 1425 z "},"Ǫ":{"ha":1169,"x_min":61,"x_max":1108,"o":"m 585 986 q 853 922 733 986 q 1040 743 972 857 q 1108 486 1108 629 q 1060 268 1108 367 q 928 103 1011 169 q 740 8 844 36 q 594 -61 646 -18 q 542 -154 542 -104 q 564 -204 542 -186 q 624 -222 586 -222 q 708 -200 672 -222 l 738 -285 q 604 -317 681 -317 q 473 -276 521 -317 q 425 -168 425 -235 q 514 -10 425 -75 q 280 73 383 6 q 119 248 176 140 q 61 486 61 356 q 129 742 61 628 q 317 922 197 857 q 585 986 436 986 m 585 144 q 760 188 682 144 q 882 310 838 232 q 926 486 926 389 q 882 662 926 583 q 760 784 838 740 q 585 828 682 828 q 410 784 488 828 q 288 662 332 740 q 243 486 243 583 q 288 310 243 389 q 410 188 332 232 q 585 144 488 144 z "},"Ø":{"ha":1169,"x_min":61,"x_max":1108,"o":"m 585 -14 q 317 51 436 -14 q 129 230 197 115 q 61 486 61 344 q 129 742 61 628 q 317 922 197 857 q 585 986 436 986 q 853 922 733 986 q 1040 743 972 857 q 1108 486 1108 629 q 1040 229 1108 343 q 853 51 972 115 q 585 -14 733 -14 m 585 144 q 760 188 682 144 q 882 310 838 232 q 926 486 926 389 q 882 662 926 583 q 760 784 838 740 q 585 828 682 828 q 410 784 488 828 q 288 662 332 740 q 243 486 243 583 q 288 310 243 389 q 410 188 332 232 q 585 144 488 144 m 938 1069 l 1067 1069 l 233 -97 l 104 -97 l 938 1069 z "},"Ǿ":{"ha":1169,"x_min":61,"x_max":1108,"o":"m 585 -14 q 317 51 436 -14 q 129 230 197 115 q 61 486 61 344 q 129 742 61 628 q 317 922 197 857 q 585 986 436 986 q 853 922 733 986 q 1040 743 972 857 q 1108 486 1108 629 q 1040 229 1108 343 q 853 51 972 115 q 585 -14 733 -14 m 585 144 q 760 188 682 144 q 882 310 838 232 q 926 486 926 389 q 882 662 926 583 q 760 784 838 740 q 585 828 682 828 q 410 784 488 828 q 288 662 332 740 q 243 486 243 583 q 288 310 243 389 q 410 188 332 232 q 585 144 488 144 m 938 1069 l 1067 1069 l 233 -97 l 104 -97 l 938 1069 m 656 1242 l 860 1242 l 618 1051 l 468 1051 l 656 1242 z "},"Õ":{"ha":1169,"x_min":61,"x_max":1108,"o":"m 585 -14 q 317 51 436 -14 q 129 230 197 115 q 61 486 61 344 q 129 742 61 628 q 317 922 197 857 q 585 986 436 986 q 853 922 733 986 q 1040 743 972 857 q 1108 486 1108 629 q 1040 229 1108 343 q 853 51 972 115 q 585 -14 733 -14 m 585 144 q 760 188 682 144 q 882 310 838 232 q 926 486 926 389 q 882 662 926 583 q 760 784 838 740 q 585 828 682 828 q 410 784 488 828 q 288 662 332 740 q 243 486 243 583 q 288 310 243 389 q 410 188 332 232 q 585 144 488 144 m 685 1051 q 624 1065 650 1051 q 561 1107 599 1079 q 524 1134 539 1125 q 496 1143 510 1143 q 448 1121 467 1143 q 428 1060 429 1099 l 335 1060 q 377 1195 336 1144 q 485 1246 418 1246 q 545 1232 519 1246 q 608 1190 571 1218 q 645 1163 631 1172 q 674 1154 660 1154 q 722 1175 703 1154 q 742 1233 740 1196 l 835 1233 q 792 1101 832 1151 q 685 1051 751 1051 z "},"Ṍ":{"ha":1169,"x_min":61,"x_max":1108,"o":"m 585 -14 q 317 51 436 -14 q 129 230 197 115 q 61 486 61 344 q 129 742 61 628 q 317 922 197 857 q 585 986 436 986 q 853 922 733 986 q 1040 743 972 857 q 1108 486 1108 629 q 1040 229 1108 343 q 853 51 972 115 q 585 -14 733 -14 m 585 144 q 760 188 682 144 q 882 310 838 232 q 926 486 926 389 q 882 662 926 583 q 760 784 838 740 q 585 828 682 828 q 410 784 488 828 q 288 662 332 740 q 243 486 243 583 q 288 310 243 389 q 410 188 332 232 q 585 144 488 144 m 686 1053 q 620 1065 649 1053 q 558 1100 592 1078 q 522 1121 536 1114 q 494 1128 508 1128 q 433 1061 436 1128 l 339 1061 q 380 1178 340 1136 q 486 1219 419 1219 q 549 1208 521 1219 q 608 1175 576 1196 q 648 1153 633 1160 q 678 1146 663 1146 q 721 1163 706 1146 q 739 1211 736 1181 l 831 1211 q 790 1095 829 1138 q 686 1053 751 1053 m 636 1425 l 822 1425 l 611 1263 l 478 1263 l 636 1425 z "},"Ṏ":{"ha":1169,"x_min":61,"x_max":1108,"o":"m 585 -14 q 317 51 436 -14 q 129 230 197 115 q 61 486 61 344 q 129 742 61 628 q 317 922 197 857 q 585 986 436 986 q 853 922 733 986 q 1040 743 972 857 q 1108 486 1108 629 q 1040 229 1108 343 q 853 51 972 115 q 585 -14 733 -14 m 585 144 q 760 188 682 144 q 882 310 838 232 q 926 486 926 389 q 882 662 926 583 q 760 784 838 740 q 585 828 682 828 q 410 784 488 828 q 288 662 332 740 q 243 486 243 583 q 288 310 243 389 q 410 188 332 232 q 585 144 488 144 m 686 1053 q 620 1065 649 1053 q 558 1100 592 1078 q 522 1121 536 1114 q 494 1128 508 1128 q 433 1061 436 1128 l 339 1061 q 380 1178 340 1136 q 486 1219 419 1219 q 549 1208 521 1219 q 608 1175 576 1196 q 648 1153 633 1160 q 678 1146 663 1146 q 721 1163 706 1146 q 739 1211 736 1181 l 831 1211 q 790 1095 829 1138 q 686 1053 751 1053 m 454 1278 q 397 1301 421 1278 q 374 1358 374 1324 q 397 1416 374 1393 q 454 1439 421 1439 q 512 1416 489 1439 q 535 1358 535 1393 q 512 1301 535 1324 q 454 1278 489 1278 m 717 1278 q 660 1301 683 1278 q 636 1358 636 1324 q 660 1416 636 1393 q 717 1439 683 1439 q 774 1415 750 1439 q 797 1358 797 1392 q 774 1301 797 1324 q 717 1278 750 1278 z "},"Ȭ":{"ha":1169,"x_min":61,"x_max":1108,"o":"m 585 -14 q 317 51 436 -14 q 129 230 197 115 q 61 486 61 344 q 129 742 61 628 q 317 922 197 857 q 585 986 436 986 q 853 922 733 986 q 1040 743 972 857 q 1108 486 1108 629 q 1040 229 1108 343 q 853 51 972 115 q 585 -14 733 -14 m 585 144 q 760 188 682 144 q 882 310 838 232 q 926 486 926 389 q 882 662 926 583 q 760 784 838 740 q 585 828 682 828 q 410 784 488 828 q 288 662 332 740 q 243 486 243 583 q 288 310 243 389 q 410 188 332 232 q 585 144 488 144 m 686 1053 q 620 1065 649 1053 q 558 1100 592 1078 q 522 1121 536 1114 q 494 1128 508 1128 q 433 1061 436 1128 l 339 1061 q 380 1178 340 1136 q 486 1219 419 1219 q 549 1208 521 1219 q 608 1175 576 1196 q 648 1153 633 1160 q 678 1146 663 1146 q 721 1163 706 1146 q 739 1211 736 1181 l 831 1211 q 790 1095 829 1138 q 686 1053 751 1053 m 344 1386 l 825 1386 l 825 1289 l 344 1289 l 344 1386 z "},"Œ":{"ha":1571,"x_min":61,"x_max":1499,"o":"m 1499 151 l 1499 0 l 592 0 q 315 60 436 0 q 128 231 194 121 q 61 485 61 342 q 128 740 61 629 q 315 911 194 850 q 592 972 435 972 l 1479 972 l 1479 821 l 950 821 l 950 568 l 1421 568 l 1421 419 l 950 419 l 950 151 l 1499 151 m 771 153 l 771 819 l 600 819 q 412 778 493 819 q 287 660 331 736 q 243 485 243 585 q 287 310 243 386 q 412 194 331 235 q 600 153 493 153 l 771 153 z "},"P":{"ha":1008,"x_min":131,"x_max":944,"o":"m 531 972 q 751 931 657 972 q 894 811 844 889 q 944 626 944 733 q 894 442 944 521 q 751 322 844 364 q 531 281 657 281 l 311 281 l 311 0 l 131 0 l 131 972 l 531 972 m 522 433 q 701 483 640 433 q 763 626 763 533 q 701 769 763 719 q 522 819 640 819 l 311 819 l 311 433 l 522 433 z "},"Þ":{"ha":1008,"x_min":131,"x_max":944,"o":"m 531 858 q 751 817 657 858 q 894 697 844 775 q 944 513 944 618 q 894 328 944 407 q 751 208 844 250 q 531 167 657 167 l 311 167 l 311 0 l 131 0 l 131 972 l 311 972 l 311 858 l 531 858 m 522 319 q 701 369 640 319 q 763 513 763 419 q 701 656 763 606 q 522 706 640 706 l 311 706 l 311 319 l 522 319 z "},"Q":{"ha":1169,"x_min":61,"x_max":1157,"o":"m 1157 -97 q 1044 -183 1108 -154 q 903 -212 979 -212 q 719 -167 803 -212 q 529 -11 636 -122 q 288 67 394 0 q 121 244 181 135 q 61 486 61 353 q 129 742 61 628 q 317 922 197 857 q 585 986 436 986 q 853 922 733 986 q 1040 743 972 857 q 1108 486 1108 629 q 1063 273 1108 371 q 935 106 1017 175 q 744 7 853 38 q 824 -56 785 -36 q 907 -75 863 -75 q 1074 3 1003 -75 l 1157 -97 m 243 486 q 288 310 243 389 q 410 188 332 232 q 585 144 488 144 q 760 188 682 144 q 882 310 838 232 q 926 486 926 389 q 882 662 926 583 q 760 784 838 740 q 585 828 682 828 q 410 784 488 828 q 288 662 332 740 q 243 486 243 583 z "},"R":{"ha":1015,"x_min":131,"x_max":961,"o":"m 767 0 l 568 285 q 531 283 556 283 l 311 283 l 311 0 l 131 0 l 131 972 l 531 972 q 751 931 657 972 q 894 811 844 889 q 944 626 944 733 q 891 438 944 517 q 738 319 838 358 l 961 0 l 767 0 m 763 626 q 701 769 763 719 q 522 819 640 819 l 311 819 l 311 432 l 522 432 q 701 483 640 432 q 763 626 763 533 z "},"Ŕ":{"ha":1015,"x_min":131,"x_max":961,"o":"m 767 0 l 568 285 q 531 283 556 283 l 311 283 l 311 0 l 131 0 l 131 972 l 531 972 q 751 931 657 972 q 894 811 844 889 q 944 626 944 733 q 891 438 944 517 q 738 319 838 358 l 961 0 l 767 0 m 763 626 q 701 769 763 719 q 522 819 640 819 l 311 819 l 311 432 l 522 432 q 701 483 640 432 q 763 626 763 533 m 589 1242 l 793 1242 l 551 1051 l 401 1051 l 589 1242 z "},"Ř":{"ha":1015,"x_min":131,"x_max":961,"o":"m 767 0 l 568 285 q 531 283 556 283 l 311 283 l 311 0 l 131 0 l 131 972 l 531 972 q 751 931 657 972 q 894 811 844 889 q 944 626 944 733 q 891 438 944 517 q 738 319 838 358 l 961 0 l 767 0 m 763 626 q 701 769 763 719 q 522 819 640 819 l 311 819 l 311 432 l 522 432 q 701 483 640 432 q 763 626 763 533 m 783 1242 l 597 1051 l 439 1051 l 253 1242 l 396 1242 l 518 1139 l 640 1242 l 783 1242 z "},"Ŗ":{"ha":1015,"x_min":131,"x_max":961,"o":"m 767 0 l 568 285 q 531 283 556 283 l 311 283 l 311 0 l 131 0 l 131 972 l 531 972 q 751 931 657 972 q 894 811 844 889 q 944 626 944 733 q 891 438 944 517 q 738 319 838 358 l 961 0 l 767 0 m 763 626 q 701 769 763 719 q 522 819 640 819 l 311 819 l 311 432 l 522 432 q 701 483 640 432 q 763 626 763 533 m 518 -115 q 578 -136 556 -115 q 601 -189 601 -157 q 579 -271 601 -228 l 535 -368 l 450 -368 l 483 -256 q 435 -189 435 -240 q 458 -135 435 -156 q 518 -115 481 -115 z "},"Ȑ":{"ha":1015,"x_min":131,"x_max":961,"o":"m 767 0 l 568 285 q 531 283 556 283 l 311 283 l 311 0 l 131 0 l 131 972 l 531 972 q 751 931 657 972 q 894 811 844 889 q 944 626 944 733 q 891 438 944 517 q 738 319 838 358 l 961 0 l 767 0 m 763 626 q 701 769 763 719 q 522 819 640 819 l 311 819 l 311 432 l 522 432 q 701 483 640 432 q 763 626 763 533 m 171 1242 l 344 1242 l 456 1051 l 319 1051 l 171 1242 m 431 1242 l 604 1242 l 717 1051 l 581 1051 l 431 1242 z "},"Ṛ":{"ha":1015,"x_min":131,"x_max":961,"o":"m 767 0 l 568 285 q 531 283 556 283 l 311 283 l 311 0 l 131 0 l 131 972 l 531 972 q 751 931 657 972 q 894 811 844 889 q 944 626 944 733 q 891 438 944 517 q 738 319 838 358 l 961 0 l 767 0 m 763 626 q 701 769 763 719 q 522 819 640 819 l 311 819 l 311 432 l 522 432 q 701 483 640 432 q 763 626 763 533 m 518 -282 q 458 -260 482 -282 q 435 -200 435 -237 q 458 -140 435 -164 q 518 -115 482 -115 q 578 -140 554 -115 q 601 -200 601 -164 q 578 -260 601 -237 q 518 -282 554 -282 z "},"Ȓ":{"ha":1015,"x_min":131,"x_max":961,"o":"m 767 0 l 568 285 q 531 283 556 283 l 311 283 l 311 0 l 131 0 l 131 972 l 531 972 q 751 931 657 972 q 894 811 844 889 q 944 626 944 733 q 891 438 944 517 q 738 319 838 358 l 961 0 l 767 0 m 763 626 q 701 769 763 719 q 522 819 640 819 l 311 819 l 311 432 l 522 432 q 701 483 640 432 q 763 626 763 533 m 278 1051 q 349 1197 282 1143 q 518 1251 417 1251 q 687 1197 619 1251 q 758 1051 754 1143 l 644 1051 q 607 1128 643 1100 q 518 1157 571 1157 q 429 1128 465 1157 q 392 1051 393 1100 l 278 1051 z "},"Ṟ":{"ha":1015,"x_min":131,"x_max":961,"o":"m 767 0 l 568 285 q 531 283 556 283 l 311 283 l 311 0 l 131 0 l 131 972 l 531 972 q 751 931 657 972 q 894 811 844 889 q 944 626 944 733 q 891 438 944 517 q 738 319 838 358 l 961 0 l 767 0 m 763 626 q 701 769 763 719 q 522 819 640 819 l 311 819 l 311 432 l 522 432 q 701 483 640 432 q 763 626 763 533 m 278 -144 l 758 -144 l 758 -247 l 278 -247 l 278 -144 z "},"S":{"ha":874,"x_min":49,"x_max":825,"o":"m 432 -14 q 215 18 319 -14 q 49 103 110 50 l 111 243 q 258 166 171 196 q 432 136 344 136 q 594 171 540 136 q 647 263 647 206 q 617 331 647 304 q 542 374 588 358 q 417 408 496 389 q 237 461 306 435 q 119 544 168 488 q 69 696 69 600 q 113 842 69 776 q 245 947 157 908 q 461 986 333 986 q 636 964 550 986 q 785 900 722 942 l 728 760 q 594 817 664 797 q 460 836 525 836 q 301 800 353 836 q 249 704 249 764 q 278 636 249 663 q 354 594 308 610 q 479 560 400 579 q 657 508 588 535 q 776 425 726 481 q 825 275 825 369 q 781 129 825 194 q 649 25 738 64 q 432 -14 560 -14 z "},"Ś":{"ha":874,"x_min":49,"x_max":825,"o":"m 432 -14 q 215 18 319 -14 q 49 103 110 50 l 111 243 q 258 166 171 196 q 432 136 344 136 q 594 171 540 136 q 647 263 647 206 q 617 331 647 304 q 542 374 588 358 q 417 408 496 389 q 237 461 306 435 q 119 544 168 488 q 69 696 69 600 q 113 842 69 776 q 245 947 157 908 q 461 986 333 986 q 636 964 550 986 q 785 900 722 942 l 728 760 q 594 817 664 797 q 460 836 525 836 q 301 800 353 836 q 249 704 249 764 q 278 636 249 663 q 354 594 308 610 q 479 560 400 579 q 657 508 588 535 q 776 425 726 481 q 825 275 825 369 q 781 129 825 194 q 649 25 738 64 q 432 -14 560 -14 m 521 1242 l 725 1242 l 483 1051 l 333 1051 l 521 1242 z "},"Ṥ":{"ha":874,"x_min":49,"x_max":825,"o":"m 432 -14 q 215 18 319 -14 q 49 103 110 50 l 111 243 q 258 166 171 196 q 432 136 344 136 q 594 171 540 136 q 647 263 647 206 q 617 331 647 304 q 542 374 588 358 q 417 408 496 389 q 237 461 306 435 q 119 544 168 488 q 69 696 69 600 q 113 842 69 776 q 245 947 157 908 q 461 986 333 986 q 636 964 550 986 q 785 900 722 942 l 728 760 q 594 817 664 797 q 460 836 525 836 q 301 800 353 836 q 249 704 249 764 q 278 636 249 663 q 354 594 308 610 q 479 560 400 579 q 657 508 588 535 q 776 425 726 481 q 825 275 825 369 q 781 129 825 194 q 649 25 738 64 q 432 -14 560 -14 m 501 1214 l 688 1214 l 476 1051 l 343 1051 l 501 1214 m 450 1276 q 390 1299 414 1276 q 367 1360 367 1322 q 390 1420 367 1397 q 450 1443 414 1443 q 510 1420 486 1443 q 533 1360 533 1397 q 510 1299 533 1322 q 450 1276 486 1276 z "},"Ꞌ":{"ha":385,"x_min":103,"x_max":282,"o":"m 103 972 l 282 972 l 258 413 l 103 413 l 103 972 z "},"Š":{"ha":874,"x_min":49,"x_max":825,"o":"m 432 -14 q 215 18 319 -14 q 49 103 110 50 l 111 243 q 258 166 171 196 q 432 136 344 136 q 594 171 540 136 q 647 263 647 206 q 617 331 647 304 q 542 374 588 358 q 417 408 496 389 q 237 461 306 435 q 119 544 168 488 q 69 696 69 600 q 113 842 69 776 q 245 947 157 908 q 461 986 333 986 q 636 964 550 986 q 785 900 722 942 l 728 760 q 594 817 664 797 q 460 836 525 836 q 301 800 353 836 q 249 704 249 764 q 278 636 249 663 q 354 594 308 610 q 479 560 400 579 q 657 508 588 535 q 776 425 726 481 q 825 275 825 369 q 781 129 825 194 q 649 25 738 64 q 432 -14 560 -14 m 715 1242 l 529 1051 l 371 1051 l 185 1242 l 328 1242 l 450 1139 l 572 1242 l 715 1242 z "},"Ṧ":{"ha":874,"x_min":49,"x_max":825,"o":"m 432 -14 q 215 18 319 -14 q 49 103 110 50 l 111 243 q 258 166 171 196 q 432 136 344 136 q 594 171 540 136 q 647 263 647 206 q 617 331 647 304 q 542 374 588 358 q 417 408 496 389 q 237 461 306 435 q 119 544 168 488 q 69 696 69 600 q 113 842 69 776 q 245 947 157 908 q 461 986 333 986 q 636 964 550 986 q 785 900 722 942 l 728 760 q 594 817 664 797 q 460 836 525 836 q 301 800 353 836 q 249 704 249 764 q 278 636 249 663 q 354 594 308 610 q 479 560 400 579 q 657 508 588 535 q 776 425 726 481 q 825 275 825 369 q 781 129 825 194 q 649 25 738 64 q 432 -14 560 -14 m 715 1200 l 528 1051 l 372 1051 l 185 1200 l 329 1200 l 450 1124 l 571 1200 l 715 1200 m 450 1244 q 390 1267 414 1244 q 367 1328 367 1290 q 390 1388 367 1365 q 450 1411 414 1411 q 510 1388 486 1411 q 533 1328 533 1365 q 510 1267 533 1290 q 450 1244 486 1244 z "},"Ş":{"ha":874,"x_min":49,"x_max":825,"o":"m 432 -14 q 215 18 319 -14 q 49 103 110 50 l 111 243 q 258 166 171 196 q 432 136 344 136 q 594 171 540 136 q 647 263 647 206 q 617 331 647 304 q 542 374 588 358 q 417 408 496 389 q 237 461 306 435 q 119 544 168 488 q 69 696 69 600 q 113 842 69 776 q 245 947 157 908 q 461 986 333 986 q 636 964 550 986 q 785 900 722 942 l 728 760 q 594 817 664 797 q 460 836 525 836 q 301 800 353 836 q 249 704 249 764 q 278 636 249 663 q 354 594 308 610 q 479 560 400 579 q 657 508 588 535 q 776 425 726 481 q 825 275 825 369 q 781 129 825 194 q 649 25 738 64 q 432 -14 560 -14 m 410 -317 q 282 -287 335 -317 l 314 -206 q 408 -228 357 -228 q 482 -178 482 -228 q 464 -144 482 -157 q 408 -132 446 -132 l 365 -132 l 403 10 l 497 10 l 478 -68 q 568 -106 538 -75 q 599 -185 599 -137 q 547 -281 599 -244 q 410 -317 496 -317 z "},"Ŝ":{"ha":874,"x_min":49,"x_max":825,"o":"m 432 -14 q 215 18 319 -14 q 49 103 110 50 l 111 243 q 258 166 171 196 q 432 136 344 136 q 594 171 540 136 q 647 263 647 206 q 617 331 647 304 q 542 374 588 358 q 417 408 496 389 q 237 461 306 435 q 119 544 168 488 q 69 696 69 600 q 113 842 69 776 q 245 947 157 908 q 461 986 333 986 q 636 964 550 986 q 785 900 722 942 l 728 760 q 594 817 664 797 q 460 836 525 836 q 301 800 353 836 q 249 704 249 764 q 278 636 249 663 q 354 594 308 610 q 479 560 400 579 q 657 508 588 535 q 776 425 726 481 q 825 275 825 369 q 781 129 825 194 q 649 25 738 64 q 432 -14 560 -14 m 572 1051 l 450 1154 l 328 1051 l 185 1051 l 371 1242 l 529 1242 l 715 1051 l 572 1051 z "},"Ș":{"ha":874,"x_min":49,"x_max":825,"o":"m 432 -14 q 215 18 319 -14 q 49 103 110 50 l 111 243 q 258 166 171 196 q 432 136 344 136 q 594 171 540 136 q 647 263 647 206 q 617 331 647 304 q 542 374 588 358 q 417 408 496 389 q 237 461 306 435 q 119 544 168 488 q 69 696 69 600 q 113 842 69 776 q 245 947 157 908 q 461 986 333 986 q 636 964 550 986 q 785 900 722 942 l 728 760 q 594 817 664 797 q 460 836 525 836 q 301 800 353 836 q 249 704 249 764 q 278 636 249 663 q 354 594 308 610 q 479 560 400 579 q 657 508 588 535 q 776 425 726 481 q 825 275 825 369 q 781 129 825 194 q 649 25 738 64 q 432 -14 560 -14 m 450 -115 q 510 -136 488 -115 q 533 -189 533 -157 q 511 -271 533 -228 l 467 -368 l 382 -368 l 415 -256 q 367 -189 367 -240 q 390 -135 367 -156 q 450 -115 413 -115 z "},"Ṡ":{"ha":874,"x_min":49,"x_max":825,"o":"m 432 -14 q 215 18 319 -14 q 49 103 110 50 l 111 243 q 258 166 171 196 q 432 136 344 136 q 594 171 540 136 q 647 263 647 206 q 617 331 647 304 q 542 374 588 358 q 417 408 496 389 q 237 461 306 435 q 119 544 168 488 q 69 696 69 600 q 113 842 69 776 q 245 947 157 908 q 461 986 333 986 q 636 964 550 986 q 785 900 722 942 l 728 760 q 594 817 664 797 q 460 836 525 836 q 301 800 353 836 q 249 704 249 764 q 278 636 249 663 q 354 594 308 610 q 479 560 400 579 q 657 508 588 535 q 776 425 726 481 q 825 275 825 369 q 781 129 825 194 q 649 25 738 64 q 432 -14 560 -14 m 450 1068 q 379 1096 407 1068 q 351 1167 351 1124 q 379 1238 351 1210 q 450 1265 407 1265 q 521 1238 493 1265 q 549 1167 549 1210 q 521 1096 549 1124 q 450 1068 493 1068 z "},"Ṣ":{"ha":874,"x_min":49,"x_max":825,"o":"m 432 -14 q 215 18 319 -14 q 49 103 110 50 l 111 243 q 258 166 171 196 q 432 136 344 136 q 594 171 540 136 q 647 263 647 206 q 617 331 647 304 q 542 374 588 358 q 417 408 496 389 q 237 461 306 435 q 119 544 168 488 q 69 696 69 600 q 113 842 69 776 q 245 947 157 908 q 461 986 333 986 q 636 964 550 986 q 785 900 722 942 l 728 760 q 594 817 664 797 q 460 836 525 836 q 301 800 353 836 q 249 704 249 764 q 278 636 249 663 q 354 594 308 610 q 479 560 400 579 q 657 508 588 535 q 776 425 726 481 q 825 275 825 369 q 781 129 825 194 q 649 25 738 64 q 432 -14 560 -14 m 450 -282 q 390 -260 414 -282 q 367 -200 367 -237 q 390 -140 367 -164 q 450 -115 414 -115 q 510 -140 486 -115 q 533 -200 533 -164 q 510 -260 533 -237 q 450 -282 486 -282 z "},"Ṩ":{"ha":874,"x_min":49,"x_max":825,"o":"m 432 -14 q 215 18 319 -14 q 49 103 110 50 l 111 243 q 258 166 171 196 q 432 136 344 136 q 594 171 540 136 q 647 263 647 206 q 617 331 647 304 q 542 374 588 358 q 417 408 496 389 q 237 461 306 435 q 119 544 168 488 q 69 696 69 600 q 113 842 69 776 q 245 947 157 908 q 461 986 333 986 q 636 964 550 986 q 785 900 722 942 l 728 760 q 594 817 664 797 q 460 836 525 836 q 301 800 353 836 q 249 704 249 764 q 278 636 249 663 q 354 594 308 610 q 479 560 400 579 q 657 508 588 535 q 776 425 726 481 q 825 275 825 369 q 781 129 825 194 q 649 25 738 64 q 432 -14 560 -14 m 450 -282 q 390 -260 414 -282 q 367 -200 367 -237 q 390 -140 367 -164 q 450 -115 414 -115 q 510 -140 486 -115 q 533 -200 533 -164 q 510 -260 533 -237 q 450 -282 486 -282 m 450 1068 q 379 1096 407 1068 q 351 1167 351 1124 q 379 1238 351 1210 q 450 1265 407 1265 q 521 1238 493 1265 q 549 1167 549 1210 q 521 1096 549 1124 q 450 1068 493 1068 z "},"ẞ":{"ha":1071,"x_min":122,"x_max":1008,"o":"m 735 578 q 933 484 857 561 q 1008 283 1008 407 q 963 123 1008 190 q 840 21 918 56 q 663 -14 761 -14 q 456 21 539 -14 l 483 167 q 636 136 551 136 q 776 175 726 136 q 825 290 825 214 q 775 406 825 365 q 636 446 725 446 q 526 431 575 446 l 494 513 l 751 808 q 579 839 671 839 q 374 764 446 839 q 303 549 303 689 l 303 0 l 122 0 l 122 553 q 176 785 122 688 q 331 936 229 883 q 575 989 433 989 q 760 965 669 989 q 914 894 851 940 l 914 781 l 735 578 z "},"Ə":{"ha":1135,"x_min":61,"x_max":1074,"o":"m 558 986 q 824 922 706 986 q 1008 743 942 857 q 1074 488 1074 629 q 1008 230 1074 344 q 826 51 942 115 q 568 -14 711 -14 q 308 51 424 -14 q 126 233 192 117 q 61 494 61 349 l 61 539 l 889 539 q 833 688 879 622 q 714 791 786 754 q 557 828 642 828 q 394 799 472 828 q 261 714 315 769 l 153 836 q 329 946 222 906 q 558 986 436 986 m 568 138 q 780 208 696 138 q 885 397 864 278 l 249 397 q 357 207 272 276 q 568 138 442 138 z "},"T":{"ha":836,"x_min":6,"x_max":831,"o":"m 328 819 l 6 819 l 6 972 l 831 972 l 831 819 l 508 819 l 508 0 l 328 0 l 328 819 z "},"Ŧ":{"ha":836,"x_min":6,"x_max":831,"o":"m 328 819 l 6 819 l 6 972 l 831 972 l 831 819 l 508 819 l 508 0 l 328 0 l 328 819 m 129 529 l 707 529 l 707 396 l 129 396 l 129 529 z "},"Ť":{"ha":836,"x_min":6,"x_max":831,"o":"m 328 819 l 6 819 l 6 972 l 831 972 l 831 819 l 508 819 l 508 0 l 328 0 l 328 819 m 683 1242 l 497 1051 l 339 1051 l 153 1242 l 296 1242 l 418 1139 l 540 1242 l 683 1242 z "},"Ţ":{"ha":836,"x_min":6,"x_max":831,"o":"m 328 819 l 6 819 l 6 972 l 831 972 l 831 819 l 508 819 l 508 0 l 328 0 l 328 819 m 378 -317 q 250 -287 303 -317 l 282 -206 q 376 -228 325 -228 q 450 -178 450 -228 q 432 -144 450 -157 q 376 -132 414 -132 l 333 -132 l 371 10 l 465 10 l 446 -68 q 536 -106 506 -75 q 567 -185 567 -137 q 515 -281 567 -244 q 378 -317 464 -317 z "},"Ț":{"ha":836,"x_min":6,"x_max":831,"o":"m 328 819 l 6 819 l 6 972 l 831 972 l 831 819 l 508 819 l 508 0 l 328 0 l 328 819 m 418 -115 q 478 -136 456 -115 q 501 -189 501 -157 q 479 -271 501 -228 l 435 -368 l 350 -368 l 383 -256 q 335 -189 335 -240 q 358 -135 335 -156 q 418 -115 381 -115 z "},"Ṭ":{"ha":836,"x_min":6,"x_max":831,"o":"m 328 819 l 6 819 l 6 972 l 831 972 l 831 819 l 508 819 l 508 0 l 328 0 l 328 819 m 418 -282 q 358 -260 382 -282 q 335 -200 335 -237 q 358 -140 335 -164 q 418 -115 382 -115 q 478 -140 454 -115 q 501 -200 501 -164 q 478 -260 501 -237 q 418 -282 454 -282 z "},"Ṯ":{"ha":836,"x_min":6,"x_max":831,"o":"m 328 819 l 6 819 l 6 972 l 831 972 l 831 819 l 508 819 l 508 0 l 328 0 l 328 819 m 178 -144 l 658 -144 l 658 -247 l 178 -247 l 178 -144 z "},"U":{"ha":1096,"x_min":122,"x_max":974,"o":"m 549 -14 q 235 99 347 -14 q 122 424 122 213 l 122 972 l 303 972 l 303 431 q 550 144 303 144 q 796 431 796 144 l 796 972 l 974 972 l 974 424 q 862 99 974 213 q 549 -14 750 -14 z "},"Ú":{"ha":1096,"x_min":122,"x_max":974,"o":"m 549 -14 q 235 99 347 -14 q 122 424 122 213 l 122 972 l 303 972 l 303 431 q 550 144 303 144 q 796 431 796 144 l 796 972 l 974 972 l 974 424 q 862 99 974 213 q 549 -14 750 -14 m 621 1242 l 825 1242 l 583 1051 l 433 1051 l 621 1242 z "},"Ŭ":{"ha":1096,"x_min":122,"x_max":974,"o":"m 549 -14 q 235 99 347 -14 q 122 424 122 213 l 122 972 l 303 972 l 303 431 q 550 144 303 144 q 796 431 796 144 l 796 972 l 974 972 l 974 424 q 862 99 974 213 q 549 -14 750 -14 m 550 1042 q 381 1096 449 1042 q 310 1242 314 1150 l 424 1242 q 461 1166 425 1194 q 550 1138 497 1138 q 639 1166 603 1138 q 676 1242 675 1194 l 790 1242 q 719 1096 786 1150 q 550 1042 651 1042 z "},"Ǔ":{"ha":1096,"x_min":122,"x_max":974,"o":"m 549 -14 q 235 99 347 -14 q 122 424 122 213 l 122 972 l 303 972 l 303 431 q 550 144 303 144 q 796 431 796 144 l 796 972 l 974 972 l 974 424 q 862 99 974 213 q 549 -14 750 -14 m 815 1242 l 629 1051 l 471 1051 l 285 1242 l 428 1242 l 550 1139 l 672 1242 l 815 1242 z "},"Û":{"ha":1096,"x_min":122,"x_max":974,"o":"m 549 -14 q 235 99 347 -14 q 122 424 122 213 l 122 972 l 303 972 l 303 431 q 550 144 303 144 q 796 431 796 144 l 796 972 l 974 972 l 974 424 q 862 99 974 213 q 549 -14 750 -14 m 672 1051 l 550 1154 l 428 1051 l 285 1051 l 471 1242 l 629 1242 l 815 1051 l 672 1051 z "},"Ȕ":{"ha":1096,"x_min":122,"x_max":974,"o":"m 549 -14 q 235 99 347 -14 q 122 424 122 213 l 122 972 l 303 972 l 303 431 q 550 144 303 144 q 796 431 796 144 l 796 972 l 974 972 l 974 424 q 862 99 974 213 q 549 -14 750 -14 m 203 1242 l 376 1242 l 488 1051 l 351 1051 l 203 1242 m 463 1242 l 636 1242 l 749 1051 l 613 1051 l 463 1242 z "},"Ü":{"ha":1096,"x_min":122,"x_max":974,"o":"m 549 -14 q 235 99 347 -14 q 122 424 122 213 l 122 972 l 303 972 l 303 431 q 550 144 303 144 q 796 431 796 144 l 796 972 l 974 972 l 974 424 q 862 99 974 213 q 549 -14 750 -14 m 415 1067 q 356 1090 379 1067 q 332 1150 332 1114 q 356 1211 332 1188 q 415 1235 379 1235 q 475 1211 451 1235 q 499 1150 499 1188 q 475 1090 499 1114 q 415 1067 451 1067 m 685 1067 q 625 1090 649 1067 q 601 1150 601 1114 q 625 1211 601 1188 q 685 1235 649 1235 q 744 1211 721 1235 q 768 1150 768 1188 q 744 1090 768 1114 q 685 1067 721 1067 z "},"Ụ":{"ha":1096,"x_min":122,"x_max":974,"o":"m 549 -14 q 235 99 347 -14 q 122 424 122 213 l 122 972 l 303 972 l 303 431 q 550 144 303 144 q 796 431 796 144 l 796 972 l 974 972 l 974 424 q 862 99 974 213 q 549 -14 750 -14 m 550 -282 q 490 -260 514 -282 q 467 -200 467 -237 q 490 -140 467 -164 q 550 -115 514 -115 q 610 -140 586 -115 q 633 -200 633 -164 q 610 -260 633 -237 q 550 -282 586 -282 z "},"Ù":{"ha":1096,"x_min":122,"x_max":974,"o":"m 549 -14 q 235 99 347 -14 q 122 424 122 213 l 122 972 l 303 972 l 303 431 q 550 144 303 144 q 796 431 796 144 l 796 972 l 974 972 l 974 424 q 862 99 974 213 q 549 -14 750 -14 m 275 1242 l 479 1242 l 667 1051 l 517 1051 l 275 1242 z "},"Ủ":{"ha":1096,"x_min":122,"x_max":974,"o":"m 549 -14 q 235 99 347 -14 q 122 424 122 213 l 122 972 l 303 972 l 303 431 q 550 144 303 144 q 796 431 796 144 l 796 972 l 974 972 l 974 424 q 862 99 974 213 q 549 -14 750 -14 m 528 1101 q 585 1141 568 1119 q 603 1190 603 1163 q 583 1234 603 1217 q 533 1251 564 1251 q 450 1225 490 1251 l 413 1301 q 476 1333 440 1322 q 551 1344 513 1344 q 661 1306 618 1344 q 704 1206 704 1268 q 585 1038 704 1093 l 528 1101 z "},"Ư":{"ha":1110,"x_min":122,"x_max":1119,"o":"m 549 -14 q 235 99 347 -14 q 122 424 122 213 l 122 972 l 303 972 l 303 431 q 550 144 303 144 q 796 431 796 144 l 796 972 l 974 972 l 974 424 q 862 99 974 213 q 549 -14 750 -14 m 883 972 l 913 972 q 976 997 953 972 q 999 1061 999 1021 q 971 1147 999 1110 l 1078 1186 q 1119 1056 1119 1133 q 1064 904 1119 960 q 911 849 1008 849 l 883 849 l 883 972 z "},"Ứ":{"ha":1110,"x_min":122,"x_max":1119,"o":"m 549 -14 q 235 99 347 -14 q 122 424 122 213 l 122 972 l 303 972 l 303 431 q 550 144 303 144 q 796 431 796 144 l 796 972 l 974 972 l 974 424 q 862 99 974 213 q 549 -14 750 -14 m 883 972 l 913 972 q 976 997 953 972 q 999 1061 999 1021 q 971 1147 999 1110 l 1078 1186 q 1119 1056 1119 1133 q 1064 904 1119 960 q 911 849 1008 849 l 883 849 l 883 972 m 621 1242 l 825 1242 l 583 1051 l 433 1051 l 621 1242 z "},"Ự":{"ha":1110,"x_min":122,"x_max":1119,"o":"m 549 -14 q 235 99 347 -14 q 122 424 122 213 l 122 972 l 303 972 l 303 431 q 550 144 303 144 q 796 431 796 144 l 796 972 l 974 972 l 974 424 q 862 99 974 213 q 549 -14 750 -14 m 883 972 l 913 972 q 976 997 953 972 q 999 1061 999 1021 q 971 1147 999 1110 l 1078 1186 q 1119 1056 1119 1133 q 1064 904 1119 960 q 911 849 1008 849 l 883 849 l 883 972 m 550 -282 q 490 -260 514 -282 q 467 -200 467 -237 q 490 -140 467 -164 q 550 -115 514 -115 q 610 -140 586 -115 q 633 -200 633 -164 q 610 -260 633 -237 q 550 -282 586 -282 z "},"Ừ":{"ha":1110,"x_min":122,"x_max":1119,"o":"m 549 -14 q 235 99 347 -14 q 122 424 122 213 l 122 972 l 303 972 l 303 431 q 550 144 303 144 q 796 431 796 144 l 796 972 l 974 972 l 974 424 q 862 99 974 213 q 549 -14 750 -14 m 883 972 l 913 972 q 976 997 953 972 q 999 1061 999 1021 q 971 1147 999 1110 l 1078 1186 q 1119 1056 1119 1133 q 1064 904 1119 960 q 911 849 1008 849 l 883 849 l 883 972 m 275 1242 l 479 1242 l 667 1051 l 517 1051 l 275 1242 z "},"Ử":{"ha":1110,"x_min":122,"x_max":1119,"o":"m 549 -14 q 235 99 347 -14 q 122 424 122 213 l 122 972 l 303 972 l 303 431 q 550 144 303 144 q 796 431 796 144 l 796 972 l 974 972 l 974 424 q 862 99 974 213 q 549 -14 750 -14 m 883 972 l 913 972 q 976 997 953 972 q 999 1061 999 1021 q 971 1147 999 1110 l 1078 1186 q 1119 1056 1119 1133 q 1064 904 1119 960 q 911 849 1008 849 l 883 849 l 883 972 m 528 1101 q 585 1141 568 1119 q 603 1190 603 1163 q 583 1234 603 1217 q 533 1251 564 1251 q 450 1225 490 1251 l 413 1301 q 476 1333 440 1322 q 551 1344 513 1344 q 661 1306 618 1344 q 704 1206 704 1268 q 585 1038 704 1093 l 528 1101 z "},"Ữ":{"ha":1110,"x_min":122,"x_max":1119,"o":"m 549 -14 q 235 99 347 -14 q 122 424 122 213 l 122 972 l 303 972 l 303 431 q 550 144 303 144 q 796 431 796 144 l 796 972 l 974 972 l 974 424 q 862 99 974 213 q 549 -14 750 -14 m 883 972 l 913 972 q 976 997 953 972 q 999 1061 999 1021 q 971 1147 999 1110 l 1078 1186 q 1119 1056 1119 1133 q 1064 904 1119 960 q 911 849 1008 849 l 883 849 l 883 972 m 650 1051 q 590 1065 615 1051 q 526 1107 564 1079 q 490 1134 504 1125 q 461 1143 475 1143 q 413 1121 432 1143 q 393 1060 394 1099 l 300 1060 q 342 1195 301 1144 q 450 1246 383 1246 q 510 1232 485 1246 q 574 1190 536 1218 q 610 1163 596 1172 q 639 1154 625 1154 q 687 1175 668 1154 q 707 1233 706 1196 l 800 1233 q 757 1101 797 1151 q 650 1051 717 1051 z "},"Ű":{"ha":1096,"x_min":122,"x_max":974,"o":"m 549 -14 q 235 99 347 -14 q 122 424 122 213 l 122 972 l 303 972 l 303 431 q 550 144 303 144 q 796 431 796 144 l 796 972 l 974 972 l 974 424 q 862 99 974 213 q 549 -14 750 -14 m 464 1242 l 638 1242 l 488 1051 l 351 1051 l 464 1242 m 724 1242 l 897 1242 l 749 1051 l 613 1051 l 724 1242 z "},"Ȗ":{"ha":1096,"x_min":122,"x_max":974,"o":"m 549 -14 q 235 99 347 -14 q 122 424 122 213 l 122 972 l 303 972 l 303 431 q 550 144 303 144 q 796 431 796 144 l 796 972 l 974 972 l 974 424 q 862 99 974 213 q 549 -14 750 -14 m 310 1051 q 381 1197 314 1143 q 550 1251 449 1251 q 719 1197 651 1251 q 790 1051 786 1143 l 676 1051 q 639 1128 675 1100 q 550 1157 603 1157 q 461 1128 497 1157 q 424 1051 425 1100 l 310 1051 z "},"Ū":{"ha":1096,"x_min":122,"x_max":974,"o":"m 549 -14 q 235 99 347 -14 q 122 424 122 213 l 122 972 l 303 972 l 303 431 q 550 144 303 144 q 796 431 796 144 l 796 972 l 974 972 l 974 424 q 862 99 974 213 q 549 -14 750 -14 m 310 1199 l 790 1199 l 790 1094 l 310 1094 l 310 1199 z "},"Ṻ":{"ha":1096,"x_min":122,"x_max":974,"o":"m 549 -14 q 235 99 347 -14 q 122 424 122 213 l 122 972 l 303 972 l 303 431 q 550 144 303 144 q 796 431 796 144 l 796 972 l 974 972 l 974 424 q 862 99 974 213 q 549 -14 750 -14 m 310 1176 l 790 1176 l 790 1079 l 310 1079 l 310 1176 m 419 1279 q 363 1302 386 1279 q 339 1360 339 1325 q 363 1417 339 1394 q 419 1440 386 1440 q 477 1417 454 1440 q 500 1360 500 1394 q 477 1302 500 1325 q 419 1279 454 1279 m 682 1279 q 625 1302 649 1279 q 601 1360 601 1325 q 625 1417 601 1394 q 682 1440 649 1440 q 739 1417 715 1440 q 763 1360 763 1393 q 739 1302 763 1325 q 682 1279 715 1279 z "},"Ų":{"ha":1096,"x_min":122,"x_max":974,"o":"m 974 972 l 974 424 q 907 157 974 258 q 718 11 840 56 q 522 -154 522 -61 q 544 -204 522 -186 q 604 -222 567 -222 q 649 -216 626 -222 q 689 -200 672 -210 l 718 -285 q 656 -308 692 -300 q 585 -317 621 -317 q 453 -276 501 -317 q 406 -168 406 -235 q 493 -11 406 -79 q 219 116 317 4 q 122 424 122 228 l 122 972 l 303 972 l 303 431 q 550 144 303 144 q 796 431 796 144 l 796 972 l 974 972 z "},"Ů":{"ha":1096,"x_min":122,"x_max":974,"o":"m 549 -14 q 235 99 347 -14 q 122 424 122 213 l 122 972 l 303 972 l 303 431 q 550 144 303 144 q 796 431 796 144 l 796 972 l 974 972 l 974 424 q 862 99 974 213 q 549 -14 750 -14 m 549 1054 q 434 1100 481 1054 q 388 1213 388 1146 q 434 1326 388 1279 q 549 1374 481 1374 q 665 1326 618 1374 q 711 1213 711 1279 q 665 1100 711 1146 q 549 1054 618 1054 m 549 1125 q 613 1150 588 1125 q 638 1213 638 1175 q 612 1277 638 1251 q 549 1303 586 1303 q 486 1277 511 1303 q 461 1213 461 1251 q 486 1150 461 1175 q 549 1125 511 1125 z "},"Ũ":{"ha":1096,"x_min":122,"x_max":974,"o":"m 549 -14 q 235 99 347 -14 q 122 424 122 213 l 122 972 l 303 972 l 303 431 q 550 144 303 144 q 796 431 796 144 l 796 972 l 974 972 l 974 424 q 862 99 974 213 q 549 -14 750 -14 m 650 1051 q 590 1065 615 1051 q 526 1107 564 1079 q 490 1134 504 1125 q 461 1143 475 1143 q 413 1121 432 1143 q 393 1060 394 1099 l 300 1060 q 342 1195 301 1144 q 450 1246 383 1246 q 510 1232 485 1246 q 574 1190 536 1218 q 610 1163 596 1172 q 639 1154 625 1154 q 687 1175 668 1154 q 707 1233 706 1196 l 800 1233 q 757 1101 797 1151 q 650 1051 717 1051 z "},"Ṹ":{"ha":1096,"x_min":122,"x_max":974,"o":"m 549 -14 q 235 99 347 -14 q 122 424 122 213 l 122 972 l 303 972 l 303 431 q 550 144 303 144 q 796 431 796 144 l 796 972 l 974 972 l 974 424 q 862 99 974 213 q 549 -14 750 -14 m 651 1053 q 585 1065 614 1053 q 524 1100 557 1078 q 488 1121 501 1114 q 460 1128 474 1128 q 399 1061 401 1128 l 304 1061 q 345 1178 306 1136 q 451 1219 385 1219 q 514 1208 486 1219 q 574 1175 542 1196 q 613 1153 599 1160 q 643 1146 628 1146 q 686 1163 671 1146 q 704 1211 701 1181 l 796 1211 q 756 1095 794 1138 q 651 1053 717 1053 m 601 1425 l 788 1425 l 576 1263 l 443 1263 l 601 1425 z "},"V":{"ha":1013,"x_min":-7,"x_max":1019,"o":"m 1019 972 l 596 0 l 418 0 l -7 972 l 189 972 l 513 222 l 839 972 l 1019 972 z "},"W":{"ha":1589,"x_min":38,"x_max":1551,"o":"m 1551 972 l 1229 0 l 1038 0 l 797 719 l 553 0 l 360 0 l 38 972 l 225 972 l 467 233 l 718 972 l 885 972 l 1131 229 l 1379 972 l 1551 972 z "},"Ẃ":{"ha":1589,"x_min":38,"x_max":1551,"o":"m 1551 972 l 1229 0 l 1038 0 l 797 719 l 553 0 l 360 0 l 38 972 l 225 972 l 467 233 l 718 972 l 885 972 l 1131 229 l 1379 972 l 1551 972 m 867 1242 l 1071 1242 l 829 1051 l 679 1051 l 867 1242 z "},"Ŵ":{"ha":1589,"x_min":38,"x_max":1551,"o":"m 1551 972 l 1229 0 l 1038 0 l 797 719 l 553 0 l 360 0 l 38 972 l 225 972 l 467 233 l 718 972 l 885 972 l 1131 229 l 1379 972 l 1551 972 m 918 1051 l 796 1154 l 674 1051 l 531 1051 l 717 1242 l 875 1242 l 1061 1051 l 918 1051 z "},"Ẅ":{"ha":1589,"x_min":38,"x_max":1551,"o":"m 1551 972 l 1229 0 l 1038 0 l 797 719 l 553 0 l 360 0 l 38 972 l 225 972 l 467 233 l 718 972 l 885 972 l 1131 229 l 1379 972 l 1551 972 m 661 1067 q 601 1090 625 1067 q 578 1150 578 1114 q 601 1211 578 1188 q 661 1235 625 1235 q 721 1211 697 1235 q 744 1150 744 1188 q 721 1090 744 1114 q 661 1067 697 1067 m 931 1067 q 871 1090 894 1067 q 847 1150 847 1114 q 871 1211 847 1188 q 931 1235 894 1235 q 990 1211 967 1235 q 1014 1150 1014 1188 q 990 1090 1014 1114 q 931 1067 967 1067 z "},"Ẁ":{"ha":1589,"x_min":38,"x_max":1551,"o":"m 1551 972 l 1229 0 l 1038 0 l 797 719 l 553 0 l 360 0 l 38 972 l 225 972 l 467 233 l 718 972 l 885 972 l 1131 229 l 1379 972 l 1551 972 m 521 1242 l 725 1242 l 913 1051 l 763 1051 l 521 1242 z "},"X":{"ha":963,"x_min":13,"x_max":951,"o":"m 743 0 l 479 369 l 218 0 l 13 0 l 374 496 l 32 972 l 236 972 l 485 626 l 731 972 l 926 972 l 586 503 l 951 0 l 743 0 z "},"Y":{"ha":918,"x_min":-12,"x_max":931,"o":"m 550 343 l 550 0 l 369 0 l 369 340 l -12 972 l 181 972 l 465 499 l 753 972 l 931 972 l 550 343 z "},"Ý":{"ha":918,"x_min":-12,"x_max":931,"o":"m 550 343 l 550 0 l 369 0 l 369 340 l -12 972 l 181 972 l 465 499 l 753 972 l 931 972 l 550 343 m 531 1242 l 735 1242 l 493 1051 l 343 1051 l 531 1242 z "},"Ŷ":{"ha":918,"x_min":-12,"x_max":931,"o":"m 550 343 l 550 0 l 369 0 l 369 340 l -12 972 l 181 972 l 465 499 l 753 972 l 931 972 l 550 343 m 582 1051 l 460 1154 l 338 1051 l 194 1051 l 381 1242 l 539 1242 l 725 1051 l 582 1051 z "},"Ÿ":{"ha":918,"x_min":-12,"x_max":931,"o":"m 550 343 l 550 0 l 369 0 l 369 340 l -12 972 l 181 972 l 465 499 l 753 972 l 931 972 l 550 343 m 325 1067 q 265 1090 289 1067 q 242 1150 242 1114 q 265 1211 242 1188 q 325 1235 289 1235 q 385 1211 361 1235 q 408 1150 408 1188 q 385 1090 408 1114 q 325 1067 361 1067 m 594 1067 q 535 1090 558 1067 q 511 1150 511 1114 q 535 1211 511 1188 q 594 1235 558 1235 q 654 1211 631 1235 q 678 1150 678 1188 q 654 1090 678 1114 q 594 1067 631 1067 z "},"Ẏ":{"ha":918,"x_min":-12,"x_max":931,"o":"m 550 343 l 550 0 l 369 0 l 369 340 l -12 972 l 181 972 l 465 499 l 753 972 l 931 972 l 550 343 m 460 1068 q 389 1096 417 1068 q 361 1167 361 1124 q 389 1238 361 1210 q 460 1265 417 1265 q 531 1238 503 1265 q 558 1167 558 1210 q 531 1096 558 1124 q 460 1068 503 1068 z "},"Ỵ":{"ha":918,"x_min":-12,"x_max":931,"o":"m 550 343 l 550 0 l 369 0 l 369 340 l -12 972 l 181 972 l 465 499 l 753 972 l 931 972 l 550 343 m 460 -282 q 400 -260 424 -282 q 376 -200 376 -237 q 400 -140 376 -164 q 460 -115 424 -115 q 519 -140 496 -115 q 543 -200 543 -164 q 519 -260 543 -237 q 460 -282 496 -282 z "},"Ỳ":{"ha":918,"x_min":-12,"x_max":931,"o":"m 550 343 l 550 0 l 369 0 l 369 340 l -12 972 l 181 972 l 465 499 l 753 972 l 931 972 l 550 343 m 185 1242 l 389 1242 l 576 1051 l 426 1051 l 185 1242 z "},"Ỷ":{"ha":918,"x_min":-12,"x_max":931,"o":"m 550 343 l 550 0 l 369 0 l 369 340 l -12 972 l 181 972 l 465 499 l 753 972 l 931 972 l 550 343 m 438 1101 q 495 1141 478 1119 q 513 1190 513 1163 q 493 1234 513 1217 q 443 1251 474 1251 q 360 1225 400 1251 l 322 1301 q 386 1333 350 1322 q 461 1344 422 1344 q 571 1306 528 1344 q 614 1206 614 1268 q 494 1038 614 1093 l 438 1101 z "},"Ȳ":{"ha":918,"x_min":-12,"x_max":931,"o":"m 550 343 l 550 0 l 369 0 l 369 340 l -12 972 l 181 972 l 465 499 l 753 972 l 931 972 l 550 343 m 219 1199 l 700 1199 l 700 1094 l 219 1094 l 219 1199 z "},"Ỹ":{"ha":918,"x_min":-12,"x_max":931,"o":"m 550 343 l 550 0 l 369 0 l 369 340 l -12 972 l 181 972 l 465 499 l 753 972 l 931 972 l 550 343 m 560 1051 q 499 1065 525 1051 q 436 1107 474 1079 q 399 1134 414 1125 q 371 1143 385 1143 q 323 1121 342 1143 q 303 1060 304 1099 l 210 1060 q 252 1195 211 1144 q 360 1246 293 1246 q 420 1232 394 1246 q 483 1190 446 1218 q 520 1163 506 1172 q 549 1154 535 1154 q 597 1175 578 1154 q 617 1233 615 1196 l 710 1233 q 667 1101 707 1151 q 560 1051 626 1051 z "},"Z":{"ha":921,"x_min":57,"x_max":886,"o":"m 886 153 l 886 0 l 57 0 l 57 121 l 629 819 l 67 819 l 67 972 l 868 972 l 868 851 l 296 153 l 886 153 z "},"Ź":{"ha":921,"x_min":57,"x_max":886,"o":"m 886 153 l 886 0 l 57 0 l 57 121 l 629 819 l 67 819 l 67 972 l 868 972 l 868 851 l 296 153 l 886 153 m 543 1242 l 747 1242 l 506 1051 l 356 1051 l 543 1242 z "},"Ž":{"ha":921,"x_min":57,"x_max":886,"o":"m 886 153 l 886 0 l 57 0 l 57 121 l 629 819 l 67 819 l 67 972 l 868 972 l 868 851 l 296 153 l 886 153 m 738 1242 l 551 1051 l 393 1051 l 207 1242 l 350 1242 l 472 1139 l 594 1242 l 738 1242 z "},"Ż":{"ha":921,"x_min":57,"x_max":886,"o":"m 886 153 l 886 0 l 57 0 l 57 121 l 629 819 l 67 819 l 67 972 l 868 972 l 868 851 l 296 153 l 886 153 m 472 1068 q 401 1096 429 1068 q 374 1167 374 1124 q 401 1238 374 1210 q 472 1265 429 1265 q 543 1238 515 1265 q 571 1167 571 1210 q 543 1096 571 1124 q 472 1068 515 1068 z "},"Ẓ":{"ha":921,"x_min":57,"x_max":886,"o":"m 886 153 l 886 0 l 57 0 l 57 121 l 629 819 l 67 819 l 67 972 l 868 972 l 868 851 l 296 153 l 886 153 m 478 -282 q 418 -260 442 -282 q 394 -200 394 -237 q 418 -140 394 -164 q 478 -115 442 -115 q 538 -140 514 -115 q 561 -200 561 -164 q 538 -260 561 -237 q 478 -282 514 -282 z "},"a":{"ha":843,"x_min":61,"x_max":735,"o":"m 397 750 q 648 672 561 750 q 735 435 735 593 l 735 0 l 571 0 l 571 90 q 480 16 539 42 q 338 -10 421 -10 q 192 19 254 -10 q 95 98 129 47 q 61 213 61 149 q 135 373 61 313 q 369 433 210 433 l 561 433 l 561 444 q 515 564 561 522 q 376 606 468 606 q 253 586 314 606 q 151 532 193 567 l 83 658 q 224 726 142 703 q 397 750 306 750 m 374 117 q 490 147 439 117 q 561 232 540 176 l 561 318 l 382 318 q 232 219 232 318 q 269 144 232 172 q 374 117 307 117 z "},"á":{"ha":843,"x_min":61,"x_max":735,"o":"m 397 750 q 648 672 561 750 q 735 435 735 593 l 735 0 l 571 0 l 571 90 q 480 16 539 42 q 338 -10 421 -10 q 192 19 254 -10 q 95 98 129 47 q 61 213 61 149 q 135 373 61 313 q 369 433 210 433 l 561 433 l 561 444 q 515 564 561 522 q 376 606 468 606 q 253 586 314 606 q 151 532 193 567 l 83 658 q 224 726 142 703 q 397 750 306 750 m 374 117 q 490 147 439 117 q 561 232 540 176 l 561 318 l 382 318 q 232 219 232 318 q 269 144 232 172 q 374 117 307 117 m 483 1033 l 688 1033 l 446 843 l 296 843 l 483 1033 z "},"ă":{"ha":843,"x_min":61,"x_max":735,"o":"m 397 750 q 648 672 561 750 q 735 435 735 593 l 735 0 l 571 0 l 571 90 q 480 16 539 42 q 338 -10 421 -10 q 192 19 254 -10 q 95 98 129 47 q 61 213 61 149 q 135 373 61 313 q 369 433 210 433 l 561 433 l 561 444 q 515 564 561 522 q 376 606 468 606 q 253 586 314 606 q 151 532 193 567 l 83 658 q 224 726 142 703 q 397 750 306 750 m 374 117 q 490 147 439 117 q 561 232 540 176 l 561 318 l 382 318 q 232 219 232 318 q 269 144 232 172 q 374 117 307 117 m 413 833 q 244 888 311 833 q 172 1033 176 942 l 286 1033 q 324 958 288 986 q 413 929 360 929 q 501 958 465 929 q 539 1033 538 986 l 653 1033 q 581 888 649 942 q 413 833 514 833 z "},"ắ":{"ha":843,"x_min":61,"x_max":735,"o":"m 397 750 q 648 672 561 750 q 735 435 735 593 l 735 0 l 571 0 l 571 90 q 480 16 539 42 q 338 -10 421 -10 q 192 19 254 -10 q 95 98 129 47 q 61 213 61 149 q 135 373 61 313 q 369 433 210 433 l 561 433 l 561 444 q 515 564 561 522 q 376 606 468 606 q 253 586 314 606 q 151 532 193 567 l 83 658 q 224 726 142 703 q 397 750 306 750 m 374 117 q 490 147 439 117 q 561 232 540 176 l 561 318 l 382 318 q 232 219 232 318 q 269 144 232 172 q 374 117 307 117 m 413 833 q 245 876 311 833 q 172 992 179 918 l 283 992 q 323 942 288 961 q 413 924 358 924 q 502 942 467 924 q 542 992 538 961 l 653 992 q 580 876 646 918 q 413 833 514 833 m 464 1192 l 650 1192 l 439 1029 l 306 1029 l 464 1192 z "},"ặ":{"ha":843,"x_min":61,"x_max":735,"o":"m 397 750 q 648 672 561 750 q 735 435 735 593 l 735 0 l 571 0 l 571 90 q 480 16 539 42 q 338 -10 421 -10 q 192 19 254 -10 q 95 98 129 47 q 61 213 61 149 q 135 373 61 313 q 369 433 210 433 l 561 433 l 561 444 q 515 564 561 522 q 376 606 468 606 q 253 586 314 606 q 151 532 193 567 l 83 658 q 224 726 142 703 q 397 750 306 750 m 374 117 q 490 147 439 117 q 561 232 540 176 l 561 318 l 382 318 q 232 219 232 318 q 269 144 232 172 q 374 117 307 117 m 404 -282 q 344 -260 368 -282 q 321 -200 321 -237 q 344 -140 321 -164 q 404 -115 368 -115 q 464 -140 440 -115 q 488 -200 488 -164 q 464 -260 488 -237 q 404 -282 440 -282 m 413 833 q 244 888 311 833 q 172 1033 176 942 l 286 1033 q 324 958 288 986 q 413 929 360 929 q 501 958 465 929 q 539 1033 538 986 l 653 1033 q 581 888 649 942 q 413 833 514 833 z "},"ằ":{"ha":843,"x_min":61,"x_max":735,"o":"m 397 750 q 648 672 561 750 q 735 435 735 593 l 735 0 l 571 0 l 571 90 q 480 16 539 42 q 338 -10 421 -10 q 192 19 254 -10 q 95 98 129 47 q 61 213 61 149 q 135 373 61 313 q 369 433 210 433 l 561 433 l 561 444 q 515 564 561 522 q 376 606 468 606 q 253 586 314 606 q 151 532 193 567 l 83 658 q 224 726 142 703 q 397 750 306 750 m 374 117 q 490 147 439 117 q 561 232 540 176 l 561 318 l 382 318 q 232 219 232 318 q 269 144 232 172 q 374 117 307 117 m 413 833 q 245 876 311 833 q 172 992 179 918 l 283 992 q 323 942 288 961 q 413 924 358 924 q 502 942 467 924 q 542 992 538 961 l 653 992 q 580 876 646 918 q 413 833 514 833 m 176 1192 l 363 1192 l 521 1029 l 388 1029 l 176 1192 z "},"ẳ":{"ha":843,"x_min":61,"x_max":735,"o":"m 397 750 q 648 672 561 750 q 735 435 735 593 l 735 0 l 571 0 l 571 90 q 480 16 539 42 q 338 -10 421 -10 q 192 19 254 -10 q 95 98 129 47 q 61 213 61 149 q 135 373 61 313 q 369 433 210 433 l 561 433 l 561 444 q 515 564 561 522 q 376 606 468 606 q 253 586 314 606 q 151 532 193 567 l 83 658 q 224 726 142 703 q 397 750 306 750 m 374 117 q 490 147 439 117 q 561 232 540 176 l 561 318 l 382 318 q 232 219 232 318 q 269 144 232 172 q 374 117 307 117 m 413 833 q 245 876 311 833 q 172 992 179 918 l 283 992 q 323 942 288 961 q 413 924 358 924 q 502 942 467 924 q 542 992 538 961 l 653 992 q 580 876 646 918 q 413 833 514 833 m 396 1038 q 450 1099 450 1064 q 436 1130 450 1118 q 400 1142 422 1142 q 339 1125 369 1142 l 308 1183 q 415 1213 351 1213 q 501 1184 469 1213 q 532 1108 532 1156 q 507 1038 532 1068 q 440 990 482 1007 l 396 1038 z "},"ẵ":{"ha":843,"x_min":61,"x_max":735,"o":"m 397 750 q 648 672 561 750 q 735 435 735 593 l 735 0 l 571 0 l 571 90 q 480 16 539 42 q 338 -10 421 -10 q 192 19 254 -10 q 95 98 129 47 q 61 213 61 149 q 135 373 61 313 q 369 433 210 433 l 561 433 l 561 444 q 515 564 561 522 q 376 606 468 606 q 253 586 314 606 q 151 532 193 567 l 83 658 q 224 726 142 703 q 397 750 306 750 m 374 117 q 490 147 439 117 q 561 232 540 176 l 561 318 l 382 318 q 232 219 232 318 q 269 144 232 172 q 374 117 307 117 m 413 833 q 245 876 311 833 q 172 992 179 918 l 283 992 q 323 942 288 961 q 413 924 358 924 q 502 942 467 924 q 542 992 538 961 l 653 992 q 580 876 646 918 q 413 833 514 833 m 514 1031 q 448 1043 476 1031 q 386 1078 419 1056 q 350 1099 364 1092 q 322 1106 336 1106 q 261 1039 264 1106 l 167 1039 q 208 1156 168 1114 q 314 1197 247 1197 q 376 1185 349 1197 q 436 1153 404 1174 q 476 1131 461 1138 q 506 1124 490 1124 q 549 1141 533 1124 q 567 1189 564 1158 l 658 1189 q 618 1073 657 1115 q 514 1031 579 1031 z "},"ǎ":{"ha":843,"x_min":61,"x_max":735,"o":"m 397 750 q 648 672 561 750 q 735 435 735 593 l 735 0 l 571 0 l 571 90 q 480 16 539 42 q 338 -10 421 -10 q 192 19 254 -10 q 95 98 129 47 q 61 213 61 149 q 135 373 61 313 q 369 433 210 433 l 561 433 l 561 444 q 515 564 561 522 q 376 606 468 606 q 253 586 314 606 q 151 532 193 567 l 83 658 q 224 726 142 703 q 397 750 306 750 m 374 117 q 490 147 439 117 q 561 232 540 176 l 561 318 l 382 318 q 232 219 232 318 q 269 144 232 172 q 374 117 307 117 m 678 1033 l 492 843 l 333 843 l 147 1033 l 290 1033 l 413 931 l 535 1033 l 678 1033 z "},"â":{"ha":843,"x_min":61,"x_max":735,"o":"m 397 750 q 648 672 561 750 q 735 435 735 593 l 735 0 l 571 0 l 571 90 q 480 16 539 42 q 338 -10 421 -10 q 192 19 254 -10 q 95 98 129 47 q 61 213 61 149 q 135 373 61 313 q 369 433 210 433 l 561 433 l 561 444 q 515 564 561 522 q 376 606 468 606 q 253 586 314 606 q 151 532 193 567 l 83 658 q 224 726 142 703 q 397 750 306 750 m 374 117 q 490 147 439 117 q 561 232 540 176 l 561 318 l 382 318 q 232 219 232 318 q 269 144 232 172 q 374 117 307 117 m 535 843 l 413 946 l 290 843 l 147 843 l 333 1033 l 492 1033 l 678 843 l 535 843 z "},"ấ":{"ha":843,"x_min":61,"x_max":908,"o":"m 397 750 q 648 672 561 750 q 735 435 735 593 l 735 0 l 571 0 l 571 90 q 480 16 539 42 q 338 -10 421 -10 q 192 19 254 -10 q 95 98 129 47 q 61 213 61 149 q 135 373 61 313 q 369 433 210 433 l 561 433 l 561 444 q 515 564 561 522 q 376 606 468 606 q 253 586 314 606 q 151 532 193 567 l 83 658 q 224 726 142 703 q 397 750 306 750 m 374 117 q 490 147 439 117 q 561 232 540 176 l 561 318 l 382 318 q 232 219 232 318 q 269 144 232 172 q 374 117 307 117 m 533 843 l 413 919 l 292 843 l 147 843 l 335 992 l 490 992 l 678 843 l 533 843 m 722 1133 l 908 1133 l 697 971 l 564 971 l 722 1133 z "},"ậ":{"ha":843,"x_min":61,"x_max":735,"o":"m 397 750 q 648 672 561 750 q 735 435 735 593 l 735 0 l 571 0 l 571 90 q 480 16 539 42 q 338 -10 421 -10 q 192 19 254 -10 q 95 98 129 47 q 61 213 61 149 q 135 373 61 313 q 369 433 210 433 l 561 433 l 561 444 q 515 564 561 522 q 376 606 468 606 q 253 586 314 606 q 151 532 193 567 l 83 658 q 224 726 142 703 q 397 750 306 750 m 374 117 q 490 147 439 117 q 561 232 540 176 l 561 318 l 382 318 q 232 219 232 318 q 269 144 232 172 q 374 117 307 117 m 404 -282 q 344 -260 368 -282 q 321 -200 321 -237 q 344 -140 321 -164 q 404 -115 368 -115 q 464 -140 440 -115 q 488 -200 488 -164 q 464 -260 488 -237 q 404 -282 440 -282 m 535 843 l 413 946 l 290 843 l 147 843 l 333 1033 l 492 1033 l 678 843 l 535 843 z "},"ầ":{"ha":843,"x_min":61,"x_max":779,"o":"m 397 750 q 648 672 561 750 q 735 435 735 593 l 735 0 l 571 0 l 571 90 q 480 16 539 42 q 338 -10 421 -10 q 192 19 254 -10 q 95 98 129 47 q 61 213 61 149 q 135 373 61 313 q 369 433 210 433 l 561 433 l 561 444 q 515 564 561 522 q 376 606 468 606 q 253 586 314 606 q 151 532 193 567 l 83 658 q 224 726 142 703 q 397 750 306 750 m 374 117 q 490 147 439 117 q 561 232 540 176 l 561 318 l 382 318 q 232 219 232 318 q 269 144 232 172 q 374 117 307 117 m 533 843 l 413 919 l 292 843 l 147 843 l 335 992 l 490 992 l 678 843 l 533 843 m 435 1133 l 621 1133 l 779 971 l 646 971 l 435 1133 z "},"ẩ":{"ha":843,"x_min":61,"x_max":735,"o":"m 397 750 q 648 672 561 750 q 735 435 735 593 l 735 0 l 571 0 l 571 90 q 480 16 539 42 q 338 -10 421 -10 q 192 19 254 -10 q 95 98 129 47 q 61 213 61 149 q 135 373 61 313 q 369 433 210 433 l 561 433 l 561 444 q 515 564 561 522 q 376 606 468 606 q 253 586 314 606 q 151 532 193 567 l 83 658 q 224 726 142 703 q 397 750 306 750 m 374 117 q 490 147 439 117 q 561 232 540 176 l 561 318 l 382 318 q 232 219 232 318 q 269 144 232 172 q 374 117 307 117 m 533 843 l 413 919 l 292 843 l 147 843 l 335 992 l 490 992 l 678 843 l 533 843 m 592 992 q 646 1053 646 1018 q 632 1084 646 1072 q 596 1096 618 1096 q 535 1079 565 1096 l 504 1138 q 611 1167 547 1167 q 697 1138 665 1167 q 728 1063 728 1110 q 703 992 728 1022 q 636 944 678 961 l 592 992 z "},"ẫ":{"ha":843,"x_min":61,"x_max":735,"o":"m 397 750 q 648 672 561 750 q 735 435 735 593 l 735 0 l 571 0 l 571 90 q 480 16 539 42 q 338 -10 421 -10 q 192 19 254 -10 q 95 98 129 47 q 61 213 61 149 q 135 373 61 313 q 369 433 210 433 l 561 433 l 561 444 q 515 564 561 522 q 376 606 468 606 q 253 586 314 606 q 151 532 193 567 l 83 658 q 224 726 142 703 q 397 750 306 750 m 374 117 q 490 147 439 117 q 561 232 540 176 l 561 318 l 382 318 q 232 219 232 318 q 269 144 232 172 q 374 117 307 117 m 533 843 l 413 919 l 292 843 l 147 843 l 335 992 l 490 992 l 678 843 l 533 843 m 514 1039 q 448 1051 476 1039 q 386 1086 419 1064 q 350 1107 364 1100 q 322 1114 336 1114 q 261 1047 264 1114 l 167 1047 q 208 1164 168 1122 q 314 1206 247 1206 q 376 1194 349 1206 q 436 1161 404 1182 q 476 1139 461 1146 q 506 1132 490 1132 q 549 1149 533 1132 q 567 1197 564 1167 l 658 1197 q 618 1081 657 1124 q 514 1039 579 1039 z "},"ȁ":{"ha":843,"x_min":61,"x_max":735,"o":"m 397 750 q 648 672 561 750 q 735 435 735 593 l 735 0 l 571 0 l 571 90 q 480 16 539 42 q 338 -10 421 -10 q 192 19 254 -10 q 95 98 129 47 q 61 213 61 149 q 135 373 61 313 q 369 433 210 433 l 561 433 l 561 444 q 515 564 561 522 q 376 606 468 606 q 253 586 314 606 q 151 532 193 567 l 83 658 q 224 726 142 703 q 397 750 306 750 m 374 117 q 490 147 439 117 q 561 232 540 176 l 561 318 l 382 318 q 232 219 232 318 q 269 144 232 172 q 374 117 307 117 m 65 1033 l 239 1033 l 350 843 l 214 843 l 65 1033 m 325 1033 l 499 1033 l 611 843 l 475 843 l 325 1033 z "},"ä":{"ha":843,"x_min":61,"x_max":735,"o":"m 397 750 q 648 672 561 750 q 735 435 735 593 l 735 0 l 571 0 l 571 90 q 480 16 539 42 q 338 -10 421 -10 q 192 19 254 -10 q 95 98 129 47 q 61 213 61 149 q 135 373 61 313 q 369 433 210 433 l 561 433 l 561 444 q 515 564 561 522 q 376 606 468 606 q 253 586 314 606 q 151 532 193 567 l 83 658 q 224 726 142 703 q 397 750 306 750 m 374 117 q 490 147 439 117 q 561 232 540 176 l 561 318 l 382 318 q 232 219 232 318 q 269 144 232 172 q 374 117 307 117 m 278 858 q 218 882 242 858 q 194 942 194 906 q 218 1003 194 979 q 278 1026 242 1026 q 338 1003 314 1026 q 361 942 361 979 q 338 882 361 906 q 278 858 314 858 m 547 858 q 488 882 511 858 q 464 942 464 906 q 488 1003 464 979 q 547 1026 511 1026 q 607 1003 583 1026 q 631 942 631 979 q 607 882 631 906 q 547 858 583 858 z "},"ạ":{"ha":843,"x_min":61,"x_max":735,"o":"m 397 750 q 648 672 561 750 q 735 435 735 593 l 735 0 l 571 0 l 571 90 q 480 16 539 42 q 338 -10 421 -10 q 192 19 254 -10 q 95 98 129 47 q 61 213 61 149 q 135 373 61 313 q 369 433 210 433 l 561 433 l 561 444 q 515 564 561 522 q 376 606 468 606 q 253 586 314 606 q 151 532 193 567 l 83 658 q 224 726 142 703 q 397 750 306 750 m 374 117 q 490 147 439 117 q 561 232 540 176 l 561 318 l 382 318 q 232 219 232 318 q 269 144 232 172 q 374 117 307 117 m 404 -282 q 344 -260 368 -282 q 321 -200 321 -237 q 344 -140 321 -164 q 404 -115 368 -115 q 464 -140 440 -115 q 488 -200 488 -164 q 464 -260 488 -237 q 404 -282 440 -282 z "},"à":{"ha":843,"x_min":61,"x_max":735,"o":"m 397 750 q 648 672 561 750 q 735 435 735 593 l 735 0 l 571 0 l 571 90 q 480 16 539 42 q 338 -10 421 -10 q 192 19 254 -10 q 95 98 129 47 q 61 213 61 149 q 135 373 61 313 q 369 433 210 433 l 561 433 l 561 444 q 515 564 561 522 q 376 606 468 606 q 253 586 314 606 q 151 532 193 567 l 83 658 q 224 726 142 703 q 397 750 306 750 m 374 117 q 490 147 439 117 q 561 232 540 176 l 561 318 l 382 318 q 232 219 232 318 q 269 144 232 172 q 374 117 307 117 m 138 1033 l 342 1033 l 529 843 l 379 843 l 138 1033 z "},"ả":{"ha":843,"x_min":61,"x_max":735,"o":"m 397 750 q 648 672 561 750 q 735 435 735 593 l 735 0 l 571 0 l 571 90 q 480 16 539 42 q 338 -10 421 -10 q 192 19 254 -10 q 95 98 129 47 q 61 213 61 149 q 135 373 61 313 q 369 433 210 433 l 561 433 l 561 444 q 515 564 561 522 q 376 606 468 606 q 253 586 314 606 q 151 532 193 567 l 83 658 q 224 726 142 703 q 397 750 306 750 m 374 117 q 490 147 439 117 q 561 232 540 176 l 561 318 l 382 318 q 232 219 232 318 q 269 144 232 172 q 374 117 307 117 m 390 893 q 448 933 431 911 q 465 982 465 954 q 446 1026 465 1008 q 396 1043 426 1043 q 313 1017 353 1043 l 275 1093 q 339 1125 303 1114 q 414 1136 375 1136 q 524 1098 481 1136 q 567 997 567 1060 q 447 829 567 885 l 390 893 z "},"ȃ":{"ha":843,"x_min":61,"x_max":735,"o":"m 397 750 q 648 672 561 750 q 735 435 735 593 l 735 0 l 571 0 l 571 90 q 480 16 539 42 q 338 -10 421 -10 q 192 19 254 -10 q 95 98 129 47 q 61 213 61 149 q 135 373 61 313 q 369 433 210 433 l 561 433 l 561 444 q 515 564 561 522 q 376 606 468 606 q 253 586 314 606 q 151 532 193 567 l 83 658 q 224 726 142 703 q 397 750 306 750 m 374 117 q 490 147 439 117 q 561 232 540 176 l 561 318 l 382 318 q 232 219 232 318 q 269 144 232 172 q 374 117 307 117 m 172 843 q 244 989 176 935 q 413 1043 311 1043 q 581 989 514 1043 q 653 843 649 935 l 539 843 q 501 920 538 892 q 413 949 465 949 q 324 920 360 949 q 286 843 288 892 l 172 843 z "},"ā":{"ha":843,"x_min":61,"x_max":735,"o":"m 397 750 q 648 672 561 750 q 735 435 735 593 l 735 0 l 571 0 l 571 90 q 480 16 539 42 q 338 -10 421 -10 q 192 19 254 -10 q 95 98 129 47 q 61 213 61 149 q 135 373 61 313 q 369 433 210 433 l 561 433 l 561 444 q 515 564 561 522 q 376 606 468 606 q 253 586 314 606 q 151 532 193 567 l 83 658 q 224 726 142 703 q 397 750 306 750 m 374 117 q 490 147 439 117 q 561 232 540 176 l 561 318 l 382 318 q 232 219 232 318 q 269 144 232 172 q 374 117 307 117 m 172 990 l 653 990 l 653 886 l 172 886 l 172 990 z "},"ą":{"ha":843,"x_min":61,"x_max":767,"o":"m 397 750 q 648 672 561 750 q 735 435 735 593 l 735 0 l 571 0 l 571 90 q 480 16 539 42 q 338 -10 421 -10 q 192 19 254 -10 q 95 98 129 47 q 61 213 61 149 q 135 373 61 313 q 369 433 210 433 l 561 433 l 561 444 q 515 564 561 522 q 376 606 468 606 q 253 586 314 606 q 151 532 193 567 l 83 658 q 224 726 142 703 q 397 750 306 750 m 374 117 q 490 147 439 117 q 561 232 540 176 l 561 318 l 382 318 q 232 219 232 318 q 269 144 232 172 q 374 117 307 117 m 635 -317 q 502 -276 550 -317 q 454 -168 454 -235 q 504 -47 454 -104 q 658 51 554 11 l 735 0 q 609 -76 647 -39 q 571 -154 571 -112 q 593 -204 571 -186 q 653 -222 615 -222 q 738 -200 701 -222 l 767 -285 q 635 -317 710 -317 z "},"å":{"ha":843,"x_min":61,"x_max":735,"o":"m 397 750 q 648 672 561 750 q 735 435 735 593 l 735 0 l 571 0 l 571 90 q 480 16 539 42 q 338 -10 421 -10 q 192 19 254 -10 q 95 98 129 47 q 61 213 61 149 q 135 373 61 313 q 369 433 210 433 l 561 433 l 561 444 q 515 564 561 522 q 376 606 468 606 q 253 586 314 606 q 151 532 193 567 l 83 658 q 224 726 142 703 q 397 750 306 750 m 374 117 q 490 147 439 117 q 561 232 540 176 l 561 318 l 382 318 q 232 219 232 318 q 269 144 232 172 q 374 117 307 117 m 411 824 q 297 869 343 824 q 250 982 250 915 q 297 1096 250 1049 q 411 1143 343 1143 q 527 1096 481 1143 q 574 982 574 1049 q 527 869 574 915 q 411 824 481 824 m 411 894 q 475 919 450 894 q 500 982 500 944 q 474 1047 500 1021 q 411 1072 449 1072 q 349 1047 374 1072 q 324 982 324 1021 q 349 919 324 944 q 411 894 374 894 z "},"ǻ":{"ha":843,"x_min":61,"x_max":735,"o":"m 397 750 q 648 672 561 750 q 735 435 735 593 l 735 0 l 571 0 l 571 90 q 480 16 539 42 q 338 -10 421 -10 q 192 19 254 -10 q 95 98 129 47 q 61 213 61 149 q 135 373 61 313 q 369 433 210 433 l 561 433 l 561 444 q 515 564 561 522 q 376 606 468 606 q 253 586 314 606 q 151 532 193 567 l 83 658 q 224 726 142 703 q 397 750 306 750 m 374 117 q 490 147 439 117 q 561 232 540 176 l 561 318 l 382 318 q 232 219 232 318 q 269 144 232 172 q 374 117 307 117 m 549 1069 q 574 982 574 1031 q 527 869 574 915 q 411 824 481 824 q 297 869 343 824 q 250 982 250 915 q 297 1096 250 1049 q 411 1143 343 1143 q 485 1126 451 1143 l 603 1247 l 692 1178 l 549 1069 m 411 894 q 475 919 450 894 q 500 982 500 944 q 474 1047 500 1021 q 411 1072 449 1072 q 349 1047 374 1072 q 324 982 324 1021 q 349 919 324 944 q 411 894 374 894 z "},"ã":{"ha":843,"x_min":61,"x_max":735,"o":"m 397 750 q 648 672 561 750 q 735 435 735 593 l 735 0 l 571 0 l 571 90 q 480 16 539 42 q 338 -10 421 -10 q 192 19 254 -10 q 95 98 129 47 q 61 213 61 149 q 135 373 61 313 q 369 433 210 433 l 561 433 l 561 444 q 515 564 561 522 q 376 606 468 606 q 253 586 314 606 q 151 532 193 567 l 83 658 q 224 726 142 703 q 397 750 306 750 m 374 117 q 490 147 439 117 q 561 232 540 176 l 561 318 l 382 318 q 232 219 232 318 q 269 144 232 172 q 374 117 307 117 m 513 843 q 452 857 478 843 q 389 899 426 871 q 352 926 367 917 q 324 935 338 935 q 276 913 294 935 q 256 851 257 890 l 163 851 q 205 987 164 936 q 313 1038 246 1038 q 373 1024 347 1038 q 436 982 399 1010 q 473 955 458 964 q 501 946 488 946 q 549 967 531 946 q 569 1025 568 988 l 663 1025 q 619 893 660 943 q 513 843 579 843 z "},"æ":{"ha":1379,"x_min":61,"x_max":1326,"o":"m 1326 374 q 1322 318 1326 342 l 738 318 q 815 186 751 235 q 978 138 879 138 q 1179 218 1097 138 l 1274 111 q 1145 21 1221 51 q 974 -10 1069 -10 q 790 24 872 -10 q 650 126 707 57 q 529 22 606 54 q 361 -10 453 -10 q 142 53 222 -10 q 61 219 61 117 q 136 373 61 314 q 369 432 211 432 l 561 432 l 561 444 q 515 564 561 522 q 378 606 468 606 q 253 586 314 606 q 151 532 193 567 l 83 658 q 224 726 142 703 q 396 750 306 750 q 672 636 592 750 q 794 720 722 690 q 949 750 865 750 q 1142 702 1056 750 q 1277 569 1228 654 q 1326 374 1326 483 m 947 611 q 809 564 869 611 q 736 432 749 517 l 1156 432 q 1085 564 1144 517 q 947 611 1025 611 m 376 117 q 512 161 463 117 q 561 279 561 206 l 561 318 l 382 318 q 232 222 232 318 q 270 144 232 172 q 376 117 308 117 z "},"ǽ":{"ha":1379,"x_min":61,"x_max":1326,"o":"m 1326 374 q 1322 318 1326 342 l 738 318 q 815 186 751 235 q 978 138 879 138 q 1179 218 1097 138 l 1274 111 q 1145 21 1221 51 q 974 -10 1069 -10 q 790 24 872 -10 q 650 126 707 57 q 529 22 606 54 q 361 -10 453 -10 q 142 53 222 -10 q 61 219 61 117 q 136 373 61 314 q 369 432 211 432 l 561 432 l 561 444 q 515 564 561 522 q 378 606 468 606 q 253 586 314 606 q 151 532 193 567 l 83 658 q 224 726 142 703 q 396 750 306 750 q 672 636 592 750 q 794 720 722 690 q 949 750 865 750 q 1142 702 1056 750 q 1277 569 1228 654 q 1326 374 1326 483 m 947 611 q 809 564 869 611 q 736 432 749 517 l 1156 432 q 1085 564 1144 517 q 947 611 1025 611 m 376 117 q 512 161 463 117 q 561 279 561 206 l 561 318 l 382 318 q 232 222 232 318 q 270 144 232 172 q 376 117 308 117 m 719 1033 l 924 1033 l 682 843 l 532 843 l 719 1033 z "},"b":{"ha":953,"x_min":114,"x_max":901,"o":"m 525 750 q 719 703 633 750 q 853 569 804 656 q 901 371 901 483 q 853 172 901 258 q 719 38 804 85 q 525 -10 633 -10 q 385 17 449 -10 q 279 96 322 43 l 279 0 l 114 0 l 114 1031 l 288 1031 l 288 651 q 392 725 332 700 q 525 750 453 750 m 506 139 q 663 203 601 139 q 725 371 725 267 q 663 539 725 475 q 506 603 601 603 q 393 574 443 603 q 314 493 343 546 q 285 371 285 440 q 314 249 285 301 q 393 167 343 196 q 506 139 443 139 z "},"c":{"ha":807,"x_min":53,"x_max":771,"o":"m 454 -10 q 247 39 339 -10 q 104 174 156 88 q 53 371 53 261 q 104 567 53 481 q 247 701 156 653 q 454 750 338 750 q 647 706 564 750 q 771 578 729 661 l 638 500 q 558 577 606 551 q 453 603 510 603 q 292 540 356 603 q 228 371 228 476 q 291 202 228 265 q 453 139 354 139 q 558 165 510 139 q 638 242 606 190 l 771 164 q 645 35 728 81 q 454 -10 563 -10 z "},"ć":{"ha":807,"x_min":53,"x_max":771,"o":"m 454 -10 q 247 39 339 -10 q 104 174 156 88 q 53 371 53 261 q 104 567 53 481 q 247 701 156 653 q 454 750 338 750 q 647 706 564 750 q 771 578 729 661 l 638 500 q 558 577 606 551 q 453 603 510 603 q 292 540 356 603 q 228 371 228 476 q 291 202 228 265 q 453 139 354 139 q 558 165 510 139 q 638 242 606 190 l 771 164 q 645 35 728 81 q 454 -10 563 -10 m 497 1033 l 701 1033 l 460 843 l 310 843 l 497 1033 z "},"č":{"ha":807,"x_min":53,"x_max":771,"o":"m 454 -10 q 247 39 339 -10 q 104 174 156 88 q 53 371 53 261 q 104 567 53 481 q 247 701 156 653 q 454 750 338 750 q 647 706 564 750 q 771 578 729 661 l 638 500 q 558 577 606 551 q 453 603 510 603 q 292 540 356 603 q 228 371 228 476 q 291 202 228 265 q 453 139 354 139 q 558 165 510 139 q 638 242 606 190 l 771 164 q 645 35 728 81 q 454 -10 563 -10 m 692 1033 l 506 843 l 347 843 l 161 1033 l 304 1033 l 426 931 l 549 1033 l 692 1033 z "},"ç":{"ha":807,"x_min":53,"x_max":771,"o":"m 454 -10 q 247 39 339 -10 q 104 174 156 88 q 53 371 53 261 q 104 567 53 481 q 247 701 156 653 q 454 750 338 750 q 647 706 564 750 q 771 578 729 661 l 638 500 q 558 577 606 551 q 453 603 510 603 q 292 540 356 603 q 228 371 228 476 q 291 202 228 265 q 453 139 354 139 q 558 165 510 139 q 638 242 606 190 l 771 164 q 645 35 728 81 q 454 -10 563 -10 m 382 -317 q 254 -287 307 -317 l 286 -206 q 381 -228 329 -228 q 454 -178 454 -228 q 436 -144 454 -157 q 381 -132 418 -132 l 338 -132 l 375 10 l 469 10 l 450 -68 q 540 -106 510 -75 q 571 -185 571 -137 q 519 -281 571 -244 q 382 -317 468 -317 z "},"ḉ":{"ha":807,"x_min":53,"x_max":771,"o":"m 454 -10 q 247 39 339 -10 q 104 174 156 88 q 53 371 53 261 q 104 567 53 481 q 247 701 156 653 q 454 750 338 750 q 647 706 564 750 q 771 578 729 661 l 638 500 q 558 577 606 551 q 453 603 510 603 q 292 540 356 603 q 228 371 228 476 q 291 202 228 265 q 453 139 354 139 q 558 165 510 139 q 638 242 606 190 l 771 164 q 645 35 728 81 q 454 -10 563 -10 m 382 -317 q 254 -287 307 -317 l 286 -206 q 381 -228 329 -228 q 454 -178 454 -228 q 436 -144 454 -157 q 381 -132 418 -132 l 338 -132 l 375 10 l 469 10 l 450 -68 q 540 -106 510 -75 q 571 -185 571 -137 q 519 -281 571 -244 q 382 -317 468 -317 m 497 1033 l 701 1033 l 460 843 l 310 843 l 497 1033 z "},"ĉ":{"ha":807,"x_min":53,"x_max":771,"o":"m 454 -10 q 247 39 339 -10 q 104 174 156 88 q 53 371 53 261 q 104 567 53 481 q 247 701 156 653 q 454 750 338 750 q 647 706 564 750 q 771 578 729 661 l 638 500 q 558 577 606 551 q 453 603 510 603 q 292 540 356 603 q 228 371 228 476 q 291 202 228 265 q 453 139 354 139 q 558 165 510 139 q 638 242 606 190 l 771 164 q 645 35 728 81 q 454 -10 563 -10 m 549 843 l 426 946 l 304 843 l 161 843 l 347 1033 l 506 1033 l 692 843 l 549 843 z "},"ċ":{"ha":807,"x_min":53,"x_max":771,"o":"m 454 -10 q 247 39 339 -10 q 104 174 156 88 q 53 371 53 261 q 104 567 53 481 q 247 701 156 653 q 454 750 338 750 q 647 706 564 750 q 771 578 729 661 l 638 500 q 558 577 606 551 q 453 603 510 603 q 292 540 356 603 q 228 371 228 476 q 291 202 228 265 q 453 139 354 139 q 558 165 510 139 q 638 242 606 190 l 771 164 q 645 35 728 81 q 454 -10 563 -10 m 426 860 q 356 888 383 860 q 328 958 328 915 q 356 1029 328 1001 q 426 1057 383 1057 q 497 1029 469 1057 q 525 958 525 1001 q 497 888 525 915 q 426 860 469 860 z "},"d":{"ha":954,"x_min":53,"x_max":840,"o":"m 840 1031 l 840 0 l 674 0 l 674 96 q 567 17 631 43 q 428 -10 504 -10 q 235 38 321 -10 q 101 172 150 85 q 53 371 53 258 q 101 569 53 483 q 235 703 150 656 q 428 750 321 750 q 563 725 501 750 q 667 650 624 700 l 667 1031 l 840 1031 m 449 139 q 561 167 511 139 q 640 249 611 196 q 669 371 669 301 q 640 493 669 440 q 561 574 611 546 q 449 603 511 603 q 336 574 386 603 q 257 493 286 546 q 228 371 228 440 q 257 249 228 301 q 336 167 286 196 q 449 139 386 139 z "},"ð":{"ha":900,"x_min":53,"x_max":849,"o":"m 733 856 q 849 476 849 714 q 797 215 849 325 q 647 45 744 104 q 414 -14 549 -14 q 229 25 311 -14 q 100 136 147 64 q 53 303 53 208 q 99 467 53 396 q 227 576 146 538 q 407 615 308 615 q 560 584 493 615 q 671 494 628 553 l 671 515 q 576 794 671 700 l 214 651 l 172 754 l 454 865 q 342 879 404 879 q 146 847 236 879 l 119 989 q 344 1019 225 1019 q 643 939 519 1019 l 767 988 l 807 885 l 733 856 m 426 128 q 537 151 489 128 q 610 215 585 175 q 636 300 636 254 q 578 424 636 375 q 432 474 521 474 q 283 426 339 474 q 228 300 228 379 q 283 175 228 222 q 426 128 338 128 z "},"ď":{"ha":954,"x_min":53,"x_max":1097,"o":"m 840 1031 l 840 0 l 674 0 l 674 96 q 567 17 631 43 q 428 -10 504 -10 q 235 38 321 -10 q 101 172 150 85 q 53 371 53 258 q 101 569 53 483 q 235 703 150 656 q 428 750 321 750 q 563 725 501 750 q 667 650 624 700 l 667 1031 l 840 1031 m 449 139 q 561 167 511 139 q 640 249 611 196 q 669 371 669 301 q 640 493 669 440 q 561 574 611 546 q 449 603 511 603 q 336 574 386 603 q 257 493 286 546 q 228 371 228 440 q 257 249 228 301 q 336 167 286 196 q 449 139 386 139 m 960 1082 l 1097 1082 l 1075 808 l 960 808 l 960 1082 z "},"đ":{"ha":954,"x_min":53,"x_max":954,"o":"m 840 1031 l 840 0 l 674 0 l 674 96 q 567 17 631 43 q 428 -10 504 -10 q 235 38 321 -10 q 101 172 150 85 q 53 371 53 258 q 101 569 53 483 q 235 703 150 656 q 428 750 321 750 q 563 725 501 750 q 667 650 624 700 l 667 1031 l 840 1031 m 449 139 q 561 167 511 139 q 640 249 611 196 q 669 371 669 301 q 640 493 669 440 q 561 574 611 546 q 449 603 511 603 q 336 574 386 603 q 257 493 286 546 q 228 371 228 440 q 257 249 228 301 q 336 167 286 196 q 449 139 386 139 m 393 942 l 954 942 l 954 828 l 393 828 l 393 942 z "},"ḍ":{"ha":954,"x_min":53,"x_max":840,"o":"m 840 1031 l 840 0 l 674 0 l 674 96 q 567 17 631 43 q 428 -10 504 -10 q 235 38 321 -10 q 101 172 150 85 q 53 371 53 258 q 101 569 53 483 q 235 703 150 656 q 428 750 321 750 q 563 725 501 750 q 667 650 624 700 l 667 1031 l 840 1031 m 449 139 q 561 167 511 139 q 640 249 611 196 q 669 371 669 301 q 640 493 669 440 q 561 574 611 546 q 449 603 511 603 q 336 574 386 603 q 257 493 286 546 q 228 371 228 440 q 257 249 228 301 q 336 167 286 196 q 449 139 386 139 m 492 -282 q 432 -260 456 -282 q 408 -200 408 -237 q 432 -140 408 -164 q 492 -115 456 -115 q 551 -140 528 -115 q 575 -200 575 -164 q 551 -260 575 -237 q 492 -282 528 -282 z "},"ḏ":{"ha":954,"x_min":53,"x_max":840,"o":"m 840 1031 l 840 0 l 674 0 l 674 96 q 567 17 631 43 q 428 -10 504 -10 q 235 38 321 -10 q 101 172 150 85 q 53 371 53 258 q 101 569 53 483 q 235 703 150 656 q 428 750 321 750 q 563 725 501 750 q 667 650 624 700 l 667 1031 l 840 1031 m 449 139 q 561 167 511 139 q 640 249 611 196 q 669 371 669 301 q 640 493 669 440 q 561 574 611 546 q 449 603 511 603 q 336 574 386 603 q 257 493 286 546 q 228 371 228 440 q 257 249 228 301 q 336 167 286 196 q 449 139 386 139 m 251 -144 l 732 -144 l 732 -247 l 251 -247 l 251 -144 z "},"ǆ":{"ha":1696,"x_min":53,"x_max":1639,"o":"m 840 1031 l 840 0 l 674 0 l 674 96 q 567 17 631 43 q 428 -10 504 -10 q 235 38 321 -10 q 101 172 150 85 q 53 371 53 258 q 101 569 53 483 q 235 703 150 656 q 428 750 321 750 q 563 725 501 750 q 667 650 624 700 l 667 1031 l 840 1031 m 449 139 q 561 167 511 139 q 640 249 611 196 q 669 371 669 301 q 640 493 669 440 q 561 574 611 546 q 449 603 511 603 q 336 574 386 603 q 257 493 286 546 q 228 371 228 440 q 257 249 228 301 q 336 167 286 196 q 449 139 386 139 m 1639 139 l 1639 0 l 999 0 l 999 110 l 1406 603 l 1007 603 l 1007 742 l 1628 742 l 1628 632 l 1219 139 l 1639 139 m 1583 1033 l 1397 843 l 1239 843 l 1053 1033 l 1196 1033 l 1318 931 l 1440 1033 l 1583 1033 z "},"e":{"ha":864,"x_min":53,"x_max":811,"o":"m 811 367 q 808 315 811 349 l 226 315 q 306 185 242 233 q 467 138 371 138 q 668 218 589 138 l 761 111 q 635 21 711 51 q 463 -10 558 -10 q 247 39 340 -10 q 103 174 154 88 q 53 371 53 261 q 102 566 53 479 q 239 701 151 653 q 436 750 326 750 q 630 702 544 750 q 763 567 715 654 q 811 367 811 481 m 436 611 q 295 562 353 611 q 225 431 238 513 l 646 431 q 578 561 635 511 q 436 611 521 611 z "},"é":{"ha":864,"x_min":53,"x_max":811,"o":"m 811 367 q 808 315 811 349 l 226 315 q 306 185 242 233 q 467 138 371 138 q 668 218 589 138 l 761 111 q 635 21 711 51 q 463 -10 558 -10 q 247 39 340 -10 q 103 174 154 88 q 53 371 53 261 q 102 566 53 479 q 239 701 151 653 q 436 750 326 750 q 630 702 544 750 q 763 567 715 654 q 811 367 811 481 m 436 611 q 295 562 353 611 q 225 431 238 513 l 646 431 q 578 561 635 511 q 436 611 521 611 m 503 1033 l 707 1033 l 465 843 l 315 843 l 503 1033 z "},"ĕ":{"ha":864,"x_min":53,"x_max":811,"o":"m 811 367 q 808 315 811 349 l 226 315 q 306 185 242 233 q 467 138 371 138 q 668 218 589 138 l 761 111 q 635 21 711 51 q 463 -10 558 -10 q 247 39 340 -10 q 103 174 154 88 q 53 371 53 261 q 102 566 53 479 q 239 701 151 653 q 436 750 326 750 q 630 702 544 750 q 763 567 715 654 q 811 367 811 481 m 436 611 q 295 562 353 611 q 225 431 238 513 l 646 431 q 578 561 635 511 q 436 611 521 611 m 432 833 q 263 888 331 833 q 192 1033 196 942 l 306 1033 q 343 958 307 986 q 432 929 379 929 q 521 958 485 929 q 558 1033 557 986 l 672 1033 q 601 888 668 942 q 432 833 533 833 z "},"ě":{"ha":864,"x_min":53,"x_max":811,"o":"m 811 367 q 808 315 811 349 l 226 315 q 306 185 242 233 q 467 138 371 138 q 668 218 589 138 l 761 111 q 635 21 711 51 q 463 -10 558 -10 q 247 39 340 -10 q 103 174 154 88 q 53 371 53 261 q 102 566 53 479 q 239 701 151 653 q 436 750 326 750 q 630 702 544 750 q 763 567 715 654 q 811 367 811 481 m 436 611 q 295 562 353 611 q 225 431 238 513 l 646 431 q 578 561 635 511 q 436 611 521 611 m 697 1033 l 511 843 l 353 843 l 167 1033 l 310 1033 l 432 931 l 554 1033 l 697 1033 z "},"ḝ":{"ha":864,"x_min":53,"x_max":811,"o":"m 811 367 q 808 315 811 349 l 226 315 q 306 185 242 233 q 467 138 371 138 q 668 218 589 138 l 761 111 q 635 21 711 51 q 463 -10 558 -10 q 247 39 340 -10 q 103 174 154 88 q 53 371 53 261 q 102 566 53 479 q 239 701 151 653 q 436 750 326 750 q 630 702 544 750 q 763 567 715 654 q 811 367 811 481 m 436 611 q 295 562 353 611 q 225 431 238 513 l 646 431 q 578 561 635 511 q 436 611 521 611 m 392 -317 q 264 -287 317 -317 l 296 -206 q 390 -228 339 -228 q 464 -178 464 -228 q 446 -144 464 -157 q 390 -132 428 -132 l 347 -132 l 385 10 l 479 10 l 460 -68 q 550 -106 519 -75 q 581 -185 581 -137 q 529 -281 581 -244 q 392 -317 478 -317 m 432 833 q 263 888 331 833 q 192 1033 196 942 l 306 1033 q 343 958 307 986 q 432 929 379 929 q 521 958 485 929 q 558 1033 557 986 l 672 1033 q 601 888 668 942 q 432 833 533 833 z "},"ê":{"ha":864,"x_min":53,"x_max":811,"o":"m 811 367 q 808 315 811 349 l 226 315 q 306 185 242 233 q 467 138 371 138 q 668 218 589 138 l 761 111 q 635 21 711 51 q 463 -10 558 -10 q 247 39 340 -10 q 103 174 154 88 q 53 371 53 261 q 102 566 53 479 q 239 701 151 653 q 436 750 326 750 q 630 702 544 750 q 763 567 715 654 q 811 367 811 481 m 436 611 q 295 562 353 611 q 225 431 238 513 l 646 431 q 578 561 635 511 q 436 611 521 611 m 554 843 l 432 946 l 310 843 l 167 843 l 353 1033 l 511 1033 l 697 843 l 554 843 z "},"ế":{"ha":864,"x_min":53,"x_max":928,"o":"m 811 367 q 808 315 811 349 l 226 315 q 306 185 242 233 q 467 138 371 138 q 668 218 589 138 l 761 111 q 635 21 711 51 q 463 -10 558 -10 q 247 39 340 -10 q 103 174 154 88 q 53 371 53 261 q 102 566 53 479 q 239 701 151 653 q 436 750 326 750 q 630 702 544 750 q 763 567 715 654 q 811 367 811 481 m 436 611 q 295 562 353 611 q 225 431 238 513 l 646 431 q 578 561 635 511 q 436 611 521 611 m 553 843 l 432 919 l 311 843 l 167 843 l 354 992 l 510 992 l 697 843 l 553 843 m 742 1133 l 928 1133 l 717 971 l 583 971 l 742 1133 z "},"ệ":{"ha":864,"x_min":53,"x_max":811,"o":"m 811 367 q 808 315 811 349 l 226 315 q 306 185 242 233 q 467 138 371 138 q 668 218 589 138 l 761 111 q 635 21 711 51 q 463 -10 558 -10 q 247 39 340 -10 q 103 174 154 88 q 53 371 53 261 q 102 566 53 479 q 239 701 151 653 q 436 750 326 750 q 630 702 544 750 q 763 567 715 654 q 811 367 811 481 m 436 611 q 295 562 353 611 q 225 431 238 513 l 646 431 q 578 561 635 511 q 436 611 521 611 m 432 -282 q 372 -260 396 -282 q 349 -200 349 -237 q 372 -140 349 -164 q 432 -115 396 -115 q 492 -140 468 -115 q 515 -200 515 -164 q 492 -260 515 -237 q 432 -282 468 -282 m 554 843 l 432 946 l 310 843 l 167 843 l 353 1033 l 511 1033 l 697 843 l 554 843 z "},"ề":{"ha":864,"x_min":53,"x_max":811,"o":"m 811 367 q 808 315 811 349 l 226 315 q 306 185 242 233 q 467 138 371 138 q 668 218 589 138 l 761 111 q 635 21 711 51 q 463 -10 558 -10 q 247 39 340 -10 q 103 174 154 88 q 53 371 53 261 q 102 566 53 479 q 239 701 151 653 q 436 750 326 750 q 630 702 544 750 q 763 567 715 654 q 811 367 811 481 m 436 611 q 295 562 353 611 q 225 431 238 513 l 646 431 q 578 561 635 511 q 436 611 521 611 m 553 843 l 432 919 l 311 843 l 167 843 l 354 992 l 510 992 l 697 843 l 553 843 m 454 1133 l 640 1133 l 799 971 l 665 971 l 454 1133 z "},"ể":{"ha":864,"x_min":53,"x_max":811,"o":"m 811 367 q 808 315 811 349 l 226 315 q 306 185 242 233 q 467 138 371 138 q 668 218 589 138 l 761 111 q 635 21 711 51 q 463 -10 558 -10 q 247 39 340 -10 q 103 174 154 88 q 53 371 53 261 q 102 566 53 479 q 239 701 151 653 q 436 750 326 750 q 630 702 544 750 q 763 567 715 654 q 811 367 811 481 m 436 611 q 295 562 353 611 q 225 431 238 513 l 646 431 q 578 561 635 511 q 436 611 521 611 m 553 843 l 432 919 l 311 843 l 167 843 l 354 992 l 510 992 l 697 843 l 553 843 m 611 992 q 665 1053 665 1018 q 651 1084 665 1072 q 615 1096 638 1096 q 554 1079 585 1096 l 524 1138 q 631 1167 567 1167 q 716 1138 685 1167 q 747 1063 747 1110 q 722 992 747 1022 q 656 944 697 961 l 611 992 z "},"ễ":{"ha":864,"x_min":53,"x_max":811,"o":"m 811 367 q 808 315 811 349 l 226 315 q 306 185 242 233 q 467 138 371 138 q 668 218 589 138 l 761 111 q 635 21 711 51 q 463 -10 558 -10 q 247 39 340 -10 q 103 174 154 88 q 53 371 53 261 q 102 566 53 479 q 239 701 151 653 q 436 750 326 750 q 630 702 544 750 q 763 567 715 654 q 811 367 811 481 m 436 611 q 295 562 353 611 q 225 431 238 513 l 646 431 q 578 561 635 511 q 436 611 521 611 m 553 843 l 432 919 l 311 843 l 167 843 l 354 992 l 510 992 l 697 843 l 553 843 m 533 1039 q 467 1051 496 1039 q 406 1086 439 1064 q 369 1107 383 1100 q 342 1114 356 1114 q 281 1047 283 1114 l 186 1047 q 227 1164 188 1122 q 333 1206 267 1206 q 396 1194 368 1206 q 456 1161 424 1182 q 495 1139 481 1146 q 525 1132 510 1132 q 568 1149 553 1132 q 586 1197 583 1167 l 678 1197 q 638 1081 676 1124 q 533 1039 599 1039 z "},"ȅ":{"ha":864,"x_min":53,"x_max":811,"o":"m 811 367 q 808 315 811 349 l 226 315 q 306 185 242 233 q 467 138 371 138 q 668 218 589 138 l 761 111 q 635 21 711 51 q 463 -10 558 -10 q 247 39 340 -10 q 103 174 154 88 q 53 371 53 261 q 102 566 53 479 q 239 701 151 653 q 436 750 326 750 q 630 702 544 750 q 763 567 715 654 q 811 367 811 481 m 436 611 q 295 562 353 611 q 225 431 238 513 l 646 431 q 578 561 635 511 q 436 611 521 611 m 85 1033 l 258 1033 l 369 843 l 233 843 l 85 1033 m 344 1033 l 518 1033 l 631 843 l 494 843 l 344 1033 z "},"ë":{"ha":864,"x_min":53,"x_max":811,"o":"m 811 367 q 808 315 811 349 l 226 315 q 306 185 242 233 q 467 138 371 138 q 668 218 589 138 l 761 111 q 635 21 711 51 q 463 -10 558 -10 q 247 39 340 -10 q 103 174 154 88 q 53 371 53 261 q 102 566 53 479 q 239 701 151 653 q 436 750 326 750 q 630 702 544 750 q 763 567 715 654 q 811 367 811 481 m 436 611 q 295 562 353 611 q 225 431 238 513 l 646 431 q 578 561 635 511 q 436 611 521 611 m 297 858 q 238 882 261 858 q 214 942 214 906 q 238 1003 214 979 q 297 1026 261 1026 q 357 1003 333 1026 q 381 942 381 979 q 357 882 381 906 q 297 858 333 858 m 567 858 q 507 882 531 858 q 483 942 483 906 q 507 1003 483 979 q 567 1026 531 1026 q 626 1003 603 1026 q 650 942 650 979 q 626 882 650 906 q 567 858 603 858 z "},"ė":{"ha":864,"x_min":53,"x_max":811,"o":"m 811 367 q 808 315 811 349 l 226 315 q 306 185 242 233 q 467 138 371 138 q 668 218 589 138 l 761 111 q 635 21 711 51 q 463 -10 558 -10 q 247 39 340 -10 q 103 174 154 88 q 53 371 53 261 q 102 566 53 479 q 239 701 151 653 q 436 750 326 750 q 630 702 544 750 q 763 567 715 654 q 811 367 811 481 m 436 611 q 295 562 353 611 q 225 431 238 513 l 646 431 q 578 561 635 511 q 436 611 521 611 m 432 860 q 361 888 389 860 q 333 958 333 915 q 361 1029 333 1001 q 432 1057 389 1057 q 503 1029 475 1057 q 531 958 531 1001 q 503 888 531 915 q 432 860 475 860 z "},"ẹ":{"ha":864,"x_min":53,"x_max":811,"o":"m 811 367 q 808 315 811 349 l 226 315 q 306 185 242 233 q 467 138 371 138 q 668 218 589 138 l 761 111 q 635 21 711 51 q 463 -10 558 -10 q 247 39 340 -10 q 103 174 154 88 q 53 371 53 261 q 102 566 53 479 q 239 701 151 653 q 436 750 326 750 q 630 702 544 750 q 763 567 715 654 q 811 367 811 481 m 436 611 q 295 562 353 611 q 225 431 238 513 l 646 431 q 578 561 635 511 q 436 611 521 611 m 432 -282 q 372 -260 396 -282 q 349 -200 349 -237 q 372 -140 349 -164 q 432 -115 396 -115 q 492 -140 468 -115 q 515 -200 515 -164 q 492 -260 515 -237 q 432 -282 468 -282 z "},"è":{"ha":864,"x_min":53,"x_max":811,"o":"m 811 367 q 808 315 811 349 l 226 315 q 306 185 242 233 q 467 138 371 138 q 668 218 589 138 l 761 111 q 635 21 711 51 q 463 -10 558 -10 q 247 39 340 -10 q 103 174 154 88 q 53 371 53 261 q 102 566 53 479 q 239 701 151 653 q 436 750 326 750 q 630 702 544 750 q 763 567 715 654 q 811 367 811 481 m 436 611 q 295 562 353 611 q 225 431 238 513 l 646 431 q 578 561 635 511 q 436 611 521 611 m 157 1033 l 361 1033 l 549 843 l 399 843 l 157 1033 z "},"ẻ":{"ha":864,"x_min":53,"x_max":811,"o":"m 811 367 q 808 315 811 349 l 226 315 q 306 185 242 233 q 467 138 371 138 q 668 218 589 138 l 761 111 q 635 21 711 51 q 463 -10 558 -10 q 247 39 340 -10 q 103 174 154 88 q 53 371 53 261 q 102 566 53 479 q 239 701 151 653 q 436 750 326 750 q 630 702 544 750 q 763 567 715 654 q 811 367 811 481 m 436 611 q 295 562 353 611 q 225 431 238 513 l 646 431 q 578 561 635 511 q 436 611 521 611 m 410 893 q 467 933 450 911 q 485 982 485 954 q 465 1026 485 1008 q 415 1043 446 1043 q 332 1017 372 1043 l 294 1093 q 358 1125 322 1114 q 433 1136 394 1136 q 543 1098 500 1136 q 586 997 586 1060 q 467 829 586 885 l 410 893 z "},"ȇ":{"ha":864,"x_min":53,"x_max":811,"o":"m 811 367 q 808 315 811 349 l 226 315 q 306 185 242 233 q 467 138 371 138 q 668 218 589 138 l 761 111 q 635 21 711 51 q 463 -10 558 -10 q 247 39 340 -10 q 103 174 154 88 q 53 371 53 261 q 102 566 53 479 q 239 701 151 653 q 436 750 326 750 q 630 702 544 750 q 763 567 715 654 q 811 367 811 481 m 436 611 q 295 562 353 611 q 225 431 238 513 l 646 431 q 578 561 635 511 q 436 611 521 611 m 192 843 q 263 989 196 935 q 432 1043 331 1043 q 601 989 533 1043 q 672 843 668 935 l 558 843 q 521 920 557 892 q 432 949 485 949 q 343 920 379 949 q 306 843 307 892 l 192 843 z "},"ē":{"ha":864,"x_min":53,"x_max":811,"o":"m 811 367 q 808 315 811 349 l 226 315 q 306 185 242 233 q 467 138 371 138 q 668 218 589 138 l 761 111 q 635 21 711 51 q 463 -10 558 -10 q 247 39 340 -10 q 103 174 154 88 q 53 371 53 261 q 102 566 53 479 q 239 701 151 653 q 436 750 326 750 q 630 702 544 750 q 763 567 715 654 q 811 367 811 481 m 436 611 q 295 562 353 611 q 225 431 238 513 l 646 431 q 578 561 635 511 q 436 611 521 611 m 192 990 l 672 990 l 672 886 l 192 886 l 192 990 z "},"ḗ":{"ha":864,"x_min":53,"x_max":811,"o":"m 811 367 q 808 315 811 349 l 226 315 q 306 185 242 233 q 467 138 371 138 q 668 218 589 138 l 761 111 q 635 21 711 51 q 463 -10 558 -10 q 247 39 340 -10 q 103 174 154 88 q 53 371 53 261 q 102 566 53 479 q 239 701 151 653 q 436 750 326 750 q 630 702 544 750 q 763 567 715 654 q 811 367 811 481 m 436 611 q 295 562 353 611 q 225 431 238 513 l 646 431 q 578 561 635 511 q 436 611 521 611 m 192 967 l 672 967 l 672 869 l 192 869 l 192 967 m 483 1217 l 669 1217 l 458 1054 l 325 1054 l 483 1217 z "},"ḕ":{"ha":864,"x_min":53,"x_max":811,"o":"m 811 367 q 808 315 811 349 l 226 315 q 306 185 242 233 q 467 138 371 138 q 668 218 589 138 l 761 111 q 635 21 711 51 q 463 -10 558 -10 q 247 39 340 -10 q 103 174 154 88 q 53 371 53 261 q 102 566 53 479 q 239 701 151 653 q 436 750 326 750 q 630 702 544 750 q 763 567 715 654 q 811 367 811 481 m 436 611 q 295 562 353 611 q 225 431 238 513 l 646 431 q 578 561 635 511 q 436 611 521 611 m 192 967 l 672 967 l 672 869 l 192 869 l 192 967 m 196 1217 l 382 1217 l 540 1054 l 407 1054 l 196 1217 z "},"ę":{"ha":864,"x_min":53,"x_max":811,"o":"m 811 367 q 808 315 811 349 l 226 315 q 306 185 242 233 q 467 138 371 138 q 668 218 589 138 l 761 111 q 707 61 738 83 q 586 -56 621 -7 q 551 -149 551 -106 q 574 -203 551 -185 q 633 -222 596 -222 q 678 -216 656 -222 q 718 -200 701 -210 l 747 -285 q 685 -308 721 -300 q 614 -317 650 -317 q 483 -275 531 -317 q 435 -162 435 -233 q 451 -83 435 -124 q 500 -8 468 -43 q 463 -10 488 -10 q 247 39 340 -10 q 103 174 154 88 q 53 371 53 261 q 102 566 53 479 q 239 701 151 653 q 436 750 326 750 q 630 702 544 750 q 763 567 715 654 q 811 367 811 481 m 436 611 q 295 562 353 611 q 225 431 238 513 l 646 431 q 578 561 635 511 q 436 611 521 611 z "},"ẽ":{"ha":864,"x_min":53,"x_max":811,"o":"m 811 367 q 808 315 811 349 l 226 315 q 306 185 242 233 q 467 138 371 138 q 668 218 589 138 l 761 111 q 635 21 711 51 q 463 -10 558 -10 q 247 39 340 -10 q 103 174 154 88 q 53 371 53 261 q 102 566 53 479 q 239 701 151 653 q 436 750 326 750 q 630 702 544 750 q 763 567 715 654 q 811 367 811 481 m 436 611 q 295 562 353 611 q 225 431 238 513 l 646 431 q 578 561 635 511 q 436 611 521 611 m 532 843 q 472 857 497 843 q 408 899 446 871 q 372 926 386 917 q 343 935 357 935 q 295 913 314 935 q 275 851 276 890 l 182 851 q 224 987 183 936 q 332 1038 265 1038 q 392 1024 367 1038 q 456 982 418 1010 q 492 955 478 964 q 521 946 507 946 q 569 967 550 946 q 589 1025 588 988 l 682 1025 q 639 893 679 943 q 532 843 599 843 z "},"ə":{"ha":864,"x_min":53,"x_max":811,"o":"m 53 375 q 56 426 53 393 l 638 426 q 558 556 622 508 q 397 604 493 604 q 196 524 275 604 l 103 631 q 229 721 153 690 q 401 751 306 751 q 617 703 524 751 q 760 567 710 654 q 811 371 811 481 q 762 176 811 263 q 625 40 713 89 q 428 -8 538 -8 q 234 40 319 -8 q 101 174 149 88 q 53 375 53 261 m 428 131 q 569 180 511 131 q 639 311 626 229 l 218 311 q 286 181 229 231 q 428 131 343 131 z "},"ʒ":{"ha":751,"x_min":-26,"x_max":711,"o":"m 425 324 q 638 231 564 308 q 711 35 711 154 q 669 -124 711 -53 q 541 -237 626 -196 q 331 -279 456 -279 q 130 -249 225 -279 q -26 -165 35 -218 l 38 -22 q 165 -97 89 -69 q 324 -124 240 -124 q 478 -82 424 -124 q 532 35 532 -40 q 480 149 532 108 q 321 190 428 190 l 231 190 l 231 311 l 460 592 l 11 592 l 11 742 l 667 742 l 667 619 l 425 324 z "},"ǯ":{"ha":751,"x_min":-26,"x_max":711,"o":"m 425 324 q 638 231 564 308 q 711 35 711 154 q 669 -124 711 -53 q 541 -237 626 -196 q 331 -279 456 -279 q 130 -249 225 -279 q -26 -165 35 -218 l 38 -22 q 165 -97 89 -69 q 324 -124 240 -124 q 478 -82 424 -124 q 532 35 532 -40 q 480 149 532 108 q 321 190 428 190 l 231 190 l 231 311 l 460 592 l 11 592 l 11 742 l 667 742 l 667 619 l 425 324 m 590 1033 l 404 843 l 246 843 l 60 1033 l 203 1033 l 325 931 l 447 1033 l 590 1033 z "},"f":{"ha":513,"x_min":15,"x_max":560,"o":"m 415 900 q 306 781 306 900 l 306 736 l 510 736 l 510 597 l 311 597 l 311 0 l 138 0 l 138 597 l 15 597 l 15 736 l 138 736 l 138 783 q 207 972 138 903 q 403 1040 276 1040 q 560 1000 503 1040 l 511 869 q 415 900 467 900 z "},"g":{"ha":964,"x_min":53,"x_max":850,"o":"m 850 742 l 850 113 q 450 -279 850 -279 q 247 -252 343 -279 q 89 -174 151 -225 l 167 -43 q 290 -108 215 -83 q 440 -132 364 -132 q 619 -76 563 -132 q 676 93 676 -21 l 676 132 q 568 58 632 83 q 428 33 504 33 q 237 78 322 33 q 102 206 151 124 q 53 393 53 288 q 102 580 53 499 q 237 706 151 661 q 428 750 322 750 q 574 724 508 750 q 685 643 640 697 l 685 742 l 850 742 m 454 181 q 616 240 553 181 q 679 393 679 299 q 616 544 679 486 q 454 603 553 603 q 291 544 354 603 q 228 393 228 486 q 291 240 228 299 q 454 181 354 181 z "},"ğ":{"ha":964,"x_min":53,"x_max":850,"o":"m 850 742 l 850 113 q 450 -279 850 -279 q 247 -252 343 -279 q 89 -174 151 -225 l 167 -43 q 290 -108 215 -83 q 440 -132 364 -132 q 619 -76 563 -132 q 676 93 676 -21 l 676 132 q 568 58 632 83 q 428 33 504 33 q 237 78 322 33 q 102 206 151 124 q 53 393 53 288 q 102 580 53 499 q 237 706 151 661 q 428 750 322 750 q 574 724 508 750 q 685 643 640 697 l 685 742 l 850 742 m 454 181 q 616 240 553 181 q 679 393 679 299 q 616 544 679 486 q 454 603 553 603 q 291 544 354 603 q 228 393 228 486 q 291 240 228 299 q 454 181 354 181 m 465 833 q 297 888 364 833 q 225 1033 229 942 l 339 1033 q 376 958 340 986 q 465 929 413 929 q 554 958 518 929 q 592 1033 590 986 l 706 1033 q 634 888 701 942 q 465 833 567 833 z "},"ǧ":{"ha":964,"x_min":53,"x_max":850,"o":"m 850 742 l 850 113 q 450 -279 850 -279 q 247 -252 343 -279 q 89 -174 151 -225 l 167 -43 q 290 -108 215 -83 q 440 -132 364 -132 q 619 -76 563 -132 q 676 93 676 -21 l 676 132 q 568 58 632 83 q 428 33 504 33 q 237 78 322 33 q 102 206 151 124 q 53 393 53 288 q 102 580 53 499 q 237 706 151 661 q 428 750 322 750 q 574 724 508 750 q 685 643 640 697 l 685 742 l 850 742 m 454 181 q 616 240 553 181 q 679 393 679 299 q 616 544 679 486 q 454 603 553 603 q 291 544 354 603 q 228 393 228 486 q 291 240 228 299 q 454 181 354 181 m 731 1033 l 544 843 l 386 843 l 200 1033 l 343 1033 l 465 931 l 588 1033 l 731 1033 z "},"ĝ":{"ha":964,"x_min":53,"x_max":850,"o":"m 850 742 l 850 113 q 450 -279 850 -279 q 247 -252 343 -279 q 89 -174 151 -225 l 167 -43 q 290 -108 215 -83 q 440 -132 364 -132 q 619 -76 563 -132 q 676 93 676 -21 l 676 132 q 568 58 632 83 q 428 33 504 33 q 237 78 322 33 q 102 206 151 124 q 53 393 53 288 q 102 580 53 499 q 237 706 151 661 q 428 750 322 750 q 574 724 508 750 q 685 643 640 697 l 685 742 l 850 742 m 454 181 q 616 240 553 181 q 679 393 679 299 q 616 544 679 486 q 454 603 553 603 q 291 544 354 603 q 228 393 228 486 q 291 240 228 299 q 454 181 354 181 m 588 843 l 465 946 l 343 843 l 200 843 l 386 1033 l 544 1033 l 731 843 l 588 843 z "},"ģ":{"ha":964,"x_min":53,"x_max":850,"o":"m 850 742 l 850 113 q 450 -279 850 -279 q 247 -252 343 -279 q 89 -174 151 -225 l 167 -43 q 290 -108 215 -83 q 440 -132 364 -132 q 619 -76 563 -132 q 676 93 676 -21 l 676 132 q 568 58 632 83 q 428 33 504 33 q 237 78 322 33 q 102 206 151 124 q 53 393 53 288 q 102 580 53 499 q 237 706 151 661 q 428 750 322 750 q 574 724 508 750 q 685 643 640 697 l 685 742 l 850 742 m 454 181 q 616 240 553 181 q 679 393 679 299 q 616 544 679 486 q 454 603 553 603 q 291 544 354 603 q 228 393 228 486 q 291 240 228 299 q 454 181 354 181 m 506 974 q 558 907 558 958 q 534 853 558 874 q 465 833 510 833 q 397 854 421 833 q 372 907 372 875 q 397 986 372 940 l 454 1114 l 550 1114 l 506 974 z "},"ġ":{"ha":964,"x_min":53,"x_max":850,"o":"m 850 742 l 850 113 q 450 -279 850 -279 q 247 -252 343 -279 q 89 -174 151 -225 l 167 -43 q 290 -108 215 -83 q 440 -132 364 -132 q 619 -76 563 -132 q 676 93 676 -21 l 676 132 q 568 58 632 83 q 428 33 504 33 q 237 78 322 33 q 102 206 151 124 q 53 393 53 288 q 102 580 53 499 q 237 706 151 661 q 428 750 322 750 q 574 724 508 750 q 685 643 640 697 l 685 742 l 850 742 m 454 181 q 616 240 553 181 q 679 393 679 299 q 616 544 679 486 q 454 603 553 603 q 291 544 354 603 q 228 393 228 486 q 291 240 228 299 q 454 181 354 181 m 465 860 q 394 888 422 860 q 367 958 367 915 q 394 1029 367 1001 q 465 1057 422 1057 q 536 1029 508 1057 q 564 958 564 1001 q 536 888 564 915 q 465 860 508 860 z "},"ḡ":{"ha":964,"x_min":53,"x_max":850,"o":"m 850 742 l 850 113 q 450 -279 850 -279 q 247 -252 343 -279 q 89 -174 151 -225 l 167 -43 q 290 -108 215 -83 q 440 -132 364 -132 q 619 -76 563 -132 q 676 93 676 -21 l 676 132 q 568 58 632 83 q 428 33 504 33 q 237 78 322 33 q 102 206 151 124 q 53 393 53 288 q 102 580 53 499 q 237 706 151 661 q 428 750 322 750 q 574 724 508 750 q 685 643 640 697 l 685 742 l 850 742 m 454 181 q 616 240 553 181 q 679 393 679 299 q 616 544 679 486 q 454 603 553 603 q 291 544 354 603 q 228 393 228 486 q 291 240 228 299 q 454 181 354 181 m 225 990 l 706 990 l 706 886 l 225 886 l 225 990 z "},"ǥ":{"ha":978,"x_min":53,"x_max":939,"o":"m 939 -69 l 821 -69 q 449 -279 743 -279 q 247 -252 343 -279 q 89 -174 150 -225 l 167 -44 q 290 -110 217 -86 q 440 -135 364 -135 q 628 -69 569 -135 l 388 -69 l 388 35 l 672 36 q 676 90 676 61 l 676 169 q 567 99 632 122 q 426 75 503 75 q 235 118 319 75 q 101 238 150 161 q 53 414 53 315 q 101 589 53 513 q 235 708 150 665 q 426 750 319 750 q 574 724 507 750 q 685 647 640 699 l 685 742 l 850 742 l 850 113 q 846 36 850 72 l 939 36 l 939 -69 m 454 213 q 617 268 554 213 q 679 414 679 324 q 617 558 679 503 q 454 614 554 614 q 291 558 354 614 q 228 414 228 503 q 291 268 228 324 q 454 213 354 213 z "},"h":{"ha":951,"x_min":114,"x_max":844,"o":"m 535 750 q 760 668 675 750 q 844 425 844 586 l 844 0 l 671 0 l 671 403 q 625 549 671 500 q 494 599 579 599 q 343 541 399 599 q 288 375 288 483 l 288 0 l 114 0 l 114 1031 l 288 1031 l 288 656 q 394 726 331 701 q 535 750 457 750 z "},"ħ":{"ha":951,"x_min":0,"x_max":844,"o":"m 535 750 q 760 668 675 750 q 844 425 844 586 l 844 0 l 671 0 l 671 403 q 625 549 671 500 q 494 599 579 599 q 343 541 399 599 q 288 375 288 483 l 288 0 l 114 0 l 114 1031 l 288 1031 l 288 656 q 394 726 331 701 q 535 750 457 750 m 0 942 l 561 942 l 561 828 l 0 828 l 0 942 z "},"ḫ":{"ha":951,"x_min":114,"x_max":844,"o":"m 535 750 q 760 668 675 750 q 844 425 844 586 l 844 0 l 671 0 l 671 403 q 625 549 671 500 q 494 599 579 599 q 343 541 399 599 q 288 375 288 483 l 288 0 l 114 0 l 114 1031 l 288 1031 l 288 656 q 394 726 331 701 q 535 750 457 750 m 479 -296 q 310 -244 378 -296 q 239 -107 243 -192 l 347 -107 q 385 -178 347 -151 q 479 -206 422 -206 q 574 -178 536 -206 q 611 -107 611 -151 l 719 -107 q 648 -244 715 -192 q 479 -296 581 -296 z "},"ȟ":{"ha":951,"x_min":-64,"x_max":844,"o":"m 535 750 q 760 668 675 750 q 844 425 844 586 l 844 0 l 671 0 l 671 403 q 625 549 671 500 q 494 599 579 599 q 343 541 399 599 q 288 375 288 483 l 288 0 l 114 0 l 114 1031 l 288 1031 l 288 656 q 394 726 331 701 q 535 750 457 750 m 467 1322 l 281 1132 l 122 1132 l -64 1322 l 79 1322 l 201 1219 l 324 1322 l 467 1322 z "},"ĥ":{"ha":951,"x_min":-64,"x_max":844,"o":"m 535 750 q 760 668 675 750 q 844 425 844 586 l 844 0 l 671 0 l 671 403 q 625 549 671 500 q 494 599 579 599 q 343 541 399 599 q 288 375 288 483 l 288 0 l 114 0 l 114 1031 l 288 1031 l 288 656 q 394 726 331 701 q 535 750 457 750 m 324 1110 l 201 1213 l 79 1110 l -64 1110 l 122 1300 l 281 1300 l 467 1110 l 324 1110 z "},"ḥ":{"ha":951,"x_min":114,"x_max":844,"o":"m 535 750 q 760 668 675 750 q 844 425 844 586 l 844 0 l 671 0 l 671 403 q 625 549 671 500 q 494 599 579 599 q 343 541 399 599 q 288 375 288 483 l 288 0 l 114 0 l 114 1031 l 288 1031 l 288 656 q 394 726 331 701 q 535 750 457 750 m 479 -282 q 419 -260 443 -282 q 396 -200 396 -237 q 419 -140 396 -164 q 479 -115 443 -115 q 539 -140 515 -115 q 563 -200 563 -164 q 539 -260 563 -237 q 479 -282 515 -282 z "},"i":{"ha":401,"x_min":90,"x_max":313,"o":"m 114 742 l 288 742 l 288 0 l 114 0 l 114 742 m 201 864 q 122 894 154 864 q 90 968 90 924 q 122 1042 90 1013 q 201 1072 154 1072 q 281 1044 249 1072 q 313 972 313 1015 q 281 895 313 926 q 201 864 250 864 z "},"ı":{"ha":401,"x_min":114,"x_max":288,"o":"m 114 742 l 288 742 l 288 0 l 114 0 l 114 742 z "},"í":{"ha":401,"x_min":85,"x_max":476,"o":"m 114 742 l 288 742 l 288 0 l 114 0 l 114 742 m 272 1033 l 476 1033 l 235 843 l 85 843 l 272 1033 z "},"ĭ":{"ha":401,"x_min":-4,"x_max":407,"o":"m 114 742 l 288 742 l 288 0 l 114 0 l 114 742 m 201 833 q 55 888 113 833 q -4 1033 -3 942 l 103 1033 q 129 956 103 985 q 201 928 156 928 q 274 956 247 928 q 300 1033 300 985 l 407 1033 q 348 888 406 942 q 201 833 290 833 z "},"î":{"ha":401,"x_min":-29,"x_max":432,"o":"m 114 742 l 288 742 l 288 0 l 114 0 l 114 742 m 296 843 l 201 940 l 107 843 l -29 843 l 124 1033 l 279 1033 l 432 843 l 296 843 z "},"ȉ":{"ha":401,"x_min":-146,"x_max":400,"o":"m 114 742 l 288 742 l 288 0 l 114 0 l 114 742 m -146 1033 l 28 1033 l 139 843 l 3 843 l -146 1033 m 114 1033 l 288 1033 l 400 843 l 264 843 l 114 1033 z "},"ï":{"ha":401,"x_min":15,"x_max":388,"o":"m 114 742 l 288 742 l 288 0 l 114 0 l 114 742 m 96 860 q 38 883 61 860 q 15 942 15 906 q 38 1001 15 978 q 96 1025 61 1025 q 152 1001 129 1025 q 175 942 175 978 q 152 883 175 907 q 96 860 129 860 m 308 860 q 251 883 274 860 q 228 942 228 907 q 251 1001 228 978 q 308 1025 274 1025 q 365 1001 343 1025 q 388 942 388 978 q 365 883 388 906 q 308 860 343 860 z "},"ḯ":{"ha":401,"x_min":-10,"x_max":439,"o":"m 114 742 l 288 742 l 288 0 l 114 0 l 114 742 m 71 858 q 14 881 38 858 q -10 939 -10 904 q 14 997 -10 974 q 71 1019 38 1019 q 128 997 106 1019 q 151 939 151 974 q 128 881 151 904 q 71 858 106 858 m 333 858 q 276 881 300 858 q 253 939 253 904 q 276 997 253 974 q 333 1019 300 1019 q 390 996 367 1019 q 414 939 414 972 q 390 881 414 904 q 333 858 367 858 m 253 1217 l 439 1217 l 228 1054 l 94 1054 l 253 1217 z "},"ị":{"ha":401,"x_min":90,"x_max":313,"o":"m 114 742 l 288 742 l 288 0 l 114 0 l 114 742 m 201 864 q 122 894 154 864 q 90 968 90 924 q 122 1042 90 1013 q 201 1072 154 1072 q 281 1044 249 1072 q 313 972 313 1015 q 281 895 313 926 q 201 864 250 864 m 201 -282 q 142 -260 165 -282 q 118 -200 118 -237 q 142 -140 118 -164 q 201 -115 165 -115 q 261 -140 238 -115 q 285 -200 285 -164 q 261 -260 285 -237 q 201 -282 238 -282 z "},"ì":{"ha":401,"x_min":-74,"x_max":318,"o":"m 114 742 l 288 742 l 288 0 l 114 0 l 114 742 m -74 1033 l 131 1033 l 318 843 l 168 843 l -74 1033 z "},"ỉ":{"ha":401,"x_min":64,"x_max":356,"o":"m 114 742 l 288 742 l 288 0 l 114 0 l 114 742 m 179 893 q 237 933 219 911 q 254 982 254 954 q 235 1026 254 1008 q 185 1043 215 1043 q 101 1017 142 1043 l 64 1093 q 128 1125 92 1114 q 203 1136 164 1136 q 313 1098 269 1136 q 356 997 356 1060 q 236 829 356 885 l 179 893 z "},"ȋ":{"ha":401,"x_min":-4,"x_max":407,"o":"m 114 742 l 288 742 l 288 0 l 114 0 l 114 742 m -4 843 q 55 989 -3 935 q 201 1043 113 1043 q 348 989 290 1043 q 407 843 406 935 l 300 843 q 274 920 300 892 q 201 949 247 949 q 129 920 156 949 q 103 843 103 892 l -4 843 z "},"ĳ":{"ha":811,"x_min":90,"x_max":721,"o":"m 114 742 l 288 742 l 288 0 l 114 0 l 114 742 m 201 864 q 122 894 154 864 q 90 968 90 924 q 122 1042 90 1013 q 201 1072 154 1072 q 281 1044 249 1072 q 313 972 313 1015 q 281 895 313 926 q 201 864 250 864 m 439 -279 q 272 -236 329 -279 l 322 -107 q 424 -136 361 -136 q 498 -106 472 -136 q 524 -18 524 -76 l 524 742 l 697 742 l 697 -14 q 629 -208 697 -137 q 439 -279 561 -279 m 610 864 q 531 894 563 864 q 499 968 499 924 q 531 1042 499 1013 q 610 1072 563 1072 q 689 1044 657 1072 q 721 972 721 1015 q 690 895 721 926 q 610 864 658 864 z "},"ī":{"ha":401,"x_min":6,"x_max":397,"o":"m 114 742 l 288 742 l 288 0 l 114 0 l 114 742 m 6 990 l 397 990 l 397 886 l 6 886 l 6 990 z "},"į":{"ha":401,"x_min":86,"x_max":335,"o":"m 114 742 l 288 742 l 288 0 l 114 0 l 114 742 m 201 864 q 122 894 154 864 q 90 968 90 924 q 122 1042 90 1013 q 201 1072 154 1072 q 281 1044 249 1072 q 313 972 313 1015 q 281 895 313 926 q 201 864 250 864 m 239 -317 q 128 -277 169 -317 q 86 -172 86 -237 q 228 50 86 -44 l 288 0 q 220 -80 239 -43 q 201 -154 201 -117 q 219 -203 201 -185 q 263 -222 236 -222 q 308 -208 286 -222 l 335 -289 q 239 -317 299 -317 z "},"ĩ":{"ha":401,"x_min":-12,"x_max":415,"o":"m 114 742 l 288 742 l 288 0 l 114 0 l 114 742 m 289 843 q 231 858 256 843 q 176 901 206 874 q 147 926 158 918 q 124 935 135 935 q 90 913 101 935 q 79 851 79 892 l -12 851 q 21 990 -12 942 q 114 1038 54 1038 q 172 1022 147 1038 q 226 979 197 1007 q 256 954 244 963 q 279 946 268 946 q 313 967 301 946 q 324 1025 324 988 l 415 1025 q 382 890 415 938 q 289 843 349 843 z "},"j":{"ha":410,"x_min":-129,"x_max":319,"o":"m 38 -279 q -129 -236 -72 -279 l -79 -107 q 22 -136 -40 -136 q 97 -106 71 -136 q 122 -18 122 -76 l 122 742 l 296 742 l 296 -14 q 228 -208 296 -137 q 38 -279 160 -279 m 208 864 q 129 894 161 864 q 97 968 97 924 q 129 1042 97 1013 q 208 1072 161 1072 q 288 1044 256 1072 q 319 972 319 1015 q 288 895 319 926 q 208 864 257 864 z "},"ȷ":{"ha":410,"x_min":-129,"x_max":296,"o":"m 38 -279 q -129 -236 -72 -279 l -79 -107 q 22 -136 -40 -136 q 97 -106 71 -136 q 122 -18 122 -76 l 122 742 l 296 742 l 296 -14 q 228 -208 296 -137 q 38 -279 160 -279 z "},"ĵ":{"ha":410,"x_min":-129,"x_max":439,"o":"m 38 -279 q -129 -236 -72 -279 l -79 -107 q 22 -136 -40 -136 q 97 -106 71 -136 q 122 -18 122 -76 l 122 742 l 296 742 l 296 -14 q 228 -208 296 -137 q 38 -279 160 -279 m 303 843 l 208 940 l 114 843 l -22 843 l 131 1033 l 286 1033 l 439 843 l 303 843 z "},"k":{"ha":883,"x_min":114,"x_max":885,"o":"m 417 318 l 288 196 l 288 0 l 114 0 l 114 1031 l 288 1031 l 288 408 l 647 742 l 856 742 l 546 431 l 885 0 l 674 0 l 417 318 z "},"ǩ":{"ha":883,"x_min":-64,"x_max":885,"o":"m 417 318 l 288 196 l 288 0 l 114 0 l 114 1031 l 288 1031 l 288 408 l 647 742 l 856 742 l 546 431 l 885 0 l 674 0 l 417 318 m 467 1322 l 281 1132 l 122 1132 l -64 1322 l 79 1322 l 201 1219 l 324 1322 l 467 1322 z "},"ķ":{"ha":883,"x_min":114,"x_max":885,"o":"m 417 318 l 288 196 l 288 0 l 114 0 l 114 1031 l 288 1031 l 288 408 l 647 742 l 856 742 l 546 431 l 885 0 l 674 0 l 417 318 m 438 -115 q 498 -136 475 -115 q 521 -189 521 -157 q 499 -271 521 -228 l 454 -368 l 369 -368 l 403 -256 q 354 -189 354 -240 q 377 -135 354 -156 q 438 -115 400 -115 z "},"ĸ":{"ha":868,"x_min":114,"x_max":885,"o":"m 417 318 l 288 196 l 288 0 l 114 0 l 114 742 l 288 742 l 288 408 l 647 742 l 856 742 l 546 431 l 885 0 l 674 0 l 417 318 z "},"l":{"ha":401,"x_min":114,"x_max":288,"o":"m 114 1031 l 288 1031 l 288 0 l 114 0 l 114 1031 z "},"ĺ":{"ha":401,"x_min":85,"x_max":476,"o":"m 114 1031 l 288 1031 l 288 0 l 114 0 l 114 1031 m 272 1322 l 476 1322 l 235 1132 l 85 1132 l 272 1322 z "},"ľ":{"ha":401,"x_min":114,"x_max":542,"o":"m 114 1031 l 288 1031 l 288 0 l 114 0 l 114 1031 m 404 1082 l 542 1082 l 519 808 l 404 808 l 404 1082 z "},"ļ":{"ha":401,"x_min":114,"x_max":288,"o":"m 114 1031 l 288 1031 l 288 0 l 114 0 l 114 1031 m 201 -115 q 262 -136 239 -115 q 285 -189 285 -157 q 263 -271 285 -228 l 218 -368 l 133 -368 l 167 -256 q 118 -189 118 -240 q 141 -135 118 -156 q 201 -115 164 -115 z "},"ŀ":{"ha":529,"x_min":114,"x_max":561,"o":"m 114 1031 l 288 1031 l 288 0 l 114 0 l 114 1031 m 465 406 q 398 433 425 406 q 371 500 371 460 q 398 567 371 540 q 465 594 425 594 q 534 567 507 594 q 561 500 561 540 q 534 433 561 460 q 465 406 507 406 z "},"ḷ":{"ha":401,"x_min":114,"x_max":288,"o":"m 114 1031 l 288 1031 l 288 0 l 114 0 l 114 1031 m 201 -282 q 142 -260 165 -282 q 118 -200 118 -237 q 142 -140 118 -164 q 201 -115 165 -115 q 261 -140 238 -115 q 285 -200 285 -164 q 261 -260 285 -237 q 201 -282 238 -282 z "},"ǉ":{"ha":811,"x_min":114,"x_max":721,"o":"m 114 1031 l 288 1031 l 288 0 l 114 0 l 114 1031 m 439 -279 q 272 -236 329 -279 l 322 -107 q 424 -136 361 -136 q 498 -106 472 -136 q 524 -18 524 -76 l 524 742 l 697 742 l 697 -14 q 629 -208 697 -137 q 439 -279 561 -279 m 610 864 q 531 894 563 864 q 499 968 499 924 q 531 1042 499 1013 q 610 1072 563 1072 q 689 1044 657 1072 q 721 972 721 1015 q 690 895 721 926 q 610 864 658 864 z "},"ḻ":{"ha":401,"x_min":-39,"x_max":442,"o":"m 114 1031 l 288 1031 l 288 0 l 114 0 l 114 1031 m -39 -144 l 442 -144 l 442 -247 l -39 -247 l -39 -144 z "},"ł":{"ha":429,"x_min":-25,"x_max":454,"o":"m 128 1031 l 301 1031 l 301 0 l 128 0 l 128 1031 m -25 394 l 383 704 l 454 606 l 47 297 l -25 394 z "},"m":{"ha":1463,"x_min":114,"x_max":1354,"o":"m 1050 750 q 1272 669 1190 750 q 1354 425 1354 588 l 1354 0 l 1181 0 l 1181 403 q 1138 549 1181 500 q 1014 599 1094 599 q 874 541 926 599 q 821 376 821 483 l 821 0 l 647 0 l 647 403 q 604 549 647 500 q 481 599 561 599 q 340 542 392 599 q 288 376 288 485 l 288 0 l 114 0 l 114 742 l 279 742 l 279 647 q 383 724 321 697 q 522 750 446 750 q 670 719 606 750 q 772 626 735 688 q 890 717 818 685 q 1050 750 963 750 z "},"ṃ":{"ha":1463,"x_min":114,"x_max":1354,"o":"m 1050 750 q 1272 669 1190 750 q 1354 425 1354 588 l 1354 0 l 1181 0 l 1181 403 q 1138 549 1181 500 q 1014 599 1094 599 q 874 541 926 599 q 821 376 821 483 l 821 0 l 647 0 l 647 403 q 604 549 647 500 q 481 599 561 599 q 340 542 392 599 q 288 376 288 485 l 288 0 l 114 0 l 114 742 l 279 742 l 279 647 q 383 724 321 697 q 522 750 446 750 q 670 719 606 750 q 772 626 735 688 q 890 717 818 685 q 1050 750 963 750 m 733 -282 q 674 -260 697 -282 q 650 -200 650 -237 q 674 -140 650 -164 q 733 -115 697 -115 q 793 -140 769 -115 q 817 -200 817 -164 q 793 -260 817 -237 q 733 -282 769 -282 z "},"n":{"ha":951,"x_min":114,"x_max":844,"o":"m 535 750 q 760 668 675 750 q 844 425 844 586 l 844 0 l 671 0 l 671 403 q 625 549 671 500 q 494 599 579 599 q 343 541 399 599 q 288 375 288 483 l 288 0 l 114 0 l 114 742 l 279 742 l 279 646 q 388 724 322 697 q 535 750 453 750 z "},"ń":{"ha":951,"x_min":114,"x_max":844,"o":"m 535 750 q 760 668 675 750 q 844 425 844 586 l 844 0 l 671 0 l 671 403 q 625 549 671 500 q 494 599 579 599 q 343 541 399 599 q 288 375 288 483 l 288 0 l 114 0 l 114 742 l 279 742 l 279 646 q 388 724 322 697 q 535 750 453 750 m 550 1033 l 754 1033 l 513 843 l 363 843 l 550 1033 z "},"ŉ":{"ha":1104,"x_min":65,"x_max":996,"o":"m 69 972 l 185 972 l 158 610 l 65 610 l 69 972 m 686 750 q 911 668 826 750 q 996 425 996 586 l 996 0 l 822 0 l 822 403 q 776 549 822 500 q 646 599 731 599 q 494 541 550 599 q 439 375 439 483 l 439 0 l 265 0 l 265 742 l 431 742 l 431 646 q 539 724 474 697 q 686 750 604 750 z "},"ň":{"ha":951,"x_min":114,"x_max":844,"o":"m 535 750 q 760 668 675 750 q 844 425 844 586 l 844 0 l 671 0 l 671 403 q 625 549 671 500 q 494 599 579 599 q 343 541 399 599 q 288 375 288 483 l 288 0 l 114 0 l 114 742 l 279 742 l 279 646 q 388 724 322 697 q 535 750 453 750 m 744 1033 l 558 843 l 400 843 l 214 1033 l 357 1033 l 479 931 l 601 1033 l 744 1033 z "},"ņ":{"ha":951,"x_min":114,"x_max":844,"o":"m 535 750 q 760 668 675 750 q 844 425 844 586 l 844 0 l 671 0 l 671 403 q 625 549 671 500 q 494 599 579 599 q 343 541 399 599 q 288 375 288 483 l 288 0 l 114 0 l 114 742 l 279 742 l 279 646 q 388 724 322 697 q 535 750 453 750 m 479 -115 q 540 -136 517 -115 q 563 -189 563 -157 q 540 -271 563 -228 l 496 -368 l 411 -368 l 444 -256 q 396 -189 396 -240 q 419 -135 396 -156 q 479 -115 442 -115 z "},"ṅ":{"ha":951,"x_min":114,"x_max":844,"o":"m 535 750 q 760 668 675 750 q 844 425 844 586 l 844 0 l 671 0 l 671 403 q 625 549 671 500 q 494 599 579 599 q 343 541 399 599 q 288 375 288 483 l 288 0 l 114 0 l 114 742 l 279 742 l 279 646 q 388 724 322 697 q 535 750 453 750 m 479 860 q 408 888 436 860 q 381 958 381 915 q 408 1029 381 1001 q 479 1057 436 1057 q 550 1029 522 1057 q 578 958 578 1001 q 550 888 578 915 q 479 860 522 860 z "},"ṇ":{"ha":951,"x_min":114,"x_max":844,"o":"m 535 750 q 760 668 675 750 q 844 425 844 586 l 844 0 l 671 0 l 671 403 q 625 549 671 500 q 494 599 579 599 q 343 541 399 599 q 288 375 288 483 l 288 0 l 114 0 l 114 742 l 279 742 l 279 646 q 388 724 322 697 q 535 750 453 750 m 479 -282 q 419 -260 443 -282 q 396 -200 396 -237 q 419 -140 396 -164 q 479 -115 443 -115 q 539 -140 515 -115 q 563 -200 563 -164 q 539 -260 563 -237 q 479 -282 515 -282 z "},"ŋ":{"ha":951,"x_min":114,"x_max":844,"o":"m 535 750 q 760 668 675 750 q 844 425 844 586 l 844 -14 q 777 -208 844 -137 q 586 -279 710 -279 q 419 -236 476 -279 l 471 -107 q 571 -136 508 -136 q 645 -106 619 -136 q 671 -18 671 -76 l 671 403 q 625 549 671 500 q 494 599 579 599 q 343 541 399 599 q 288 375 288 483 l 288 0 l 114 0 l 114 742 l 279 742 l 279 646 q 388 724 322 697 q 535 750 453 750 z "},"ǌ":{"ha":1361,"x_min":114,"x_max":1271,"o":"m 535 750 q 760 668 675 750 q 844 425 844 586 l 844 0 l 671 0 l 671 403 q 625 549 671 500 q 494 599 579 599 q 343 541 399 599 q 288 375 288 483 l 288 0 l 114 0 l 114 742 l 279 742 l 279 646 q 388 724 322 697 q 535 750 453 750 m 989 -279 q 822 -236 879 -279 l 872 -107 q 974 -136 911 -136 q 1048 -106 1022 -136 q 1074 -18 1074 -76 l 1074 742 l 1247 742 l 1247 -14 q 1179 -208 1247 -137 q 989 -279 1111 -279 m 1160 864 q 1081 894 1113 864 q 1049 968 1049 924 q 1081 1042 1049 1013 q 1160 1072 1113 1072 q 1239 1044 1207 1072 q 1271 972 1271 1015 q 1240 895 1271 926 q 1160 864 1208 864 z "},"ṉ":{"ha":951,"x_min":114,"x_max":844,"o":"m 535 750 q 760 668 675 750 q 844 425 844 586 l 844 0 l 671 0 l 671 403 q 625 549 671 500 q 494 599 579 599 q 343 541 399 599 q 288 375 288 483 l 288 0 l 114 0 l 114 742 l 279 742 l 279 646 q 388 724 322 697 q 535 750 453 750 m 239 -144 l 719 -144 l 719 -247 l 239 -247 l 239 -144 z "},"ñ":{"ha":951,"x_min":114,"x_max":844,"o":"m 535 750 q 760 668 675 750 q 844 425 844 586 l 844 0 l 671 0 l 671 403 q 625 549 671 500 q 494 599 579 599 q 343 541 399 599 q 288 375 288 483 l 288 0 l 114 0 l 114 742 l 279 742 l 279 646 q 388 724 322 697 q 535 750 453 750 m 579 843 q 519 857 544 843 q 456 899 493 871 q 419 926 433 917 q 390 935 404 935 q 342 913 361 935 q 322 851 324 890 l 229 851 q 272 987 231 936 q 379 1038 313 1038 q 440 1024 414 1038 q 503 982 465 1010 q 540 955 525 964 q 568 946 554 946 q 616 967 597 946 q 636 1025 635 988 l 729 1025 q 686 893 726 943 q 579 843 646 843 z "},"o":{"ha":896,"x_min":53,"x_max":843,"o":"m 447 -10 q 244 39 335 -10 q 103 174 154 88 q 53 371 53 261 q 103 567 53 481 q 244 701 154 653 q 447 750 335 750 q 651 701 561 750 q 792 567 742 653 q 843 371 843 481 q 792 174 843 261 q 651 39 742 88 q 447 -10 561 -10 m 447 139 q 606 203 543 139 q 668 371 668 267 q 606 539 668 475 q 447 603 543 603 q 290 539 351 603 q 228 371 228 475 q 290 203 228 267 q 447 139 351 139 z "},"ó":{"ha":896,"x_min":53,"x_max":843,"o":"m 447 -10 q 244 39 335 -10 q 103 174 154 88 q 53 371 53 261 q 103 567 53 481 q 244 701 154 653 q 447 750 335 750 q 651 701 561 750 q 792 567 742 653 q 843 371 843 481 q 792 174 843 261 q 651 39 742 88 q 447 -10 561 -10 m 447 139 q 606 203 543 139 q 668 371 668 267 q 606 539 668 475 q 447 603 543 603 q 290 539 351 603 q 228 371 228 475 q 290 203 228 267 q 447 139 351 139 m 517 1033 l 721 1033 l 479 843 l 329 843 l 517 1033 z "},"ŏ":{"ha":896,"x_min":53,"x_max":843,"o":"m 447 -10 q 244 39 335 -10 q 103 174 154 88 q 53 371 53 261 q 103 567 53 481 q 244 701 154 653 q 447 750 335 750 q 651 701 561 750 q 792 567 742 653 q 843 371 843 481 q 792 174 843 261 q 651 39 742 88 q 447 -10 561 -10 m 447 139 q 606 203 543 139 q 668 371 668 267 q 606 539 668 475 q 447 603 543 603 q 290 539 351 603 q 228 371 228 475 q 290 203 228 267 q 447 139 351 139 m 446 833 q 277 888 344 833 q 206 1033 210 942 l 319 1033 q 357 958 321 986 q 446 929 393 929 q 535 958 499 929 q 572 1033 571 986 l 686 1033 q 615 888 682 942 q 446 833 547 833 z "},"ô":{"ha":896,"x_min":53,"x_max":843,"o":"m 447 -10 q 244 39 335 -10 q 103 174 154 88 q 53 371 53 261 q 103 567 53 481 q 244 701 154 653 q 447 750 335 750 q 651 701 561 750 q 792 567 742 653 q 843 371 843 481 q 792 174 843 261 q 651 39 742 88 q 447 -10 561 -10 m 447 139 q 606 203 543 139 q 668 371 668 267 q 606 539 668 475 q 447 603 543 603 q 290 539 351 603 q 228 371 228 475 q 290 203 228 267 q 447 139 351 139 m 568 843 l 446 946 l 324 843 l 181 843 l 367 1033 l 525 1033 l 711 843 l 568 843 z "},"ố":{"ha":896,"x_min":53,"x_max":942,"o":"m 447 -10 q 244 39 335 -10 q 103 174 154 88 q 53 371 53 261 q 103 567 53 481 q 244 701 154 653 q 447 750 335 750 q 651 701 561 750 q 792 567 742 653 q 843 371 843 481 q 792 174 843 261 q 651 39 742 88 q 447 -10 561 -10 m 447 139 q 606 203 543 139 q 668 371 668 267 q 606 539 668 475 q 447 603 543 603 q 290 539 351 603 q 228 371 228 475 q 290 203 228 267 q 447 139 351 139 m 567 843 l 446 919 l 325 843 l 181 843 l 368 992 l 524 992 l 711 843 l 567 843 m 756 1133 l 942 1133 l 731 971 l 597 971 l 756 1133 z "},"ộ":{"ha":896,"x_min":53,"x_max":843,"o":"m 447 -10 q 244 39 335 -10 q 103 174 154 88 q 53 371 53 261 q 103 567 53 481 q 244 701 154 653 q 447 750 335 750 q 651 701 561 750 q 792 567 742 653 q 843 371 843 481 q 792 174 843 261 q 651 39 742 88 q 447 -10 561 -10 m 447 139 q 606 203 543 139 q 668 371 668 267 q 606 539 668 475 q 447 603 543 603 q 290 539 351 603 q 228 371 228 475 q 290 203 228 267 q 447 139 351 139 m 446 -282 q 386 -260 410 -282 q 363 -200 363 -237 q 386 -140 363 -164 q 446 -115 410 -115 q 506 -140 482 -115 q 529 -200 529 -164 q 506 -260 529 -237 q 446 -282 482 -282 m 568 843 l 446 946 l 324 843 l 181 843 l 367 1033 l 525 1033 l 711 843 l 568 843 z "},"ồ":{"ha":896,"x_min":53,"x_max":843,"o":"m 447 -10 q 244 39 335 -10 q 103 174 154 88 q 53 371 53 261 q 103 567 53 481 q 244 701 154 653 q 447 750 335 750 q 651 701 561 750 q 792 567 742 653 q 843 371 843 481 q 792 174 843 261 q 651 39 742 88 q 447 -10 561 -10 m 447 139 q 606 203 543 139 q 668 371 668 267 q 606 539 668 475 q 447 603 543 603 q 290 539 351 603 q 228 371 228 475 q 290 203 228 267 q 447 139 351 139 m 567 843 l 446 919 l 325 843 l 181 843 l 368 992 l 524 992 l 711 843 l 567 843 m 468 1133 l 654 1133 l 813 971 l 679 971 l 468 1133 z "},"ổ":{"ha":896,"x_min":53,"x_max":843,"o":"m 447 -10 q 244 39 335 -10 q 103 174 154 88 q 53 371 53 261 q 103 567 53 481 q 244 701 154 653 q 447 750 335 750 q 651 701 561 750 q 792 567 742 653 q 843 371 843 481 q 792 174 843 261 q 651 39 742 88 q 447 -10 561 -10 m 447 139 q 606 203 543 139 q 668 371 668 267 q 606 539 668 475 q 447 603 543 603 q 290 539 351 603 q 228 371 228 475 q 290 203 228 267 q 447 139 351 139 m 567 843 l 446 919 l 325 843 l 181 843 l 368 992 l 524 992 l 711 843 l 567 843 m 625 992 q 679 1053 679 1018 q 665 1084 679 1072 q 629 1096 651 1096 q 568 1079 599 1096 l 538 1138 q 644 1167 581 1167 q 730 1138 699 1167 q 761 1063 761 1110 q 736 992 761 1022 q 669 944 711 961 l 625 992 z "},"ỗ":{"ha":896,"x_min":53,"x_max":843,"o":"m 447 -10 q 244 39 335 -10 q 103 174 154 88 q 53 371 53 261 q 103 567 53 481 q 244 701 154 653 q 447 750 335 750 q 651 701 561 750 q 792 567 742 653 q 843 371 843 481 q 792 174 843 261 q 651 39 742 88 q 447 -10 561 -10 m 447 139 q 606 203 543 139 q 668 371 668 267 q 606 539 668 475 q 447 603 543 603 q 290 539 351 603 q 228 371 228 475 q 290 203 228 267 q 447 139 351 139 m 567 843 l 446 919 l 325 843 l 181 843 l 368 992 l 524 992 l 711 843 l 567 843 m 547 1039 q 481 1051 510 1039 q 419 1086 453 1064 q 383 1107 397 1100 q 356 1114 369 1114 q 294 1047 297 1114 l 200 1047 q 241 1164 201 1122 q 347 1206 281 1206 q 410 1194 382 1206 q 469 1161 438 1182 q 509 1139 494 1146 q 539 1132 524 1132 q 582 1149 567 1132 q 600 1197 597 1167 l 692 1197 q 651 1081 690 1124 q 547 1039 613 1039 z "},"ȍ":{"ha":896,"x_min":53,"x_max":843,"o":"m 447 -10 q 244 39 335 -10 q 103 174 154 88 q 53 371 53 261 q 103 567 53 481 q 244 701 154 653 q 447 750 335 750 q 651 701 561 750 q 792 567 742 653 q 843 371 843 481 q 792 174 843 261 q 651 39 742 88 q 447 -10 561 -10 m 447 139 q 606 203 543 139 q 668 371 668 267 q 606 539 668 475 q 447 603 543 603 q 290 539 351 603 q 228 371 228 475 q 290 203 228 267 q 447 139 351 139 m 99 1033 l 272 1033 l 383 843 l 247 843 l 99 1033 m 358 1033 l 532 1033 l 644 843 l 508 843 l 358 1033 z "},"ö":{"ha":896,"x_min":53,"x_max":843,"o":"m 447 -10 q 244 39 335 -10 q 103 174 154 88 q 53 371 53 261 q 103 567 53 481 q 244 701 154 653 q 447 750 335 750 q 651 701 561 750 q 792 567 742 653 q 843 371 843 481 q 792 174 843 261 q 651 39 742 88 q 447 -10 561 -10 m 447 139 q 606 203 543 139 q 668 371 668 267 q 606 539 668 475 q 447 603 543 603 q 290 539 351 603 q 228 371 228 475 q 290 203 228 267 q 447 139 351 139 m 311 858 q 251 882 275 858 q 228 942 228 906 q 251 1003 228 979 q 311 1026 275 1026 q 371 1003 347 1026 q 394 942 394 979 q 371 882 394 906 q 311 858 347 858 m 581 858 q 521 882 544 858 q 497 942 497 906 q 521 1003 497 979 q 581 1026 544 1026 q 640 1003 617 1026 q 664 942 664 979 q 640 882 664 906 q 581 858 617 858 z "},"ȫ":{"ha":896,"x_min":53,"x_max":843,"o":"m 447 -10 q 244 39 335 -10 q 103 174 154 88 q 53 371 53 261 q 103 567 53 481 q 244 701 154 653 q 447 750 335 750 q 651 701 561 750 q 792 567 742 653 q 843 371 843 481 q 792 174 843 261 q 651 39 742 88 q 447 -10 561 -10 m 447 139 q 606 203 543 139 q 668 371 668 267 q 606 539 668 475 q 447 603 543 603 q 290 539 351 603 q 228 371 228 475 q 290 203 228 267 q 447 139 351 139 m 315 858 q 258 881 282 858 q 235 939 235 904 q 258 997 235 974 q 315 1019 282 1019 q 373 997 350 1019 q 396 939 396 974 q 373 881 396 904 q 315 858 350 858 m 578 858 q 521 881 544 858 q 497 939 497 904 q 521 997 497 974 q 578 1019 544 1019 q 635 996 611 1019 q 658 939 658 972 q 635 881 658 904 q 578 858 611 858 m 206 1178 l 686 1178 l 686 1081 l 206 1081 l 206 1178 z "},"ȱ":{"ha":896,"x_min":53,"x_max":843,"o":"m 447 -10 q 244 39 335 -10 q 103 174 154 88 q 53 371 53 261 q 103 567 53 481 q 244 701 154 653 q 447 750 335 750 q 651 701 561 750 q 792 567 742 653 q 843 371 843 481 q 792 174 843 261 q 651 39 742 88 q 447 -10 561 -10 m 447 139 q 606 203 543 139 q 668 371 668 267 q 606 539 668 475 q 447 603 543 603 q 290 539 351 603 q 228 371 228 475 q 290 203 228 267 q 447 139 351 139 m 446 857 q 386 880 410 857 q 363 940 363 903 q 386 1001 363 978 q 446 1024 410 1024 q 506 1001 482 1024 q 529 940 529 978 q 506 880 529 903 q 446 857 482 857 m 206 1183 l 686 1183 l 686 1086 l 206 1086 l 206 1183 z "},"ọ":{"ha":896,"x_min":53,"x_max":843,"o":"m 447 -10 q 244 39 335 -10 q 103 174 154 88 q 53 371 53 261 q 103 567 53 481 q 244 701 154 653 q 447 750 335 750 q 651 701 561 750 q 792 567 742 653 q 843 371 843 481 q 792 174 843 261 q 651 39 742 88 q 447 -10 561 -10 m 447 139 q 606 203 543 139 q 668 371 668 267 q 606 539 668 475 q 447 603 543 603 q 290 539 351 603 q 228 371 228 475 q 290 203 228 267 q 447 139 351 139 m 446 -282 q 386 -260 410 -282 q 363 -200 363 -237 q 386 -140 363 -164 q 446 -115 410 -115 q 506 -140 482 -115 q 529 -200 529 -164 q 506 -260 529 -237 q 446 -282 482 -282 z "},"ò":{"ha":896,"x_min":53,"x_max":843,"o":"m 447 -10 q 244 39 335 -10 q 103 174 154 88 q 53 371 53 261 q 103 567 53 481 q 244 701 154 653 q 447 750 335 750 q 651 701 561 750 q 792 567 742 653 q 843 371 843 481 q 792 174 843 261 q 651 39 742 88 q 447 -10 561 -10 m 447 139 q 606 203 543 139 q 668 371 668 267 q 606 539 668 475 q 447 603 543 603 q 290 539 351 603 q 228 371 228 475 q 290 203 228 267 q 447 139 351 139 m 171 1033 l 375 1033 l 563 843 l 413 843 l 171 1033 z "},"ỏ":{"ha":896,"x_min":53,"x_max":843,"o":"m 447 -10 q 244 39 335 -10 q 103 174 154 88 q 53 371 53 261 q 103 567 53 481 q 244 701 154 653 q 447 750 335 750 q 651 701 561 750 q 792 567 742 653 q 843 371 843 481 q 792 174 843 261 q 651 39 742 88 q 447 -10 561 -10 m 447 139 q 606 203 543 139 q 668 371 668 267 q 606 539 668 475 q 447 603 543 603 q 290 539 351 603 q 228 371 228 475 q 290 203 228 267 q 447 139 351 139 m 424 893 q 481 933 464 911 q 499 982 499 954 q 479 1026 499 1008 q 429 1043 460 1043 q 346 1017 386 1043 l 308 1093 q 372 1125 336 1114 q 447 1136 408 1136 q 557 1098 514 1136 q 600 997 600 1060 q 481 829 600 885 l 424 893 z "},"ơ":{"ha":896,"x_min":53,"x_max":843,"o":"m 721 653 q 811 529 779 601 q 843 371 843 457 q 792 174 843 261 q 651 39 742 88 q 447 -10 561 -10 q 244 39 335 -10 q 103 174 154 88 q 53 371 53 261 q 104 567 53 481 q 246 701 156 653 q 450 750 336 750 q 543 744 490 750 q 576 742 554 743 q 615 740 597 740 q 688 766 663 740 q 713 832 713 792 q 683 918 713 876 l 789 957 q 832 826 832 897 q 803 721 832 765 q 721 653 774 676 m 447 139 q 606 203 543 139 q 668 371 668 267 q 606 539 668 475 q 447 603 543 603 q 290 539 351 603 q 228 371 228 475 q 290 203 228 267 q 447 139 351 139 z "},"ớ":{"ha":896,"x_min":53,"x_max":843,"o":"m 721 653 q 811 529 779 601 q 843 371 843 457 q 792 174 843 261 q 651 39 742 88 q 447 -10 561 -10 q 244 39 335 -10 q 103 174 154 88 q 53 371 53 261 q 104 567 53 481 q 246 701 156 653 q 450 750 336 750 q 543 744 490 750 q 576 742 554 743 q 615 740 597 740 q 688 766 663 740 q 713 832 713 792 q 683 918 713 876 l 789 957 q 832 826 832 897 q 803 721 832 765 q 721 653 774 676 m 447 139 q 606 203 543 139 q 668 371 668 267 q 606 539 668 475 q 447 603 543 603 q 290 539 351 603 q 228 371 228 475 q 290 203 228 267 q 447 139 351 139 m 518 1033 l 722 1033 l 481 843 l 331 843 l 518 1033 z "},"ợ":{"ha":896,"x_min":53,"x_max":843,"o":"m 721 653 q 811 529 779 601 q 843 371 843 457 q 792 174 843 261 q 651 39 742 88 q 447 -10 561 -10 q 244 39 335 -10 q 103 174 154 88 q 53 371 53 261 q 104 567 53 481 q 246 701 156 653 q 450 750 336 750 q 543 744 490 750 q 576 742 554 743 q 615 740 597 740 q 688 766 663 740 q 713 832 713 792 q 683 918 713 876 l 789 957 q 832 826 832 897 q 803 721 832 765 q 721 653 774 676 m 447 139 q 606 203 543 139 q 668 371 668 267 q 606 539 668 475 q 447 603 543 603 q 290 539 351 603 q 228 371 228 475 q 290 203 228 267 q 447 139 351 139 m 447 -282 q 388 -260 411 -282 q 364 -200 364 -237 q 388 -140 364 -164 q 447 -115 411 -115 q 507 -140 483 -115 q 531 -200 531 -164 q 507 -260 531 -237 q 447 -282 483 -282 z "},"ờ":{"ha":896,"x_min":53,"x_max":843,"o":"m 721 653 q 811 529 779 601 q 843 371 843 457 q 792 174 843 261 q 651 39 742 88 q 447 -10 561 -10 q 244 39 335 -10 q 103 174 154 88 q 53 371 53 261 q 104 567 53 481 q 246 701 156 653 q 450 750 336 750 q 543 744 490 750 q 576 742 554 743 q 615 740 597 740 q 688 766 663 740 q 713 832 713 792 q 683 918 713 876 l 789 957 q 832 826 832 897 q 803 721 832 765 q 721 653 774 676 m 447 139 q 606 203 543 139 q 668 371 668 267 q 606 539 668 475 q 447 603 543 603 q 290 539 351 603 q 228 371 228 475 q 290 203 228 267 q 447 139 351 139 m 172 1033 l 376 1033 l 564 843 l 414 843 l 172 1033 z "},"ở":{"ha":896,"x_min":53,"x_max":843,"o":"m 721 653 q 811 529 779 601 q 843 371 843 457 q 792 174 843 261 q 651 39 742 88 q 447 -10 561 -10 q 244 39 335 -10 q 103 174 154 88 q 53 371 53 261 q 104 567 53 481 q 246 701 156 653 q 450 750 336 750 q 543 744 490 750 q 576 742 554 743 q 615 740 597 740 q 688 766 663 740 q 713 832 713 792 q 683 918 713 876 l 789 957 q 832 826 832 897 q 803 721 832 765 q 721 653 774 676 m 447 139 q 606 203 543 139 q 668 371 668 267 q 606 539 668 475 q 447 603 543 603 q 290 539 351 603 q 228 371 228 475 q 290 203 228 267 q 447 139 351 139 m 425 893 q 483 933 465 911 q 500 982 500 954 q 481 1026 500 1008 q 431 1043 461 1043 q 347 1017 388 1043 l 310 1093 q 374 1125 338 1114 q 449 1136 410 1136 q 558 1098 515 1136 q 601 997 601 1060 q 482 829 601 885 l 425 893 z "},"ỡ":{"ha":900,"x_min":53,"x_max":843,"o":"m 721 653 q 811 529 779 601 q 843 371 843 457 q 792 174 843 261 q 651 39 742 88 q 447 -10 561 -10 q 244 39 335 -10 q 103 174 154 88 q 53 371 53 261 q 104 567 53 481 q 246 701 156 653 q 450 750 336 750 q 543 744 490 750 q 576 742 554 743 q 615 740 597 740 q 688 766 663 740 q 713 832 713 792 q 683 918 713 876 l 789 957 q 832 826 832 897 q 803 721 832 765 q 721 653 774 676 m 447 139 q 606 203 543 139 q 668 371 668 267 q 606 539 668 475 q 447 603 543 603 q 290 539 351 603 q 228 371 228 475 q 290 203 228 267 q 447 139 351 139 m 532 843 q 478 857 501 843 q 421 899 455 871 q 388 926 401 917 q 363 935 375 935 q 320 913 336 935 q 302 851 303 890 l 218 851 q 256 987 219 936 q 353 1038 293 1038 q 407 1024 384 1038 q 464 982 430 1010 q 497 955 484 964 q 522 946 510 946 q 565 967 549 946 q 583 1025 582 988 l 667 1025 q 628 893 665 943 q 532 843 592 843 z "},"ő":{"ha":896,"x_min":53,"x_max":843,"o":"m 447 -10 q 244 39 335 -10 q 103 174 154 88 q 53 371 53 261 q 103 567 53 481 q 244 701 154 653 q 447 750 335 750 q 651 701 561 750 q 792 567 742 653 q 843 371 843 481 q 792 174 843 261 q 651 39 742 88 q 447 -10 561 -10 m 447 139 q 606 203 543 139 q 668 371 668 267 q 606 539 668 475 q 447 603 543 603 q 290 539 351 603 q 228 371 228 475 q 290 203 228 267 q 447 139 351 139 m 360 1033 l 533 1033 l 383 843 l 247 843 l 360 1033 m 619 1033 l 793 1033 l 644 843 l 508 843 l 619 1033 z "},"ȏ":{"ha":896,"x_min":53,"x_max":843,"o":"m 447 -10 q 244 39 335 -10 q 103 174 154 88 q 53 371 53 261 q 103 567 53 481 q 244 701 154 653 q 447 750 335 750 q 651 701 561 750 q 792 567 742 653 q 843 371 843 481 q 792 174 843 261 q 651 39 742 88 q 447 -10 561 -10 m 447 139 q 606 203 543 139 q 668 371 668 267 q 606 539 668 475 q 447 603 543 603 q 290 539 351 603 q 228 371 228 475 q 290 203 228 267 q 447 139 351 139 m 206 843 q 277 989 210 935 q 446 1043 344 1043 q 615 989 547 1043 q 686 843 682 935 l 572 843 q 535 920 571 892 q 446 949 499 949 q 357 920 393 949 q 319 843 321 892 l 206 843 z "},"ō":{"ha":896,"x_min":53,"x_max":843,"o":"m 447 -10 q 244 39 335 -10 q 103 174 154 88 q 53 371 53 261 q 103 567 53 481 q 244 701 154 653 q 447 750 335 750 q 651 701 561 750 q 792 567 742 653 q 843 371 843 481 q 792 174 843 261 q 651 39 742 88 q 447 -10 561 -10 m 447 139 q 606 203 543 139 q 668 371 668 267 q 606 539 668 475 q 447 603 543 603 q 290 539 351 603 q 228 371 228 475 q 290 203 228 267 q 447 139 351 139 m 206 990 l 686 990 l 686 886 l 206 886 l 206 990 z "},"ṓ":{"ha":896,"x_min":53,"x_max":843,"o":"m 447 -10 q 244 39 335 -10 q 103 174 154 88 q 53 371 53 261 q 103 567 53 481 q 244 701 154 653 q 447 750 335 750 q 651 701 561 750 q 792 567 742 653 q 843 371 843 481 q 792 174 843 261 q 651 39 742 88 q 447 -10 561 -10 m 447 139 q 606 203 543 139 q 668 371 668 267 q 606 539 668 475 q 447 603 543 603 q 290 539 351 603 q 228 371 228 475 q 290 203 228 267 q 447 139 351 139 m 206 967 l 686 967 l 686 869 l 206 869 l 206 967 m 497 1217 l 683 1217 l 472 1054 l 339 1054 l 497 1217 z "},"ṑ":{"ha":896,"x_min":53,"x_max":843,"o":"m 447 -10 q 244 39 335 -10 q 103 174 154 88 q 53 371 53 261 q 103 567 53 481 q 244 701 154 653 q 447 750 335 750 q 651 701 561 750 q 792 567 742 653 q 843 371 843 481 q 792 174 843 261 q 651 39 742 88 q 447 -10 561 -10 m 447 139 q 606 203 543 139 q 668 371 668 267 q 606 539 668 475 q 447 603 543 603 q 290 539 351 603 q 228 371 228 475 q 290 203 228 267 q 447 139 351 139 m 206 967 l 686 967 l 686 869 l 206 869 l 206 967 m 210 1217 l 396 1217 l 554 1054 l 421 1054 l 210 1217 z "},"ǫ":{"ha":896,"x_min":53,"x_max":843,"o":"m 611 19 q 467 -66 508 -24 q 426 -153 426 -108 q 449 -204 426 -186 q 508 -222 471 -222 q 553 -216 531 -222 q 593 -200 576 -210 l 621 -285 q 560 -308 596 -300 q 489 -317 525 -317 q 358 -276 406 -317 q 310 -171 310 -236 q 400 -7 310 -75 q 221 53 300 3 q 97 187 142 104 q 53 371 53 269 q 103 567 53 481 q 244 701 154 653 q 447 750 335 750 q 651 701 561 750 q 792 567 742 653 q 843 371 843 481 q 781 158 843 250 q 611 19 719 67 m 228 371 q 290 203 228 267 q 447 139 351 139 q 606 203 543 139 q 668 371 668 267 q 606 539 668 475 q 447 603 543 603 q 290 539 351 603 q 228 371 228 475 z "},"ø":{"ha":896,"x_min":53,"x_max":843,"o":"m 447 -10 q 244 39 335 -10 q 103 174 154 88 q 53 371 53 261 q 103 567 53 481 q 244 701 154 653 q 447 750 335 750 q 651 701 561 750 q 792 567 742 653 q 843 371 843 481 q 792 174 843 261 q 651 39 742 88 q 447 -10 561 -10 m 447 139 q 606 203 543 139 q 668 371 668 267 q 606 539 668 475 q 447 603 543 603 q 290 539 351 603 q 228 371 228 475 q 290 203 228 267 q 447 139 351 139 m 703 835 l 800 835 l 189 -99 l 92 -99 l 703 835 z "},"ǿ":{"ha":896,"x_min":53,"x_max":843,"o":"m 447 -10 q 244 39 335 -10 q 103 174 154 88 q 53 371 53 261 q 103 567 53 481 q 244 701 154 653 q 447 750 335 750 q 651 701 561 750 q 792 567 742 653 q 843 371 843 481 q 792 174 843 261 q 651 39 742 88 q 447 -10 561 -10 m 447 139 q 606 203 543 139 q 668 371 668 267 q 606 539 668 475 q 447 603 543 603 q 290 539 351 603 q 228 371 228 475 q 290 203 228 267 q 447 139 351 139 m 703 835 l 800 835 l 189 -99 l 92 -99 l 703 835 m 514 1033 l 718 1033 l 476 843 l 326 843 l 514 1033 z "},"õ":{"ha":896,"x_min":53,"x_max":843,"o":"m 447 -10 q 244 39 335 -10 q 103 174 154 88 q 53 371 53 261 q 103 567 53 481 q 244 701 154 653 q 447 750 335 750 q 651 701 561 750 q 792 567 742 653 q 843 371 843 481 q 792 174 843 261 q 651 39 742 88 q 447 -10 561 -10 m 447 139 q 606 203 543 139 q 668 371 668 267 q 606 539 668 475 q 447 603 543 603 q 290 539 351 603 q 228 371 228 475 q 290 203 228 267 q 447 139 351 139 m 546 843 q 485 857 511 843 q 422 899 460 871 q 385 926 400 917 q 357 935 371 935 q 309 913 328 935 q 289 851 290 890 l 196 851 q 238 987 197 936 q 346 1038 279 1038 q 406 1024 381 1038 q 469 982 432 1010 q 506 955 492 964 q 535 946 521 946 q 583 967 564 946 q 603 1025 601 988 l 696 1025 q 653 893 693 943 q 546 843 613 843 z "},"ṍ":{"ha":896,"x_min":53,"x_max":843,"o":"m 447 -10 q 244 39 335 -10 q 103 174 154 88 q 53 371 53 261 q 103 567 53 481 q 244 701 154 653 q 447 750 335 750 q 651 701 561 750 q 792 567 742 653 q 843 371 843 481 q 792 174 843 261 q 651 39 742 88 q 447 -10 561 -10 m 447 139 q 606 203 543 139 q 668 371 668 267 q 606 539 668 475 q 447 603 543 603 q 290 539 351 603 q 228 371 228 475 q 290 203 228 267 q 447 139 351 139 m 547 844 q 481 857 510 844 q 419 892 453 869 q 383 913 397 906 q 356 919 369 919 q 294 853 297 919 l 200 853 q 241 969 201 928 q 347 1011 281 1011 q 410 999 382 1011 q 469 967 438 988 q 509 944 494 951 q 539 938 524 938 q 582 955 567 938 q 600 1003 597 972 l 692 1003 q 651 887 690 929 q 547 844 613 844 m 497 1217 l 683 1217 l 472 1054 l 339 1054 l 497 1217 z "},"ṏ":{"ha":896,"x_min":53,"x_max":843,"o":"m 447 -10 q 244 39 335 -10 q 103 174 154 88 q 53 371 53 261 q 103 567 53 481 q 244 701 154 653 q 447 750 335 750 q 651 701 561 750 q 792 567 742 653 q 843 371 843 481 q 792 174 843 261 q 651 39 742 88 q 447 -10 561 -10 m 447 139 q 606 203 543 139 q 668 371 668 267 q 606 539 668 475 q 447 603 543 603 q 290 539 351 603 q 228 371 228 475 q 290 203 228 267 q 447 139 351 139 m 547 844 q 481 857 510 844 q 419 892 453 869 q 383 913 397 906 q 356 919 369 919 q 294 853 297 919 l 200 853 q 241 969 201 928 q 347 1011 281 1011 q 410 999 382 1011 q 469 967 438 988 q 509 944 494 951 q 539 938 524 938 q 582 955 567 938 q 600 1003 597 972 l 692 1003 q 651 887 690 929 q 547 844 613 844 m 315 1069 q 258 1092 282 1069 q 235 1150 235 1115 q 258 1208 235 1185 q 315 1231 282 1231 q 373 1208 350 1231 q 396 1150 396 1185 q 373 1092 396 1115 q 315 1069 350 1069 m 578 1069 q 521 1092 544 1069 q 497 1150 497 1115 q 521 1208 497 1185 q 578 1231 544 1231 q 635 1207 611 1231 q 658 1150 658 1183 q 635 1092 658 1115 q 578 1069 611 1069 z "},"ȭ":{"ha":896,"x_min":53,"x_max":843,"o":"m 447 -10 q 244 39 335 -10 q 103 174 154 88 q 53 371 53 261 q 103 567 53 481 q 244 701 154 653 q 447 750 335 750 q 651 701 561 750 q 792 567 742 653 q 843 371 843 481 q 792 174 843 261 q 651 39 742 88 q 447 -10 561 -10 m 447 139 q 606 203 543 139 q 668 371 668 267 q 606 539 668 475 q 447 603 543 603 q 290 539 351 603 q 228 371 228 475 q 290 203 228 267 q 447 139 351 139 m 547 844 q 481 857 510 844 q 419 892 453 869 q 383 913 397 906 q 356 919 369 919 q 294 853 297 919 l 200 853 q 241 969 201 928 q 347 1011 281 1011 q 410 999 382 1011 q 469 967 438 988 q 509 944 494 951 q 539 938 524 938 q 582 955 567 938 q 600 1003 597 972 l 692 1003 q 651 887 690 929 q 547 844 613 844 m 206 1178 l 686 1178 l 686 1081 l 206 1081 l 206 1178 z "},"œ":{"ha":1479,"x_min":53,"x_max":1428,"o":"m 1428 367 q 1425 315 1428 349 l 842 315 q 922 185 857 233 q 1083 138 986 138 q 1283 218 1204 138 l 1378 111 q 1250 21 1326 51 q 1079 -10 1174 -10 q 890 28 972 -10 q 754 136 807 67 q 625 28 704 67 q 447 -10 546 -10 q 244 39 335 -10 q 103 174 154 88 q 53 371 53 261 q 103 567 53 481 q 244 701 154 653 q 447 750 335 750 q 624 713 546 750 q 753 607 703 675 q 880 713 803 675 q 1051 750 957 750 q 1245 702 1160 750 q 1379 567 1331 654 q 1428 367 1428 481 m 1051 611 q 910 562 968 611 q 840 431 853 513 l 1261 431 q 1193 561 1250 511 q 1051 611 1136 611 m 447 139 q 606 203 543 139 q 668 371 668 267 q 606 539 668 475 q 447 603 543 603 q 290 539 351 603 q 228 371 228 475 q 290 203 228 267 q 447 139 351 139 z "},"p":{"ha":953,"x_min":114,"x_max":901,"o":"m 525 750 q 719 703 633 750 q 853 569 804 656 q 901 371 901 483 q 853 172 901 258 q 719 38 804 85 q 525 -10 633 -10 q 288 90 375 -10 l 288 -269 l 114 -269 l 114 742 l 279 742 l 279 644 q 385 724 322 697 q 525 750 449 750 m 506 139 q 663 203 601 139 q 725 371 725 267 q 663 539 725 475 q 506 603 601 603 q 393 574 443 603 q 314 493 343 546 q 285 371 285 440 q 314 249 285 301 q 393 167 343 196 q 506 139 443 139 z "},"þ":{"ha":953,"x_min":114,"x_max":901,"o":"m 525 750 q 719 703 633 750 q 853 569 804 656 q 901 371 901 483 q 853 172 901 258 q 719 38 804 85 q 525 -10 633 -10 q 288 90 375 -10 l 288 -269 l 114 -269 l 114 1031 l 288 1031 l 288 654 q 525 750 375 750 m 506 139 q 663 203 601 139 q 725 371 725 267 q 663 539 725 475 q 506 603 601 603 q 393 574 443 603 q 314 493 343 546 q 285 371 285 440 q 314 249 285 301 q 393 167 343 196 q 506 139 443 139 z "},"q":{"ha":953,"x_min":53,"x_max":839,"o":"m 839 742 l 839 -269 l 665 -269 l 665 90 q 428 -10 578 -10 q 234 38 319 -10 q 101 171 149 85 q 53 371 53 257 q 101 569 53 483 q 235 703 150 656 q 428 750 319 750 q 567 724 504 750 q 674 644 631 697 l 674 742 l 839 742 m 447 139 q 606 203 543 139 q 668 371 668 267 q 606 539 668 475 q 447 603 543 603 q 290 539 351 603 q 228 371 228 475 q 290 203 228 267 q 447 139 351 139 z "},"r":{"ha":583,"x_min":114,"x_max":543,"o":"m 279 633 q 543 750 354 750 l 543 585 q 503 589 521 589 q 344 530 401 589 q 288 360 288 471 l 288 0 l 114 0 l 114 742 l 279 742 l 279 633 z "},"ŕ":{"ha":583,"x_min":114,"x_max":603,"o":"m 279 633 q 543 750 354 750 l 543 585 q 503 589 521 589 q 344 530 401 589 q 288 360 288 471 l 288 0 l 114 0 l 114 742 l 279 742 l 279 633 m 399 1033 l 603 1033 l 361 843 l 211 843 l 399 1033 z "},"ř":{"ha":583,"x_min":63,"x_max":593,"o":"m 279 633 q 543 750 354 750 l 543 585 q 503 589 521 589 q 344 530 401 589 q 288 360 288 471 l 288 0 l 114 0 l 114 742 l 279 742 l 279 633 m 593 1033 l 407 843 l 249 843 l 63 1033 l 206 1033 l 328 931 l 450 1033 l 593 1033 z "},"ŗ":{"ha":583,"x_min":114,"x_max":543,"o":"m 279 633 q 543 750 354 750 l 543 585 q 503 589 521 589 q 344 530 401 589 q 288 360 288 471 l 288 0 l 114 0 l 114 742 l 279 742 l 279 633 m 201 -115 q 262 -136 239 -115 q 285 -189 285 -157 q 263 -271 285 -228 l 218 -368 l 133 -368 l 167 -256 q 118 -189 118 -240 q 141 -135 118 -156 q 201 -115 164 -115 z "},"ȑ":{"ha":583,"x_min":-19,"x_max":543,"o":"m 279 633 q 543 750 354 750 l 543 585 q 503 589 521 589 q 344 530 401 589 q 288 360 288 471 l 288 0 l 114 0 l 114 742 l 279 742 l 279 633 m -19 1033 l 154 1033 l 265 843 l 129 843 l -19 1033 m 240 1033 l 414 1033 l 526 843 l 390 843 l 240 1033 z "},"ṛ":{"ha":583,"x_min":114,"x_max":543,"o":"m 279 633 q 543 750 354 750 l 543 585 q 503 589 521 589 q 344 530 401 589 q 288 360 288 471 l 288 0 l 114 0 l 114 742 l 279 742 l 279 633 m 201 -282 q 142 -260 165 -282 q 118 -200 118 -237 q 142 -140 118 -164 q 201 -115 165 -115 q 261 -140 238 -115 q 285 -200 285 -164 q 261 -260 285 -237 q 201 -282 238 -282 z "},"ȓ":{"ha":583,"x_min":88,"x_max":568,"o":"m 279 633 q 543 750 354 750 l 543 585 q 503 589 521 589 q 344 530 401 589 q 288 360 288 471 l 288 0 l 114 0 l 114 742 l 279 742 l 279 633 m 88 843 q 159 989 92 935 q 328 1043 226 1043 q 497 989 429 1043 q 568 843 564 935 l 454 843 q 417 920 453 892 q 328 949 381 949 q 239 920 275 949 q 201 843 203 892 l 88 843 z "},"ṟ":{"ha":583,"x_min":-39,"x_max":543,"o":"m 279 633 q 543 750 354 750 l 543 585 q 503 589 521 589 q 344 530 401 589 q 288 360 288 471 l 288 0 l 114 0 l 114 742 l 279 742 l 279 633 m -39 -144 l 442 -144 l 442 -247 l -39 -247 l -39 -144 z "},"s":{"ha":715,"x_min":29,"x_max":679,"o":"m 343 -10 q 167 14 253 -10 q 29 74 81 38 l 96 206 q 216 152 146 172 q 354 132 286 132 q 510 214 510 132 q 470 268 510 253 q 343 297 431 283 q 194 329 251 311 q 94 392 136 347 q 51 518 51 438 q 140 687 51 624 q 378 750 228 750 q 531 733 454 750 q 656 686 607 715 l 589 554 q 376 610 494 610 q 260 587 300 610 q 221 526 221 564 q 263 467 221 485 q 394 435 306 450 q 540 403 483 421 q 638 342 597 385 q 679 219 679 299 q 589 53 679 115 q 343 -10 499 -10 z "},"ś":{"ha":715,"x_min":29,"x_max":679,"o":"m 343 -10 q 167 14 253 -10 q 29 74 81 38 l 96 206 q 216 152 146 172 q 354 132 286 132 q 510 214 510 132 q 470 268 510 253 q 343 297 431 283 q 194 329 251 311 q 94 392 136 347 q 51 518 51 438 q 140 687 51 624 q 378 750 228 750 q 531 733 454 750 q 656 686 607 715 l 589 554 q 376 610 494 610 q 260 587 300 610 q 221 526 221 564 q 263 467 221 485 q 394 435 306 450 q 540 403 483 421 q 638 342 597 385 q 679 219 679 299 q 589 53 679 115 q 343 -10 499 -10 m 424 1033 l 628 1033 l 386 843 l 236 843 l 424 1033 z "}}}
